M48
;Layer_Color=9474304
;FILE_FORMAT=4:4
METRIC,LZ
;TYPE=PLATED
T1F00S00C0.3000
T2F00S00C1.1000
T3F00S00C1.2700
T4F00S00C1.4000
%
T01
X008175Y002125
X0093Y0021
X00715Y002125
X005996Y0021
X0049Y0021
X003775
X002675
X00159835Y00204228
X001225Y0021
Y00195
Y0018
X000975Y001775
X0008
X000675Y001761
X000725Y002575
X00094274Y00258537
X001125Y00255
X000525Y003975
X001Y00505
X001575Y004925
X00195Y00485
X001975Y00455
X00239824Y00453857
X002375Y00485
X002275Y00495
X0022385Y004265
X00233895Y00393026
X0022Y00375
X002025Y0039
X00265Y004175
X0026924Y00428644
X0029Y004025
X003175Y003225
X00369252Y00321603
X0039Y003775
X003975Y00395
X0039Y00475
X003975Y005525
X00335Y00555
X00298967Y00549461
X00235Y005675
X0020165Y00556969
X00165395Y00570029
X0009Y0061
X00215Y006675
X003225
X00265Y003175
X0043Y003225
Y003775
X00443355Y00386645
X00465Y003875
X0051Y003975
X005275Y003775
X005575Y00375
X005175Y0034
X00485Y0031
X0054782Y00297253
X00585Y0029
X006Y003375
X006275Y0037
X006175Y004175
X006075Y0041
X0063Y004375
X00654114Y00461757
X005975Y00455
X00595Y00473557
X005825Y00475
X005625Y0049
Y005025
X005525Y004825
X005375Y004875
X00525
X0051Y004675
X005075Y004575
X00495Y0045
X004875Y0044
X0048Y0043
X004375
X004025Y004275
X00415Y003975
X004225Y004575
X00415Y00495
X0041Y00505
X00475Y0051
X00467728Y00519772
X00452386Y00537614
X00435Y00555
X004825Y005575
X005Y0055
X00544424Y00564984
X006125Y00558
X0065Y005575
X007325
X007675Y00555
X0078Y004425
X00725Y00395
X007275Y0038
X00695Y00314
X007675Y003175
X007975Y003275
X00575Y004375
X00565Y00445
X00555Y00455
X005425Y006675
X00845Y005575
X0088
X008475Y004825
X00845Y004525
X0084Y004125
X0082Y00375
X00859259Y00315298
X00915Y0032
X0096Y00325
X00984538Y00668183
X0088Y006725
X00767577Y00672177
X006525Y0067
X004325
T02
X01Y0025
X0004
Y002754
Y0055
Y005754
X008621Y004902
Y004648
X008875Y004648
Y004902
X009129Y004902
Y004648
X009095Y004225
X008605
X01Y003262
Y003008
Y002754
Y0055
Y005754
T03
X0083Y00109
X008555
X00881
X0094Y0011
X009655
X00991
X00771Y00109
X007455
X0072
X00661
X006355
X0061
X00551
X005255
X005
X00441
X004155
X0039
X00331
X003055
X0028
X00221Y0011
X001955
X0017
X00835Y0077
X008605
X00886
X00945
X009705
X00996
X00776
X007505
X00725
X00666
X006405
X00615
X00556
X005305
X00505
X00446
X004205
X00395
X00336
X003105
X00285
X00226
X002005
X00175
T04
X0084Y0005
X00875052
X00935
X00970052
X00780052
X00745
X00685052
X0065
X00590052
X00555
X00495052
X0046
X00400052
X00365
X00305052
X0027
X00200052
X00165
X00100052
X00065
X0083Y0083
X00865052
X00935
X00970052
X00765052
X0073
X00665052
X0063
X00565052
X0053
X00465052
X0043
X00365052
X0033
X00265052
X0023
X00135Y008275
X00099948
M30
