G04*
G04 #@! TF.GenerationSoftware,Altium Limited,Altium Designer,22.7.1 (60)*
G04*
G04 Layer_Physical_Order=1*
G04 Layer_Color=255*
%FSLAX44Y44*%
%MOMM*%
G71*
G04*
G04 #@! TF.SameCoordinates,58864457-2C57-4B72-ACF9-2A768CBF14AA*
G04*
G04*
G04 #@! TF.FilePolarity,Positive*
G04*
G01*
G75*
G04:AMPARAMS|DCode=17|XSize=1.97mm|YSize=0.6mm|CornerRadius=0.075mm|HoleSize=0mm|Usage=FLASHONLY|Rotation=270.000|XOffset=0mm|YOffset=0mm|HoleType=Round|Shape=RoundedRectangle|*
%AMROUNDEDRECTD17*
21,1,1.9700,0.4500,0,0,270.0*
21,1,1.8200,0.6000,0,0,270.0*
1,1,0.1500,-0.2250,-0.9100*
1,1,0.1500,-0.2250,0.9100*
1,1,0.1500,0.2250,0.9100*
1,1,0.1500,0.2250,-0.9100*
%
%ADD17ROUNDEDRECTD17*%
%ADD18R,1.3000X0.7000*%
%ADD19R,0.8800X1.7600*%
%ADD20R,3.1400X1.7600*%
G04:AMPARAMS|DCode=21|XSize=1.09mm|YSize=1.77mm|CornerRadius=0.0763mm|HoleSize=0mm|Usage=FLASHONLY|Rotation=0.000|XOffset=0mm|YOffset=0mm|HoleType=Round|Shape=RoundedRectangle|*
%AMROUNDEDRECTD21*
21,1,1.0900,1.6174,0,0,0.0*
21,1,0.9374,1.7700,0,0,0.0*
1,1,0.1526,0.4687,-0.8087*
1,1,0.1526,-0.4687,-0.8087*
1,1,0.1526,-0.4687,0.8087*
1,1,0.1526,0.4687,0.8087*
%
%ADD21ROUNDEDRECTD21*%
G04:AMPARAMS|DCode=22|XSize=0.94mm|YSize=1.77mm|CornerRadius=0.0658mm|HoleSize=0mm|Usage=FLASHONLY|Rotation=0.000|XOffset=0mm|YOffset=0mm|HoleType=Round|Shape=RoundedRectangle|*
%AMROUNDEDRECTD22*
21,1,0.9400,1.6384,0,0,0.0*
21,1,0.8084,1.7700,0,0,0.0*
1,1,0.1316,0.4042,-0.8192*
1,1,0.1316,-0.4042,-0.8192*
1,1,0.1316,-0.4042,0.8192*
1,1,0.1316,0.4042,0.8192*
%
%ADD22ROUNDEDRECTD22*%
%ADD23R,3.3700X2.3700*%
%ADD24R,1.8200X1.4400*%
%ADD25R,1.7000X2.5000*%
%ADD26R,2.5000X1.7000*%
%ADD27R,0.7000X1.3000*%
%ADD28R,1.6500X1.7000*%
%ADD29R,1.2000X1.2000*%
%ADD30R,1.1800X1.1700*%
G04:AMPARAMS|DCode=31|XSize=1.22mm|YSize=0.6mm|CornerRadius=0.15mm|HoleSize=0mm|Usage=FLASHONLY|Rotation=0.000|XOffset=0mm|YOffset=0mm|HoleType=Round|Shape=RoundedRectangle|*
%AMROUNDEDRECTD31*
21,1,1.2200,0.3000,0,0,0.0*
21,1,0.9200,0.6000,0,0,0.0*
1,1,0.3000,0.4600,-0.1500*
1,1,0.3000,-0.4600,-0.1500*
1,1,0.3000,-0.4600,0.1500*
1,1,0.3000,0.4600,0.1500*
%
%ADD31ROUNDEDRECTD31*%
%ADD32R,1.3000X0.9000*%
%ADD33R,2.6500X3.6000*%
%ADD34R,3.2000X1.6000*%
%ADD35R,1.7600X3.1400*%
%ADD36R,1.7600X0.8800*%
%ADD37R,0.9000X1.3000*%
%ADD38R,1.4000X1.6000*%
%ADD39C,1.0000*%
%ADD74C,0.3000*%
%ADD75C,0.8000*%
%ADD76C,0.6000*%
%ADD77C,0.4000*%
%ADD78C,0.5000*%
%ADD79R,2.0000X1.6000*%
%ADD80O,2.0000X1.6000*%
%ADD81R,2.0000X2.0000*%
%ADD82C,2.0000*%
%ADD83C,1.9100*%
%ADD84R,1.9100X1.9100*%
%ADD85C,1.5000*%
%ADD86R,1.5000X1.5000*%
%ADD87C,1.6000*%
%ADD88R,1.6000X2.0000*%
%ADD89O,1.6000X2.0000*%
%ADD90C,0.6000*%
G36*
X1035000Y5000D02*
X1030000Y0D01*
X0D01*
Y870000D01*
X-2500Y872500D01*
X0Y877500D01*
X1035000D01*
Y5000D01*
D02*
G37*
%LPC*%
G36*
X936580Y842000D02*
X933420D01*
X930368Y841182D01*
X927632Y839602D01*
X925398Y837368D01*
X923818Y834632D01*
X923000Y831580D01*
Y828420D01*
X923818Y825368D01*
X925398Y822632D01*
X927632Y820398D01*
X930368Y818818D01*
X933420Y818000D01*
X936580D01*
X939632Y818818D01*
X942368Y820398D01*
X944602Y822632D01*
X946182Y825368D01*
X947000Y828420D01*
Y831580D01*
X946182Y834632D01*
X944602Y837368D01*
X942368Y839602D01*
X939632Y841182D01*
X936580Y842000D01*
D02*
G37*
G36*
X831580D02*
X828420D01*
X825368Y841182D01*
X822632Y839602D01*
X820398Y837368D01*
X818818Y834632D01*
X818000Y831580D01*
Y828420D01*
X818818Y825368D01*
X820398Y822632D01*
X822632Y820398D01*
X825368Y818818D01*
X828420Y818000D01*
X831580D01*
X834632Y818818D01*
X837368Y820398D01*
X839602Y822632D01*
X841182Y825368D01*
X842000Y828420D01*
Y831580D01*
X841182Y834632D01*
X839602Y837368D01*
X837368Y839602D01*
X834632Y841182D01*
X831580Y842000D01*
D02*
G37*
G36*
X731580D02*
X728420D01*
X725368Y841182D01*
X722632Y839602D01*
X720398Y837368D01*
X718818Y834632D01*
X718000Y831580D01*
Y828420D01*
X718818Y825368D01*
X720398Y822632D01*
X722632Y820398D01*
X725368Y818818D01*
X728420Y818000D01*
X731580D01*
X734632Y818818D01*
X737368Y820398D01*
X739602Y822632D01*
X741182Y825368D01*
X742000Y828420D01*
Y831580D01*
X741182Y834632D01*
X739602Y837368D01*
X737368Y839602D01*
X734632Y841182D01*
X731580Y842000D01*
D02*
G37*
G36*
X631580D02*
X628420D01*
X625368Y841182D01*
X622632Y839602D01*
X620398Y837368D01*
X618818Y834632D01*
X618000Y831580D01*
Y828420D01*
X618818Y825368D01*
X620398Y822632D01*
X622632Y820398D01*
X625368Y818818D01*
X628420Y818000D01*
X631580D01*
X634632Y818818D01*
X637368Y820398D01*
X639602Y822632D01*
X641182Y825368D01*
X642000Y828420D01*
Y831580D01*
X641182Y834632D01*
X639602Y837368D01*
X637368Y839602D01*
X634632Y841182D01*
X631580Y842000D01*
D02*
G37*
G36*
X531580D02*
X528420D01*
X525368Y841182D01*
X522632Y839602D01*
X520398Y837368D01*
X518818Y834632D01*
X518000Y831580D01*
Y828420D01*
X518818Y825368D01*
X520398Y822632D01*
X522632Y820398D01*
X525368Y818818D01*
X528420Y818000D01*
X531580D01*
X534632Y818818D01*
X537368Y820398D01*
X539602Y822632D01*
X541182Y825368D01*
X542000Y828420D01*
Y831580D01*
X541182Y834632D01*
X539602Y837368D01*
X537368Y839602D01*
X534632Y841182D01*
X531580Y842000D01*
D02*
G37*
G36*
X431580D02*
X428420D01*
X425368Y841182D01*
X422632Y839602D01*
X420398Y837368D01*
X418818Y834632D01*
X418000Y831580D01*
Y828420D01*
X418818Y825368D01*
X420398Y822632D01*
X422632Y820398D01*
X425368Y818818D01*
X428420Y818000D01*
X431580D01*
X434632Y818818D01*
X437368Y820398D01*
X439602Y822632D01*
X441182Y825368D01*
X442000Y828420D01*
Y831580D01*
X441182Y834632D01*
X439602Y837368D01*
X437368Y839602D01*
X434632Y841182D01*
X431580Y842000D01*
D02*
G37*
G36*
X331580D02*
X328420D01*
X325368Y841182D01*
X322632Y839602D01*
X320398Y837368D01*
X318818Y834632D01*
X318000Y831580D01*
Y828420D01*
X318818Y825368D01*
X320398Y822632D01*
X322632Y820398D01*
X325368Y818818D01*
X328420Y818000D01*
X331580D01*
X334632Y818818D01*
X337368Y820398D01*
X339602Y822632D01*
X341182Y825368D01*
X342000Y828420D01*
Y831580D01*
X341182Y834632D01*
X339602Y837368D01*
X337368Y839602D01*
X334632Y841182D01*
X331580Y842000D01*
D02*
G37*
G36*
X203850Y865400D02*
X166150D01*
Y857667D01*
X159050D01*
X156709Y857202D01*
X154724Y855876D01*
X138349Y839500D01*
X123000D01*
Y815500D01*
X147000D01*
Y830848D01*
X161584Y845432D01*
X166150D01*
Y837700D01*
X195198D01*
X204928Y827970D01*
X206913Y826644D01*
X209254Y826179D01*
X218601D01*
X218818Y825368D01*
X220398Y822632D01*
X222632Y820398D01*
X225368Y818818D01*
X228420Y818000D01*
X231580D01*
X234632Y818818D01*
X237368Y820398D01*
X239602Y822632D01*
X241182Y825368D01*
X242000Y828420D01*
Y831580D01*
X241182Y834632D01*
X239602Y837368D01*
X237368Y839602D01*
X234632Y841182D01*
X231580Y842000D01*
X228420D01*
X225368Y841182D01*
X222632Y839602D01*
X221443Y838414D01*
X211788D01*
X203850Y846351D01*
Y865400D01*
D02*
G37*
G36*
X76350Y867900D02*
X38650D01*
Y840200D01*
X64759D01*
X65350Y840082D01*
X78714D01*
X88322Y830475D01*
X87948Y829080D01*
Y825920D01*
X88766Y822868D01*
X90346Y820132D01*
X92580Y817898D01*
X95316Y816318D01*
X98368Y815500D01*
X101528D01*
X104580Y816318D01*
X107316Y817898D01*
X109550Y820132D01*
X111130Y822868D01*
X111948Y825920D01*
Y829080D01*
X111130Y832132D01*
X109550Y834868D01*
X107316Y837102D01*
X104580Y838682D01*
X101528Y839500D01*
X98368D01*
X96973Y839126D01*
X85574Y850526D01*
X83589Y851852D01*
X81248Y852318D01*
X76350D01*
Y867900D01*
D02*
G37*
G36*
X203850Y817300D02*
X166150D01*
Y809567D01*
X140200D01*
X137859Y809102D01*
X135874Y807776D01*
X119099Y791000D01*
X107250D01*
Y770000D01*
X127750D01*
Y782348D01*
X142734Y797333D01*
X166150D01*
Y789600D01*
X203850D01*
Y817300D01*
D02*
G37*
G36*
X76350Y819800D02*
X38650D01*
Y792100D01*
X56840D01*
X57250Y791000D01*
X57250D01*
Y770000D01*
X77750D01*
Y791000D01*
X76760D01*
X76350Y792100D01*
X76350D01*
Y797509D01*
X76467Y798100D01*
X76350Y798691D01*
Y819800D01*
D02*
G37*
G36*
X946521Y781550D02*
X943479D01*
X940542Y780763D01*
X937908Y779242D01*
X935758Y777092D01*
X934237Y774458D01*
X933450Y771521D01*
Y768479D01*
X934237Y765542D01*
X935758Y762908D01*
X937908Y760758D01*
X940542Y759237D01*
X943479Y758450D01*
X946521D01*
X949458Y759237D01*
X952092Y760758D01*
X954242Y762908D01*
X955763Y765542D01*
X956550Y768479D01*
Y771521D01*
X955763Y774458D01*
X954242Y777092D01*
X952092Y779242D01*
X949458Y780763D01*
X946521Y781550D01*
D02*
G37*
G36*
X836521D02*
X833479D01*
X830542Y780763D01*
X827908Y779242D01*
X825758Y777092D01*
X824237Y774458D01*
X823450Y771521D01*
Y768479D01*
X824237Y765542D01*
X825758Y762908D01*
X827908Y760758D01*
X830542Y759237D01*
X833479Y758450D01*
X836521D01*
X839458Y759237D01*
X842092Y760758D01*
X844242Y762908D01*
X845763Y765542D01*
X846550Y768479D01*
Y771521D01*
X845763Y774458D01*
X844242Y777092D01*
X842092Y779242D01*
X839458Y780763D01*
X836521Y781550D01*
D02*
G37*
G36*
X726521D02*
X723479D01*
X720542Y780763D01*
X717908Y779242D01*
X715758Y777092D01*
X714237Y774458D01*
X713450Y771521D01*
Y768479D01*
X714237Y765542D01*
X715758Y762908D01*
X717908Y760758D01*
X720542Y759237D01*
X723479Y758450D01*
X726521D01*
X729458Y759237D01*
X732092Y760758D01*
X734242Y762908D01*
X735763Y765542D01*
X736550Y768479D01*
Y771521D01*
X735763Y774458D01*
X734242Y777092D01*
X732092Y779242D01*
X729458Y780763D01*
X726521Y781550D01*
D02*
G37*
G36*
X616521D02*
X613479D01*
X610542Y780763D01*
X607908Y779242D01*
X605758Y777092D01*
X604237Y774458D01*
X603450Y771521D01*
Y768479D01*
X604237Y765542D01*
X605758Y762908D01*
X607908Y760758D01*
X610542Y759237D01*
X613479Y758450D01*
X616521D01*
X619458Y759237D01*
X622092Y760758D01*
X624242Y762908D01*
X625763Y765542D01*
X626550Y768479D01*
Y771521D01*
X625763Y774458D01*
X624242Y777092D01*
X622092Y779242D01*
X619458Y780763D01*
X616521Y781550D01*
D02*
G37*
G36*
X506521D02*
X503479D01*
X500542Y780763D01*
X497908Y779242D01*
X495758Y777092D01*
X494237Y774458D01*
X493450Y771521D01*
Y768479D01*
X494237Y765542D01*
X495758Y762908D01*
X497908Y760758D01*
X500542Y759237D01*
X503479Y758450D01*
X506521D01*
X509458Y759237D01*
X512092Y760758D01*
X514242Y762908D01*
X515763Y765542D01*
X516550Y768479D01*
Y771521D01*
X515763Y774458D01*
X514242Y777092D01*
X512092Y779242D01*
X509458Y780763D01*
X506521Y781550D01*
D02*
G37*
G36*
X396521D02*
X393479D01*
X390542Y780763D01*
X387908Y779242D01*
X385758Y777092D01*
X384237Y774458D01*
X383450Y771521D01*
Y768479D01*
X384237Y765542D01*
X385758Y762908D01*
X387908Y760758D01*
X390542Y759237D01*
X393479Y758450D01*
X396521D01*
X399458Y759237D01*
X402092Y760758D01*
X404242Y762908D01*
X405763Y765542D01*
X406550Y768479D01*
Y771521D01*
X405763Y774458D01*
X404242Y777092D01*
X402092Y779242D01*
X399458Y780763D01*
X396521Y781550D01*
D02*
G37*
G36*
X286521D02*
X283479D01*
X280542Y780763D01*
X277908Y779242D01*
X275758Y777092D01*
X274237Y774458D01*
X273450Y771521D01*
Y768479D01*
X274237Y765542D01*
X275758Y762908D01*
X277908Y760758D01*
X280542Y759237D01*
X283479Y758450D01*
X286521D01*
X289458Y759237D01*
X292092Y760758D01*
X294242Y762908D01*
X295763Y765542D01*
X296550Y768479D01*
Y771521D01*
X295763Y774458D01*
X294242Y777092D01*
X292092Y779242D01*
X289458Y780763D01*
X286521Y781550D01*
D02*
G37*
G36*
X176521D02*
X173479D01*
X170542Y780763D01*
X167908Y779242D01*
X165758Y777092D01*
X164237Y774458D01*
X163450Y771521D01*
Y768479D01*
X164237Y765542D01*
X165758Y762908D01*
X167908Y760758D01*
X170542Y759237D01*
X173479Y758450D01*
X176521D01*
X179458Y759237D01*
X182092Y760758D01*
X184242Y762908D01*
X185763Y765542D01*
X186550Y768479D01*
Y771521D01*
X185763Y774458D01*
X184242Y777092D01*
X182092Y779242D01*
X179458Y780763D01*
X176521Y781550D01*
D02*
G37*
G36*
X862021D02*
X858979D01*
X856042Y780763D01*
X853408Y779242D01*
X851258Y777092D01*
X849737Y774458D01*
X848950Y771521D01*
Y768479D01*
X849737Y765542D01*
X850139Y764847D01*
X849698Y764187D01*
X849232Y761846D01*
Y737954D01*
X848671Y737579D01*
X848060Y736665D01*
X847846Y735587D01*
Y733617D01*
X845500D01*
Y736000D01*
X834500D01*
Y730068D01*
X834348Y729841D01*
X833883Y727500D01*
X834348Y725159D01*
X834500Y724932D01*
Y719000D01*
X845500D01*
Y721383D01*
X847846D01*
Y719413D01*
X848060Y718335D01*
X848671Y717421D01*
X849585Y716810D01*
X850663Y716596D01*
X860037D01*
X861115Y716810D01*
X862029Y717421D01*
X862640Y718335D01*
X862854Y719413D01*
Y735587D01*
X862640Y736665D01*
X862029Y737579D01*
X861468Y737954D01*
Y758450D01*
X862021D01*
X864958Y759237D01*
X867592Y760758D01*
X869742Y762908D01*
X871263Y765542D01*
X872050Y768479D01*
Y771521D01*
X871263Y774458D01*
X869742Y777092D01*
X867592Y779242D01*
X864958Y780763D01*
X862021Y781550D01*
D02*
G37*
G36*
X752021D02*
X748979D01*
X746042Y780763D01*
X743408Y779242D01*
X741258Y777092D01*
X739737Y774458D01*
X738950Y771521D01*
Y768479D01*
X739737Y765542D01*
X739978Y765125D01*
X738524Y763672D01*
X737198Y761687D01*
X736732Y759346D01*
Y737954D01*
X736171Y737579D01*
X735560Y736665D01*
X735346Y735587D01*
Y733617D01*
X730000D01*
Y736000D01*
X719000D01*
Y730068D01*
X718848Y729841D01*
X718382Y727500D01*
X718848Y725159D01*
X719000Y724932D01*
Y719000D01*
X730000D01*
Y721383D01*
X735346D01*
Y719413D01*
X735560Y718335D01*
X736171Y717421D01*
X737085Y716810D01*
X738163Y716596D01*
X747537D01*
X748615Y716810D01*
X749529Y717421D01*
X750140Y718335D01*
X750354Y719413D01*
Y735587D01*
X750140Y736665D01*
X749529Y737579D01*
X748968Y737954D01*
Y756812D01*
X750605Y758450D01*
X752021D01*
X754958Y759237D01*
X757592Y760758D01*
X759742Y762908D01*
X761263Y765542D01*
X762050Y768479D01*
Y771521D01*
X761263Y774458D01*
X759742Y777092D01*
X757592Y779242D01*
X754958Y780763D01*
X752021Y781550D01*
D02*
G37*
G36*
X377052Y842000D02*
X353052D01*
Y818000D01*
X358934D01*
Y801586D01*
X338899Y781550D01*
X324450D01*
Y758450D01*
X338899D01*
X348882Y748466D01*
Y732560D01*
X343900D01*
X342836Y733057D01*
X342629Y733196D01*
X341592Y733402D01*
X333508D01*
X332471Y733196D01*
X331592Y732608D01*
X331004Y731729D01*
X330798Y730692D01*
Y714308D01*
X331004Y713271D01*
X331592Y712392D01*
X332132Y712030D01*
Y711490D01*
X332598Y709149D01*
X332785Y708870D01*
X332106Y707600D01*
X312400D01*
Y678600D01*
X316782D01*
Y669511D01*
X316383Y667500D01*
X316848Y665159D01*
X318174Y663174D01*
X320159Y661848D01*
X322500Y661383D01*
X324841Y661848D01*
X326826Y663174D01*
X327226Y663574D01*
X328552Y665559D01*
X329017Y667900D01*
Y678600D01*
X333400D01*
Y705892D01*
X334670Y706419D01*
X343900Y697188D01*
Y687440D01*
X366100D01*
Y705840D01*
X352551D01*
X345502Y712890D01*
X346028Y714160D01*
X366100D01*
Y732560D01*
X361118D01*
Y751000D01*
X360652Y753341D01*
X359326Y755326D01*
X347550Y767102D01*
Y772898D01*
X369378Y794726D01*
X370704Y796711D01*
X371170Y799052D01*
Y818000D01*
X377052D01*
Y842000D01*
D02*
G37*
G36*
X972021Y781550D02*
X968979D01*
X966042Y780763D01*
X963408Y779242D01*
X961258Y777092D01*
X959737Y774458D01*
X958950Y771521D01*
Y768479D01*
X959737Y765542D01*
X959978Y765125D01*
X958524Y763672D01*
X957198Y761687D01*
X956732Y759346D01*
Y735454D01*
X956171Y735079D01*
X955560Y734165D01*
X955346Y733087D01*
Y731117D01*
X952500D01*
Y733500D01*
X941500D01*
Y727568D01*
X941348Y727341D01*
X940882Y725000D01*
X941348Y722659D01*
X941500Y722432D01*
Y716500D01*
X952500D01*
Y718883D01*
X955346D01*
Y716913D01*
X955560Y715835D01*
X956171Y714921D01*
X957085Y714310D01*
X958163Y714096D01*
X967537D01*
X968615Y714310D01*
X969529Y714921D01*
X970140Y715835D01*
X970354Y716913D01*
Y733087D01*
X970140Y734165D01*
X969529Y735079D01*
X968968Y735454D01*
Y756812D01*
X970605Y758450D01*
X972021D01*
X974958Y759237D01*
X977592Y760758D01*
X979742Y762908D01*
X981263Y765542D01*
X982050Y768479D01*
Y771521D01*
X981263Y774458D01*
X979742Y777092D01*
X977592Y779242D01*
X974958Y780763D01*
X972021Y781550D01*
D02*
G37*
G36*
X642021D02*
X638979D01*
X636042Y780763D01*
X633408Y779242D01*
X631258Y777092D01*
X629737Y774458D01*
X628950Y771521D01*
Y768479D01*
X629737Y765542D01*
X631258Y762908D01*
X633408Y760758D01*
X636042Y759237D01*
X636382Y759146D01*
Y743084D01*
X629203Y735904D01*
X625663D01*
X624585Y735690D01*
X623671Y735079D01*
X623060Y734165D01*
X622846Y733087D01*
Y731117D01*
X619500D01*
Y733500D01*
X608500D01*
Y727568D01*
X608348Y727341D01*
X607882Y725000D01*
X608348Y722659D01*
X608500Y722432D01*
Y716500D01*
X619500D01*
Y718883D01*
X622846D01*
Y716913D01*
X623060Y715835D01*
X623671Y714921D01*
X624585Y714310D01*
X625663Y714096D01*
X635037D01*
X636115Y714310D01*
X637029Y714921D01*
X637640Y715835D01*
X637854Y716913D01*
Y727253D01*
X646826Y736224D01*
X648152Y738209D01*
X648617Y740550D01*
Y761783D01*
X649742Y762908D01*
X651263Y765542D01*
X652050Y768479D01*
Y771521D01*
X651263Y774458D01*
X649742Y777092D01*
X647592Y779242D01*
X644958Y780763D01*
X642021Y781550D01*
D02*
G37*
G36*
X532021D02*
X528979D01*
X526042Y780763D01*
X523408Y779242D01*
X521258Y777092D01*
X519737Y774458D01*
X518950Y771521D01*
Y768479D01*
X519737Y765542D01*
X519978Y765125D01*
X518524Y763672D01*
X517198Y761687D01*
X516732Y759346D01*
Y735454D01*
X516171Y735079D01*
X515560Y734165D01*
X515346Y733087D01*
Y731117D01*
X512500D01*
Y733500D01*
X501500D01*
Y727568D01*
X501348Y727341D01*
X500882Y725000D01*
X501348Y722659D01*
X501500Y722432D01*
Y716500D01*
X512500D01*
Y718883D01*
X515346D01*
Y716913D01*
X515560Y715835D01*
X516171Y714921D01*
X517085Y714310D01*
X518163Y714096D01*
X527537D01*
X528615Y714310D01*
X529529Y714921D01*
X530140Y715835D01*
X530354Y716913D01*
Y733087D01*
X530140Y734165D01*
X529529Y735079D01*
X528968Y735454D01*
Y756812D01*
X530605Y758450D01*
X532021D01*
X534958Y759237D01*
X537592Y760758D01*
X539742Y762908D01*
X541263Y765542D01*
X542050Y768479D01*
Y771521D01*
X541263Y774458D01*
X539742Y777092D01*
X537592Y779242D01*
X534958Y780763D01*
X532021Y781550D01*
D02*
G37*
G36*
X422021D02*
X418979D01*
X416042Y780763D01*
X413408Y779242D01*
X411258Y777092D01*
X409737Y774458D01*
X408950Y771521D01*
Y768479D01*
X409737Y765542D01*
X409978Y765125D01*
X408524Y763672D01*
X407198Y761687D01*
X406732Y759346D01*
Y735454D01*
X406171Y735079D01*
X405560Y734165D01*
X405346Y733087D01*
Y731117D01*
X402500D01*
Y733500D01*
X391500D01*
Y727568D01*
X391348Y727341D01*
X390882Y725000D01*
X391348Y722659D01*
X391500Y722432D01*
Y716500D01*
X402500D01*
Y718883D01*
X405346D01*
Y716913D01*
X405560Y715835D01*
X406171Y714921D01*
X407085Y714310D01*
X408163Y714096D01*
X417537D01*
X418615Y714310D01*
X419529Y714921D01*
X420140Y715835D01*
X420354Y716913D01*
Y733087D01*
X420140Y734165D01*
X419529Y735079D01*
X418968Y735454D01*
Y756812D01*
X420605Y758450D01*
X422021D01*
X424958Y759237D01*
X427592Y760758D01*
X429742Y762908D01*
X431263Y765542D01*
X432050Y768479D01*
Y771521D01*
X431263Y774458D01*
X429742Y777092D01*
X427592Y779242D01*
X424958Y780763D01*
X422021Y781550D01*
D02*
G37*
G36*
X202021D02*
X198979D01*
X196042Y780763D01*
X193408Y779242D01*
X191258Y777092D01*
X189737Y774458D01*
X188950Y771521D01*
Y768479D01*
X189737Y765542D01*
X189978Y765125D01*
X188524Y763672D01*
X187198Y761687D01*
X186733Y759346D01*
Y735454D01*
X186171Y735079D01*
X185560Y734165D01*
X185346Y733087D01*
Y731117D01*
X182500D01*
Y733500D01*
X171500D01*
Y727568D01*
X171348Y727341D01*
X170882Y725000D01*
X171348Y722659D01*
X171500Y722432D01*
Y716500D01*
X182500D01*
Y718883D01*
X185346D01*
Y716913D01*
X185560Y715835D01*
X186171Y714921D01*
X187085Y714310D01*
X188163Y714096D01*
X197537D01*
X198615Y714310D01*
X199529Y714921D01*
X200140Y715835D01*
X200354Y716913D01*
Y733087D01*
X200140Y734165D01*
X199529Y735079D01*
X198967Y735454D01*
Y756812D01*
X200605Y758450D01*
X202021D01*
X204958Y759237D01*
X207592Y760758D01*
X209742Y762908D01*
X211263Y765542D01*
X212050Y768479D01*
Y771521D01*
X211263Y774458D01*
X209742Y777092D01*
X207592Y779242D01*
X204958Y780763D01*
X202021Y781550D01*
D02*
G37*
G36*
X312021D02*
X308979D01*
X306042Y780763D01*
X303408Y779242D01*
X301258Y777092D01*
X299737Y774458D01*
X298950Y771521D01*
Y768479D01*
X299737Y765542D01*
X301258Y762908D01*
X302832Y761333D01*
Y733404D01*
X302813D01*
X301735Y733190D01*
X300821Y732579D01*
X300210Y731665D01*
X299996Y730587D01*
Y728617D01*
X294500D01*
Y731000D01*
X283500D01*
Y725068D01*
X283348Y724841D01*
X282882Y722500D01*
X283348Y720159D01*
X283500Y719932D01*
Y714000D01*
X294500D01*
Y716383D01*
X299996D01*
Y714413D01*
X300210Y713335D01*
X300821Y712421D01*
X301735Y711810D01*
X302813Y711596D01*
X312187D01*
X313265Y711810D01*
X314179Y712421D01*
X314790Y713335D01*
X315004Y714413D01*
Y723631D01*
X315068Y723950D01*
Y759300D01*
X317592Y760758D01*
X319742Y762908D01*
X321263Y765542D01*
X322050Y768479D01*
Y771521D01*
X321263Y774458D01*
X319742Y777092D01*
X317592Y779242D01*
X314958Y780763D01*
X312021Y781550D01*
D02*
G37*
G36*
X877052Y842000D02*
X853052D01*
Y818000D01*
X868400D01*
X879883Y806518D01*
Y781550D01*
X874450D01*
Y758450D01*
X888898D01*
X896383Y750966D01*
Y740060D01*
X893900D01*
Y724644D01*
X892630Y724007D01*
X892217Y724315D01*
Y726800D01*
X892152Y727129D01*
Y735692D01*
X891946Y736729D01*
X891358Y737608D01*
X890479Y738196D01*
X889442Y738402D01*
X881358D01*
X880321Y738196D01*
X879442Y737608D01*
X878854Y736729D01*
X878648Y735692D01*
Y719308D01*
X878854Y718271D01*
X879442Y717392D01*
X880321Y716804D01*
X881358Y716598D01*
X881991D01*
X884815Y713773D01*
X884329Y712600D01*
X867400D01*
Y683600D01*
X871783D01*
Y674600D01*
X872248Y672259D01*
X873574Y670274D01*
X875674Y668174D01*
X877659Y666848D01*
X880000Y666383D01*
X882341Y666848D01*
X884326Y668174D01*
X885652Y670159D01*
X886117Y672500D01*
X885652Y674841D01*
X884326Y676826D01*
X884017Y677134D01*
Y683600D01*
X888400D01*
Y708529D01*
X889573Y709015D01*
X893900Y704688D01*
Y694940D01*
X916100D01*
Y713340D01*
X902551D01*
X895405Y720487D01*
X895891Y721660D01*
X916100D01*
Y740060D01*
X908617D01*
Y753500D01*
X908152Y755841D01*
X906826Y757826D01*
X897550Y767102D01*
Y781550D01*
X892117D01*
Y809052D01*
X891652Y811393D01*
X890326Y813378D01*
X877052Y826652D01*
Y842000D01*
D02*
G37*
G36*
X477052D02*
X453052D01*
Y826652D01*
X441674Y815274D01*
X440348Y813289D01*
X439883Y810948D01*
Y781550D01*
X434450D01*
Y758450D01*
X448899D01*
X456382Y750966D01*
Y740060D01*
X451400D01*
Y724517D01*
X450130Y723886D01*
X449652Y724250D01*
Y733192D01*
X449446Y734229D01*
X448858Y735108D01*
X447979Y735696D01*
X446942Y735902D01*
X438858D01*
X437821Y735696D01*
X436942Y735108D01*
X436354Y734229D01*
X436148Y733192D01*
Y716808D01*
X436354Y715771D01*
X436942Y714892D01*
X437821Y714304D01*
X438858Y714098D01*
X441991D01*
X451400Y704688D01*
Y694940D01*
X473600D01*
Y713340D01*
X460051D01*
X452905Y720487D01*
X453391Y721660D01*
X473600D01*
Y740060D01*
X468618D01*
Y753500D01*
X468152Y755841D01*
X466826Y757826D01*
X457550Y767102D01*
Y781550D01*
X452118D01*
Y808414D01*
X461703Y818000D01*
X477052D01*
Y842000D01*
D02*
G37*
G36*
X777052D02*
X753052D01*
Y818000D01*
X768400D01*
X769883Y816518D01*
Y781550D01*
X764450D01*
Y758450D01*
X778898D01*
X791383Y745966D01*
Y740060D01*
X786400D01*
Y723651D01*
X785227Y723165D01*
X781416Y726976D01*
X779652Y728154D01*
Y735692D01*
X779446Y736729D01*
X778858Y737608D01*
X777979Y738196D01*
X776942Y738402D01*
X768858D01*
X767821Y738196D01*
X766942Y737608D01*
X766354Y736729D01*
X766148Y735692D01*
Y719308D01*
X766354Y718271D01*
X766942Y717392D01*
X767821Y716804D01*
X768858Y716598D01*
X773271D01*
X773600Y716533D01*
X774556D01*
X786400Y704688D01*
Y694940D01*
X808600D01*
Y713340D01*
X795051D01*
X787905Y720487D01*
X788391Y721660D01*
X808600D01*
Y740060D01*
X803617D01*
Y748500D01*
X803152Y750841D01*
X801826Y752826D01*
X787550Y767102D01*
Y781550D01*
X782117D01*
Y819052D01*
X781652Y821393D01*
X780326Y823378D01*
X777052Y826652D01*
Y842000D01*
D02*
G37*
G36*
X677052D02*
X653052D01*
Y818000D01*
X659408D01*
Y781550D01*
X654450D01*
Y758450D01*
X668898D01*
X676383Y750966D01*
Y740060D01*
X671400D01*
Y723651D01*
X670227Y723165D01*
X668916Y724476D01*
X667152Y725654D01*
Y733192D01*
X666946Y734229D01*
X666358Y735108D01*
X665479Y735696D01*
X664442Y735902D01*
X656358D01*
X655321Y735696D01*
X654442Y735108D01*
X653854Y734229D01*
X653648Y733192D01*
Y716808D01*
X653854Y715771D01*
X654442Y714892D01*
X655321Y714304D01*
X656358Y714098D01*
X660771D01*
X661100Y714033D01*
X662056D01*
X671400Y704688D01*
Y694940D01*
X693600D01*
Y713340D01*
X680051D01*
X672905Y720487D01*
X673391Y721660D01*
X693600D01*
Y740060D01*
X688617D01*
Y753500D01*
X688152Y755841D01*
X686826Y757826D01*
X677550Y767102D01*
Y781550D01*
X671644D01*
Y818000D01*
X677052D01*
Y842000D01*
D02*
G37*
G36*
X982052D02*
X958052D01*
Y818000D01*
X973400D01*
X989882Y801518D01*
Y781550D01*
X984450D01*
Y758450D01*
X998898D01*
X1008883Y748466D01*
Y740060D01*
X1001400D01*
Y723738D01*
X1000130Y723096D01*
X999652Y723448D01*
Y733192D01*
X999446Y734229D01*
X998858Y735108D01*
X997979Y735696D01*
X996942Y735902D01*
X988858D01*
X987821Y735696D01*
X986942Y735108D01*
X986354Y734229D01*
X986148Y733192D01*
Y716808D01*
X986354Y715771D01*
X986942Y714892D01*
X987821Y714304D01*
X988858Y714098D01*
X991001D01*
X996461Y708638D01*
X995702Y707600D01*
X994712Y707600D01*
X974900D01*
Y678600D01*
X979283D01*
Y671117D01*
X978886Y670524D01*
X978420Y668183D01*
X978886Y665842D01*
X980212Y663857D01*
X982197Y662531D01*
X984538Y662065D01*
X986879Y662531D01*
X988864Y663857D01*
X989726Y664719D01*
X991052Y666704D01*
X991517Y669045D01*
Y678600D01*
X995900D01*
Y706347D01*
X995900Y707402D01*
X996938Y708161D01*
X1001400Y703699D01*
Y694940D01*
X1023600D01*
Y713340D01*
X1009891D01*
X1009300Y713457D01*
X1008944D01*
X1002011Y720390D01*
X1002538Y721660D01*
X1023600D01*
Y740060D01*
X1021117D01*
Y751000D01*
X1020652Y753341D01*
X1019326Y755326D01*
X1007550Y767102D01*
Y781550D01*
X1002117D01*
Y804052D01*
X1001652Y806393D01*
X1000326Y808378D01*
X982052Y826652D01*
Y842000D01*
D02*
G37*
G36*
X577052D02*
X553052D01*
Y826652D01*
X551674Y825274D01*
X550348Y823289D01*
X549883Y820948D01*
Y781550D01*
X544450D01*
Y758450D01*
X558899D01*
X566382Y750966D01*
Y737560D01*
X561400D01*
Y722144D01*
X560130Y721507D01*
X559717Y721815D01*
Y724300D01*
X559652Y724629D01*
Y733192D01*
X559446Y734229D01*
X558858Y735108D01*
X557979Y735696D01*
X556942Y735902D01*
X548858D01*
X547821Y735696D01*
X546942Y735108D01*
X546354Y734229D01*
X546148Y733192D01*
Y716808D01*
X546354Y715771D01*
X546942Y714892D01*
X547821Y714304D01*
X548858Y714098D01*
X549491D01*
X561400Y702188D01*
Y692440D01*
X583600D01*
Y710840D01*
X570051D01*
X562905Y717987D01*
X563391Y719160D01*
X583600D01*
Y737560D01*
X578618D01*
Y753500D01*
X578152Y755841D01*
X576826Y757826D01*
X567550Y767102D01*
Y781550D01*
X562118D01*
Y818000D01*
X577052D01*
Y842000D01*
D02*
G37*
G36*
X277052D02*
X253052D01*
Y827985D01*
X221008Y795940D01*
X219886Y794478D01*
X219180Y792775D01*
X218940Y790948D01*
Y781550D01*
X214450D01*
Y758450D01*
X228899D01*
X238883Y748466D01*
Y735060D01*
X233900D01*
Y718651D01*
X232727Y718165D01*
X229718Y721174D01*
Y724300D01*
X229652Y724629D01*
Y733192D01*
X229446Y734229D01*
X228858Y735108D01*
X227979Y735696D01*
X226942Y735902D01*
X218858D01*
X217821Y735696D01*
X216942Y735108D01*
X216354Y734229D01*
X216148Y733192D01*
Y716808D01*
X216354Y715771D01*
X216942Y714892D01*
X217821Y714304D01*
X218858Y714098D01*
X219491D01*
X222315Y711273D01*
X221829Y710100D01*
X204900D01*
Y681100D01*
X209282D01*
Y669511D01*
X208883Y667500D01*
X209348Y665159D01*
X210674Y663174D01*
X212659Y661848D01*
X215000Y661383D01*
X217341Y661848D01*
X219326Y663174D01*
X219726Y663574D01*
X221052Y665559D01*
X221518Y667900D01*
Y681100D01*
X225900D01*
Y706029D01*
X227073Y706515D01*
X233900Y699688D01*
Y689940D01*
X256100D01*
Y708340D01*
X242551D01*
X235405Y715487D01*
X235891Y716660D01*
X256100D01*
Y735060D01*
X251117D01*
Y751000D01*
X250652Y753341D01*
X249326Y755326D01*
X237550Y767102D01*
Y781550D01*
X233060D01*
Y788024D01*
X263037Y818000D01*
X277052D01*
Y842000D01*
D02*
G37*
G36*
X863000Y712600D02*
X842000D01*
Y683600D01*
X863000D01*
Y712600D01*
D02*
G37*
G36*
X826500Y736000D02*
X815500D01*
Y730068D01*
X815348Y729841D01*
X814883Y727500D01*
Y708200D01*
X815348Y705859D01*
X816600Y703985D01*
Y683600D01*
X837600D01*
Y712600D01*
X827117D01*
Y727500D01*
X826652Y729841D01*
X826500Y730068D01*
Y736000D01*
D02*
G37*
G36*
X750500Y712600D02*
X729500D01*
Y683600D01*
X750500D01*
Y712600D01*
D02*
G37*
G36*
X711000Y736000D02*
X700000D01*
Y730068D01*
X699848Y729841D01*
X699382Y727500D01*
Y711200D01*
X699848Y708859D01*
X701174Y706874D01*
X704100Y703949D01*
Y683600D01*
X725100D01*
Y712600D01*
X712751D01*
X711618Y713734D01*
Y727500D01*
X711152Y729841D01*
X711000Y730068D01*
Y736000D01*
D02*
G37*
G36*
X635500Y710100D02*
X614500D01*
Y681100D01*
X635500D01*
Y710100D01*
D02*
G37*
G36*
X600500Y733500D02*
X589500D01*
Y727568D01*
X589348Y727341D01*
X588882Y725000D01*
Y704200D01*
X589100Y703106D01*
Y681100D01*
X610100D01*
Y710100D01*
X601118D01*
Y725000D01*
X600652Y727341D01*
X600500Y727568D01*
Y733500D01*
D02*
G37*
G36*
X415500Y710100D02*
X394500D01*
Y681100D01*
X415500D01*
Y710100D01*
D02*
G37*
G36*
X383500Y733500D02*
X372500D01*
Y727568D01*
X372348Y727341D01*
X371883Y725000D01*
X372348Y722659D01*
X372383Y722607D01*
Y710100D01*
X369100D01*
Y681100D01*
X390100D01*
Y710100D01*
X384618D01*
Y724500D01*
X384152Y726841D01*
X383500Y727817D01*
Y733500D01*
D02*
G37*
G36*
X200500Y710100D02*
X179500D01*
Y681100D01*
X200500D01*
Y710100D01*
D02*
G37*
G36*
X163500Y733500D02*
X152500D01*
Y727568D01*
X152348Y727341D01*
X151882Y725000D01*
Y706200D01*
X152348Y703859D01*
X153674Y701874D01*
X154100Y701449D01*
Y681100D01*
X175100D01*
Y710100D01*
X164118D01*
Y725000D01*
X163652Y727341D01*
X163500Y727568D01*
Y733500D01*
D02*
G37*
G36*
X57250Y706117D02*
X28000D01*
X25659Y705652D01*
X24683Y705000D01*
X19000D01*
Y694000D01*
X24932D01*
X25159Y693848D01*
X27500Y693382D01*
X29841Y693848D01*
X29892Y693883D01*
X54716D01*
X57250Y691348D01*
Y679000D01*
X77750D01*
Y700000D01*
X65901D01*
X61576Y704326D01*
X59591Y705652D01*
X57250Y706117D01*
D02*
G37*
G36*
X970500Y707600D02*
X949500D01*
Y678600D01*
X970500D01*
Y707600D01*
D02*
G37*
G36*
X933500Y733500D02*
X922500D01*
Y727568D01*
X922348Y727341D01*
X921882Y725000D01*
Y703700D01*
X922348Y701359D01*
X923674Y699374D01*
X924100Y698949D01*
Y678600D01*
X945100D01*
Y707600D01*
X934118D01*
Y725000D01*
X933652Y727341D01*
X933500Y727568D01*
Y733500D01*
D02*
G37*
G36*
X525500Y707600D02*
X504500D01*
Y678600D01*
X525500D01*
Y707600D01*
D02*
G37*
G36*
X493500Y733500D02*
X482500D01*
Y727568D01*
X482348Y727341D01*
X481882Y725000D01*
X482348Y722659D01*
X482382Y722607D01*
Y707600D01*
X479100D01*
Y678600D01*
X500100D01*
Y707600D01*
X494618D01*
Y724500D01*
X494152Y726841D01*
X493500Y727817D01*
Y733500D01*
D02*
G37*
G36*
X308000Y707600D02*
X287000D01*
Y678600D01*
X308000D01*
Y707600D01*
D02*
G37*
G36*
X275500Y731000D02*
X264500D01*
Y725068D01*
X264348Y724841D01*
X263883Y722500D01*
X264348Y720159D01*
X264382Y720107D01*
Y707600D01*
X261600D01*
Y678600D01*
X282600D01*
Y707600D01*
X276618D01*
Y722000D01*
X276152Y724341D01*
X275500Y725317D01*
Y731000D01*
D02*
G37*
G36*
X775900Y712600D02*
X754900D01*
Y683600D01*
X759283D01*
Y674354D01*
X759748Y672013D01*
X761074Y670028D01*
X763251Y667851D01*
X765236Y666525D01*
X767577Y666059D01*
X769918Y666525D01*
X771903Y667851D01*
X773229Y669836D01*
X773695Y672177D01*
X773229Y674518D01*
X771903Y676503D01*
X771517Y676888D01*
Y683600D01*
X775900D01*
Y712600D01*
D02*
G37*
G36*
X660900Y710100D02*
X639900D01*
Y681100D01*
X644283D01*
Y672100D01*
X644748Y669759D01*
X646074Y667774D01*
X648174Y665674D01*
X650159Y664348D01*
X652500Y663883D01*
X654841Y664348D01*
X656826Y665674D01*
X658152Y667659D01*
X658617Y670000D01*
X658152Y672341D01*
X656826Y674326D01*
X656517Y674634D01*
Y681100D01*
X660900D01*
Y710100D01*
D02*
G37*
G36*
X440900D02*
X419900D01*
Y681100D01*
X424282D01*
Y672100D01*
X424748Y669759D01*
X426074Y667774D01*
X428174Y665674D01*
X430159Y664348D01*
X432500Y663883D01*
X434841Y664348D01*
X436826Y665674D01*
X438152Y667659D01*
X438618Y670000D01*
X438152Y672341D01*
X436826Y674326D01*
X436517Y674634D01*
Y681100D01*
X440900D01*
Y710100D01*
D02*
G37*
G36*
X550900Y707600D02*
X529900D01*
Y678600D01*
X534282D01*
Y669600D01*
X534748Y667259D01*
X536074Y665274D01*
X538174Y663174D01*
X540159Y661848D01*
X542500Y661383D01*
X544841Y661848D01*
X546826Y663174D01*
X548152Y665159D01*
X548618Y667500D01*
X548152Y669841D01*
X546826Y671826D01*
X546518Y672134D01*
Y678600D01*
X550900D01*
Y707600D01*
D02*
G37*
G36*
X130100Y668400D02*
X101100D01*
Y647400D01*
X130100D01*
Y668400D01*
D02*
G37*
G36*
X29500Y686618D02*
X27500D01*
X25159Y686152D01*
X24932Y686000D01*
X19000D01*
Y675000D01*
X24932D01*
X25159Y674848D01*
X26783Y674525D01*
Y668400D01*
X24900D01*
Y647400D01*
X53900D01*
Y668400D01*
X39018D01*
Y677100D01*
X38552Y679441D01*
X37226Y681426D01*
X36000Y682652D01*
Y686000D01*
X32068D01*
X31841Y686152D01*
X29500Y686618D01*
D02*
G37*
G36*
X127750Y700000D02*
X107250D01*
Y691117D01*
X97186D01*
X94845Y690652D01*
X92860Y689326D01*
X88174Y684639D01*
X86848Y682655D01*
X86383Y680314D01*
Y660034D01*
X64966Y638618D01*
X53900D01*
Y643000D01*
X24900D01*
Y622000D01*
X53900D01*
Y626382D01*
X67500D01*
X69841Y626848D01*
X71826Y628174D01*
X96826Y653174D01*
X98152Y655159D01*
X98617Y657500D01*
Y677780D01*
X99720Y678883D01*
X113250D01*
X113841Y679000D01*
X127750D01*
Y700000D01*
D02*
G37*
G36*
X230314Y648617D02*
X183615D01*
X181274Y648152D01*
X179289Y646826D01*
X170431Y637968D01*
X170259Y637711D01*
X166448Y633900D01*
X154100D01*
Y604900D01*
X175100D01*
Y625248D01*
X178230Y628378D01*
X179500Y627852D01*
Y604900D01*
X183883D01*
Y588265D01*
X184348Y585924D01*
X185674Y583939D01*
X223939Y545674D01*
X225924Y544348D01*
X228265Y543882D01*
X235780D01*
X236882Y542780D01*
Y539550D01*
X236600D01*
Y517950D01*
X249400D01*
Y539550D01*
X249118D01*
Y545314D01*
X249087Y545465D01*
X250258Y546091D01*
X252174Y544174D01*
X254159Y542848D01*
X256500Y542383D01*
X265107D01*
X265159Y542348D01*
X267500Y541883D01*
X297507D01*
X299848Y542348D01*
X301833Y543674D01*
X303293Y545135D01*
X304619Y547119D01*
X305085Y549461D01*
X304619Y551802D01*
X303293Y553786D01*
X301308Y555112D01*
X298967Y555578D01*
X296626Y555112D01*
X295137Y554118D01*
X269393D01*
X269341Y554152D01*
X267000Y554618D01*
X259034D01*
X244902Y568750D01*
X246826Y570674D01*
X248152Y572659D01*
X248617Y575000D01*
Y607500D01*
X251000D01*
Y618500D01*
X245068D01*
X244841Y618652D01*
X242500Y619118D01*
X240159Y618652D01*
X239932Y618500D01*
X234000D01*
Y607500D01*
X236383D01*
Y602050D01*
X202300D01*
Y586276D01*
X201127Y585790D01*
X196117Y590799D01*
Y604900D01*
X200500D01*
Y633900D01*
X185326D01*
X184840Y635073D01*
X186149Y636382D01*
X227780D01*
X230042Y634120D01*
X230674Y633174D01*
X234000Y629849D01*
Y626500D01*
X237932D01*
X238159Y626348D01*
X240500Y625882D01*
X242500D01*
X244841Y626348D01*
X245068Y626500D01*
X251000D01*
Y637500D01*
X245068D01*
X244841Y637652D01*
X243167Y637985D01*
X239958Y641194D01*
X239326Y642140D01*
X234639Y646826D01*
X232655Y648152D01*
X230314Y648617D01*
D02*
G37*
G36*
X130100Y643000D02*
X101100D01*
Y630652D01*
X97289Y626841D01*
X97032Y626669D01*
X92774Y622411D01*
X91448Y620426D01*
X91367Y620019D01*
X85674Y614326D01*
X84348Y612341D01*
X83883Y610000D01*
X84348Y607659D01*
X85674Y605674D01*
X87659Y604348D01*
X90000Y603882D01*
X92341Y604348D01*
X94326Y605674D01*
X101426Y612774D01*
X102752Y614759D01*
X102833Y615167D01*
X105512Y617846D01*
X105769Y618017D01*
X109752Y622000D01*
X121448D01*
X122774Y620674D01*
X124759Y619348D01*
X127100Y618882D01*
X140107D01*
X140159Y618848D01*
X142500Y618382D01*
X144841Y618848D01*
X145068Y619000D01*
X151000D01*
Y630000D01*
X145317D01*
X144341Y630652D01*
X142000Y631118D01*
X130100D01*
Y643000D01*
D02*
G37*
G36*
X888400Y636400D02*
X867400D01*
Y613311D01*
X866227Y612825D01*
X863000Y616051D01*
Y636400D01*
X842000D01*
Y607400D01*
X854349D01*
X858083Y603666D01*
Y599550D01*
X824800D01*
Y577950D01*
X858083D01*
Y574200D01*
X858548Y571859D01*
X859382Y570610D01*
Y537050D01*
X859100D01*
Y515450D01*
X871900D01*
Y537050D01*
X871618D01*
Y572900D01*
X871152Y575241D01*
X870318Y576490D01*
Y606200D01*
X870274Y606418D01*
X871080Y607400D01*
X888400D01*
Y636400D01*
D02*
G37*
G36*
X775900D02*
X754900D01*
Y613311D01*
X753727Y612825D01*
X750500Y616051D01*
Y636400D01*
X729500D01*
Y607400D01*
X741849D01*
X745583Y603666D01*
Y599550D01*
X712300D01*
Y577950D01*
X745583D01*
Y549200D01*
X746048Y546859D01*
X746882Y545610D01*
Y537050D01*
X746600D01*
Y515450D01*
X759400D01*
Y537050D01*
X759118D01*
Y547900D01*
X758652Y550241D01*
X757818Y551490D01*
Y606200D01*
X757774Y606418D01*
X758580Y607400D01*
X775900D01*
Y636400D01*
D02*
G37*
G36*
X415500Y633900D02*
X394500D01*
Y613551D01*
X391273Y610325D01*
X390100Y610811D01*
Y633900D01*
X369100D01*
Y613551D01*
X360674Y605126D01*
X359348Y603141D01*
X358882Y600800D01*
Y575000D01*
X356500D01*
Y564000D01*
X362432D01*
X362659Y563848D01*
X365000Y563382D01*
X367341Y563848D01*
X367568Y564000D01*
X373500D01*
Y575000D01*
X371118D01*
Y598266D01*
X377752Y604900D01*
X386420D01*
X387226Y603918D01*
X387183Y603700D01*
Y570842D01*
X387648Y568501D01*
X388974Y566516D01*
X394816Y560674D01*
X396311Y559676D01*
X396042Y558328D01*
X395159Y558152D01*
X393174Y556826D01*
X392966Y556618D01*
X342034D01*
X339326Y559326D01*
X337341Y560652D01*
X335000Y561118D01*
X332659Y560652D01*
X330674Y559326D01*
X329348Y557341D01*
X328882Y555000D01*
X329348Y552659D01*
X330674Y550674D01*
X335174Y546174D01*
X337159Y544848D01*
X339500Y544383D01*
X395500D01*
X397841Y544848D01*
X399826Y546174D01*
X401826Y548174D01*
X403152Y550159D01*
X403618Y552500D01*
X403152Y554841D01*
X401826Y556826D01*
X400648Y557612D01*
X401034Y558882D01*
X407466D01*
X431483Y534866D01*
Y526650D01*
X431600Y526059D01*
Y517519D01*
X402528D01*
X398573Y521473D01*
X398400Y521589D01*
Y537050D01*
X385600D01*
Y515450D01*
X394503D01*
X396261Y513692D01*
X395775Y512519D01*
X300028D01*
X298018Y514529D01*
X298400Y515450D01*
X298400D01*
Y537050D01*
X285600D01*
Y515450D01*
X289224D01*
Y514707D01*
X289496Y513342D01*
X290269Y512184D01*
X295115Y507339D01*
X294589Y506069D01*
X229578D01*
X211674Y523973D01*
X210516Y524747D01*
X209150Y525019D01*
X203400D01*
Y539550D01*
X190600D01*
Y517950D01*
X199555D01*
X199900Y517881D01*
X207672D01*
X218284Y507270D01*
X217757Y506000D01*
X217583Y506000D01*
X217583Y506000D01*
X217538Y506000D01*
X205500D01*
Y489000D01*
X209848D01*
X219112Y479737D01*
X218556Y478497D01*
X218500Y478500D01*
Y478500D01*
X201500D01*
Y478117D01*
X176367D01*
Y519000D01*
X185500D01*
Y547131D01*
X186591Y547348D01*
X188576Y548674D01*
X190753Y550851D01*
X201650D01*
X203991Y551317D01*
X205975Y552643D01*
X207302Y554628D01*
X207767Y556969D01*
X207302Y559310D01*
X205975Y561295D01*
X203991Y562621D01*
X201650Y563086D01*
X188219D01*
X185878Y562621D01*
X183893Y561295D01*
X181716Y559118D01*
X179500D01*
X178909Y559000D01*
X161591D01*
X161000Y559118D01*
X158784D01*
X138576Y579326D01*
X136591Y580652D01*
X134250Y581118D01*
X52000D01*
Y585400D01*
X28000D01*
Y565400D01*
X52000D01*
Y568882D01*
X131716D01*
X151924Y548674D01*
X153909Y547348D01*
X155000Y547131D01*
Y519000D01*
X164132D01*
Y495659D01*
X162862Y495274D01*
X161826Y496826D01*
X159841Y498152D01*
X157500Y498618D01*
X115034D01*
X104326Y509326D01*
X102341Y510652D01*
X100000Y511118D01*
X97659Y510652D01*
X95674Y509326D01*
X94348Y507341D01*
X93883Y505000D01*
X94348Y502659D01*
X95674Y500674D01*
X108174Y488174D01*
X110159Y486848D01*
X112500Y486382D01*
X157500D01*
X159841Y486848D01*
X161826Y488174D01*
X162862Y489726D01*
X164132Y489341D01*
Y477945D01*
X162659Y477652D01*
X160674Y476326D01*
X139348Y455000D01*
X112000D01*
Y435000D01*
X123883D01*
Y432720D01*
X122780Y431618D01*
X100000D01*
X97659Y431152D01*
X97432Y431000D01*
X91500D01*
Y420000D01*
X97432D01*
X97659Y419848D01*
X100000Y419383D01*
X125314D01*
X127655Y419848D01*
X129639Y421174D01*
X134326Y425860D01*
X135652Y427845D01*
X136117Y430186D01*
Y435000D01*
X148000D01*
Y446348D01*
X167534Y465882D01*
X201500D01*
Y465500D01*
X209909D01*
X210500Y465382D01*
X218280D01*
X218883Y464780D01*
Y456350D01*
X219348Y454009D01*
X220674Y452024D01*
X223886Y448812D01*
X224172Y447373D01*
X225499Y445389D01*
X229793Y441095D01*
X219524Y430826D01*
X218198Y428841D01*
X217733Y426500D01*
X218198Y424159D01*
X218493Y423718D01*
X217894Y422598D01*
X152500D01*
X150549Y422210D01*
X148895Y421105D01*
X139388Y411598D01*
X138929D01*
X136978Y411210D01*
X136811Y411098D01*
X114000D01*
Y416000D01*
X96000D01*
Y396000D01*
X99902D01*
Y385000D01*
Y344000D01*
X96000D01*
Y324000D01*
X114000D01*
Y344000D01*
X110098D01*
Y378652D01*
X119000D01*
Y364000D01*
X132000D01*
Y381000D01*
X130598D01*
Y386500D01*
X131000D01*
Y400902D01*
X138429D01*
X139000Y400433D01*
Y398091D01*
X138883Y397500D01*
Y397393D01*
X138848Y397341D01*
X138383Y395000D01*
X138848Y392659D01*
X139000Y392432D01*
Y386500D01*
X150000D01*
Y392183D01*
X150127Y392373D01*
X151326Y393174D01*
X154534Y396382D01*
X181466D01*
X181852Y395112D01*
X180674Y394326D01*
X140774Y354426D01*
X139448Y352441D01*
X138982Y350100D01*
Y245741D01*
X124859Y231618D01*
X112500D01*
X112500Y231618D01*
X70000D01*
X67659Y231152D01*
X67432Y231000D01*
X64000D01*
Y226091D01*
X63882Y225500D01*
X64000Y224909D01*
Y220000D01*
X67432D01*
X67659Y219848D01*
X70000Y219382D01*
X103883D01*
Y206959D01*
X102612Y206280D01*
X102373Y206440D01*
X101300Y206654D01*
X96800D01*
X95727Y206440D01*
X94817Y205833D01*
X94210Y204923D01*
X93996Y203850D01*
Y194422D01*
X93962Y194250D01*
Y181033D01*
X93261Y180332D01*
X92500Y178495D01*
Y176505D01*
X93261Y174668D01*
X94668Y173261D01*
X96505Y172500D01*
X98495D01*
X100332Y173261D01*
X101739Y174668D01*
X102500Y176505D01*
X102612Y176511D01*
X103883Y175325D01*
Y170034D01*
X95502Y161654D01*
X94176Y159669D01*
X93710Y157328D01*
Y151100D01*
X93996Y149663D01*
Y144570D01*
X93933Y144250D01*
Y131450D01*
X94398Y129109D01*
X95724Y127124D01*
X118000Y104848D01*
Y96500D01*
X131000D01*
Y113500D01*
X126651D01*
X106168Y133984D01*
Y144250D01*
X105702Y146591D01*
X104867Y147841D01*
X105480Y148759D01*
X105946Y151100D01*
Y154794D01*
X114326Y163174D01*
X115130Y164378D01*
X116400Y163993D01*
Y154160D01*
X130109D01*
X130700Y154043D01*
X140348D01*
Y144308D01*
X140554Y143271D01*
X141142Y142392D01*
X142021Y141804D01*
X143058Y141598D01*
X151142D01*
X152179Y141804D01*
X153058Y142392D01*
X153646Y143271D01*
X153852Y144308D01*
Y160692D01*
X153646Y161729D01*
X153058Y162608D01*
X152179Y163196D01*
X151142Y163402D01*
X149776D01*
X149660Y163630D01*
X150263Y164734D01*
X150440Y164900D01*
X170100D01*
Y193900D01*
X165718D01*
Y203048D01*
X165952Y204228D01*
X165487Y206569D01*
X164160Y208554D01*
X162176Y209880D01*
X159835Y210346D01*
X159652Y210309D01*
X159026Y211480D01*
X166478Y218931D01*
X660000D01*
X661366Y219203D01*
X662523Y219977D01*
X700023Y257477D01*
X700330Y257936D01*
X701600Y257550D01*
Y248600D01*
X722600D01*
Y271553D01*
X723870Y272078D01*
X727000Y268948D01*
Y248600D01*
X748000D01*
Y277600D01*
X735651D01*
X733118Y280134D01*
Y282950D01*
X767700D01*
Y304550D01*
X733118D01*
Y345450D01*
X733400D01*
Y367050D01*
X720600D01*
Y345450D01*
X720882D01*
Y277600D01*
X704306D01*
X703820Y278773D01*
X715023Y289977D01*
X715797Y291134D01*
X716069Y292500D01*
Y380000D01*
X715797Y381366D01*
X715023Y382523D01*
X695023Y402523D01*
X693866Y403297D01*
X692500Y403569D01*
X601478D01*
X578569Y426478D01*
Y433997D01*
X579239Y434668D01*
X580000Y436505D01*
Y438157D01*
X581001Y438738D01*
X581173Y438780D01*
X590887Y429066D01*
X592045Y428293D01*
X593411Y428021D01*
X625466D01*
X625942Y427703D01*
X627308Y427431D01*
X650527D01*
X651013Y426258D01*
X645823Y421069D01*
X621003D01*
X620332Y421739D01*
X618495Y422500D01*
X616505D01*
X614668Y421739D01*
X613261Y420332D01*
X612500Y418495D01*
Y416505D01*
X613190Y414839D01*
X612701Y413569D01*
X611003D01*
X610332Y414239D01*
X608495Y415000D01*
X606505D01*
X604668Y414239D01*
X603261Y412832D01*
X602500Y410995D01*
Y409005D01*
X603261Y407168D01*
X604668Y405761D01*
X606505Y405000D01*
X608495D01*
X610332Y405761D01*
X611003Y406431D01*
X646872D01*
X648238Y406703D01*
X649396Y407477D01*
X655851Y413931D01*
X688522D01*
X722500Y379953D01*
Y379005D01*
X723261Y377168D01*
X724668Y375761D01*
X726505Y375000D01*
X728495D01*
X730332Y375761D01*
X731739Y377168D01*
X732500Y379005D01*
Y380995D01*
X731739Y382832D01*
X730332Y384239D01*
X728495Y385000D01*
X727547D01*
X723720Y388827D01*
X723762Y388999D01*
X724343Y390000D01*
X725995D01*
X727832Y390761D01*
X729239Y392168D01*
X730000Y394005D01*
Y395995D01*
X729425Y397382D01*
X730502Y398101D01*
X766600Y362003D01*
Y345450D01*
X779400D01*
Y367050D01*
X771647D01*
X706035Y432661D01*
X706561Y433931D01*
X716022D01*
X764977Y384977D01*
X766134Y384203D01*
X767500Y383931D01*
X806022D01*
X815000Y374953D01*
Y374005D01*
X815761Y372168D01*
X817168Y370761D01*
X819005Y370000D01*
X820995D01*
X822832Y370761D01*
X824239Y372168D01*
X825000Y374005D01*
Y375995D01*
X824239Y377832D01*
X822832Y379239D01*
X820995Y380000D01*
X820047D01*
X810023Y390023D01*
X808866Y390797D01*
X807500Y391069D01*
X768978D01*
X721609Y438438D01*
X722042Y439801D01*
X722562Y439891D01*
X767477Y394977D01*
X768634Y394203D01*
X770000Y393931D01*
X827172D01*
X859100Y362003D01*
Y345450D01*
X871900D01*
Y367050D01*
X864147D01*
X831173Y400023D01*
X830967Y400161D01*
X831352Y401431D01*
X921022D01*
X951931Y370522D01*
Y367050D01*
X949100D01*
Y345450D01*
X961900D01*
Y367050D01*
X959069D01*
Y372000D01*
X958797Y373366D01*
X958023Y374523D01*
X925023Y407523D01*
X923866Y408297D01*
X922500Y408569D01*
X902275D01*
X901789Y409742D01*
X905379Y413332D01*
X905640Y413181D01*
X908184Y412500D01*
X910816D01*
X913360Y413181D01*
X915640Y414498D01*
X917502Y416360D01*
X918819Y418640D01*
X919500Y421184D01*
Y422057D01*
X920673Y422543D01*
X977477Y365740D01*
X977477Y365740D01*
X983931Y359285D01*
Y318000D01*
X980068D01*
X979841Y318152D01*
X978167Y318485D01*
X967326Y329326D01*
X965341Y330652D01*
X963000Y331118D01*
X960000D01*
X957659Y330652D01*
X955674Y329326D01*
X954348Y327341D01*
X953883Y325000D01*
X954348Y322659D01*
X955674Y320674D01*
X957659Y319348D01*
X960000Y318883D01*
X960466D01*
X969000Y310348D01*
Y307000D01*
X972932D01*
X973159Y306848D01*
X975500Y306383D01*
X977500D01*
X979841Y306848D01*
X980068Y307000D01*
X983931D01*
Y299000D01*
X980068D01*
X979841Y299152D01*
X977500Y299618D01*
X975159Y299152D01*
X975107Y299118D01*
X975000D01*
X974409Y299000D01*
X969000D01*
Y293591D01*
X968883Y293000D01*
Y280100D01*
X962400D01*
Y251100D01*
X983400D01*
Y280100D01*
X981117D01*
Y288000D01*
X983931D01*
Y287900D01*
X984203Y286534D01*
X984977Y285377D01*
X991198Y279155D01*
X991147Y279067D01*
X990500Y276651D01*
Y274149D01*
X991147Y271733D01*
X992398Y269567D01*
X994167Y267798D01*
X996333Y266547D01*
X998749Y265900D01*
X1001251D01*
X1003667Y266547D01*
X1005833Y267798D01*
X1007602Y269567D01*
X1008853Y271733D01*
X1009500Y274149D01*
Y276651D01*
X1008853Y279067D01*
X1007602Y281233D01*
X1005833Y283002D01*
X1003667Y284253D01*
X1001251Y284900D01*
X998749D01*
X996333Y284253D01*
X996245Y284202D01*
X991069Y289378D01*
Y294730D01*
X992339Y295070D01*
X992398Y294967D01*
X994167Y293198D01*
X996333Y291947D01*
X998749Y291300D01*
X1001251D01*
X1003667Y291947D01*
X1005833Y293198D01*
X1007602Y294967D01*
X1008853Y297133D01*
X1009500Y299549D01*
Y302051D01*
X1008853Y304467D01*
X1007602Y306633D01*
X1005833Y308402D01*
X1003667Y309653D01*
X1001251Y310300D01*
X998749D01*
X996333Y309653D01*
X994167Y308402D01*
X992398Y306633D01*
X992339Y306530D01*
X991069Y306870D01*
Y316700D01*
X1009500D01*
Y335700D01*
X991069D01*
Y360763D01*
X990797Y362129D01*
X990023Y363287D01*
X982523Y370787D01*
X982523Y370787D01*
X908287Y445023D01*
X907129Y445797D01*
X905763Y446069D01*
X783503D01*
X782832Y446739D01*
X780995Y447500D01*
X779005D01*
X777168Y446739D01*
X775761Y445332D01*
X775000Y443495D01*
Y441505D01*
X775761Y439668D01*
X777168Y438261D01*
X779005Y437500D01*
X780995D01*
X782832Y438261D01*
X783503Y438931D01*
X904285D01*
X909543Y433673D01*
X909057Y432500D01*
X908184D01*
X905640Y431819D01*
X903360Y430502D01*
X901498Y428640D01*
X900182Y426360D01*
X899500Y423816D01*
Y421184D01*
X900182Y418640D01*
X900332Y418379D01*
X896522Y414569D01*
X868370D01*
X867884Y415742D01*
X868502Y416360D01*
X869818Y418640D01*
X870500Y421184D01*
Y423816D01*
X869818Y426360D01*
X868502Y428640D01*
X866640Y430502D01*
X864360Y431819D01*
X861816Y432500D01*
X859184D01*
X856640Y431819D01*
X854360Y430502D01*
X852498Y428640D01*
X851181Y426360D01*
X850500Y423816D01*
Y421184D01*
X851181Y418640D01*
X852498Y416360D01*
X853116Y415742D01*
X852630Y414569D01*
X844555D01*
X844239Y415332D01*
X842832Y416739D01*
X840995Y417500D01*
X839005D01*
X837168Y416739D01*
X835761Y415332D01*
X835000Y413495D01*
Y411505D01*
X835690Y409839D01*
X835201Y408569D01*
X781478D01*
X737523Y452523D01*
X736366Y453297D01*
X735000Y453569D01*
X626237D01*
X624871Y453297D01*
X623713Y452523D01*
X623259Y452069D01*
X603072D01*
X602224Y453339D01*
X602500Y454005D01*
Y454953D01*
X605735Y458188D01*
X650612D01*
X651282Y457518D01*
X653120Y456757D01*
X655109D01*
X656946Y457518D01*
X658353Y458924D01*
X659114Y460762D01*
Y462751D01*
X658353Y464589D01*
X656946Y465995D01*
X655109Y466756D01*
X653120D01*
X651282Y465995D01*
X650612Y465325D01*
X604256D01*
X602891Y465053D01*
X601733Y464280D01*
X597453Y460000D01*
X596505D01*
X594668Y459239D01*
X593261Y457832D01*
X592748Y456594D01*
X591327Y456220D01*
X571556Y475991D01*
X570398Y476764D01*
X569033Y477036D01*
X555693D01*
X555389Y478069D01*
X555377Y478306D01*
X556739Y479668D01*
X557500Y481505D01*
Y483495D01*
X556739Y485332D01*
X555332Y486739D01*
X553495Y487500D01*
X552547D01*
X532523Y507523D01*
X531366Y508297D01*
X530000Y508569D01*
X500328D01*
X488400Y520497D01*
Y534933D01*
X491050D01*
X493391Y535398D01*
X495376Y536724D01*
X504326Y545674D01*
X505652Y547659D01*
X506118Y550000D01*
X505652Y552341D01*
X504326Y554326D01*
X502341Y555652D01*
X500000Y556118D01*
X497659Y555652D01*
X495674Y554326D01*
X488516Y547168D01*
X482357D01*
X481972Y548438D01*
X482326Y548674D01*
X486826Y553174D01*
X488152Y555159D01*
X488618Y557500D01*
X488152Y559841D01*
X486826Y561826D01*
X484841Y563152D01*
X482500Y563618D01*
X480159Y563152D01*
X478174Y561826D01*
X475466Y559118D01*
X439534D01*
X439326Y559326D01*
X437341Y560652D01*
X435000Y561118D01*
X432659Y560652D01*
X430674Y559326D01*
X429348Y557341D01*
X429142Y556305D01*
X427764Y555887D01*
X414326Y569326D01*
X412341Y570652D01*
X410000Y571118D01*
X401676D01*
X399417Y573376D01*
Y577950D01*
X432700D01*
Y599550D01*
X399417D01*
Y601166D01*
X403152Y604900D01*
X415500D01*
Y633900D01*
D02*
G37*
G36*
X660900D02*
X639900D01*
Y610811D01*
X638727Y610325D01*
X635500Y613551D01*
Y633900D01*
X614500D01*
Y604900D01*
X626848D01*
X630583Y601166D01*
Y599550D01*
X597300D01*
Y577950D01*
X630583D01*
Y554200D01*
X631048Y551859D01*
X631883Y550610D01*
Y537050D01*
X631600D01*
Y515450D01*
X644400D01*
Y537050D01*
X644118D01*
Y552900D01*
X644027Y553353D01*
X645224Y553848D01*
X645674Y553174D01*
X647659Y551848D01*
X650000Y551382D01*
X684500D01*
X685000Y551482D01*
X685500Y551382D01*
X732500D01*
X734841Y551848D01*
X736826Y553174D01*
X738152Y555159D01*
X738617Y557500D01*
X738152Y559841D01*
X736826Y561826D01*
X734841Y563152D01*
X732500Y563618D01*
X687393D01*
X687341Y563652D01*
X685000Y564118D01*
X682659Y563652D01*
X682607Y563618D01*
X650000D01*
X647659Y563152D01*
X645674Y561826D01*
X644348Y559841D01*
X644088Y558531D01*
X642818Y558656D01*
Y603700D01*
X642774Y603918D01*
X643580Y604900D01*
X660900D01*
Y633900D01*
D02*
G37*
G36*
X995900Y631400D02*
X974900D01*
Y608311D01*
X973727Y607825D01*
X970500Y611051D01*
Y631400D01*
X949500D01*
Y602400D01*
X961849D01*
X965583Y598666D01*
Y597050D01*
X932300D01*
Y575450D01*
X964022D01*
X964828Y574468D01*
X964764Y574146D01*
Y567519D01*
X965229Y565178D01*
X966556Y563193D01*
X966882Y562866D01*
Y534550D01*
X966600D01*
Y512950D01*
X979400D01*
Y534550D01*
X979118D01*
Y565400D01*
X978652Y567741D01*
X977326Y569726D01*
X976999Y570053D01*
Y572095D01*
X977352Y572624D01*
X977818Y574965D01*
Y601200D01*
X977774Y601418D01*
X978580Y602400D01*
X995900D01*
Y631400D01*
D02*
G37*
G36*
X550900D02*
X529900D01*
Y608311D01*
X528727Y607825D01*
X525500Y611051D01*
Y631400D01*
X504500D01*
Y602400D01*
X516848D01*
X518525Y600723D01*
X518039Y599550D01*
X487300D01*
Y577950D01*
X520583D01*
Y556700D01*
X521048Y554359D01*
X521883Y553110D01*
Y537050D01*
X521600D01*
Y515450D01*
X534400D01*
Y537050D01*
X534118D01*
Y555400D01*
X533652Y557741D01*
X532818Y558990D01*
Y601200D01*
X532774Y601418D01*
X533580Y602400D01*
X550900D01*
Y631400D01*
D02*
G37*
G36*
X440900Y633900D02*
X419900D01*
Y604900D01*
X440900D01*
Y633900D01*
D02*
G37*
G36*
X225900D02*
X204900D01*
Y604900D01*
X225900D01*
Y633900D01*
D02*
G37*
G36*
X333400Y631400D02*
X312400D01*
Y602400D01*
X333400D01*
Y631400D01*
D02*
G37*
G36*
X53900Y617600D02*
X24900D01*
Y596600D01*
X53900D01*
Y617600D01*
D02*
G37*
G36*
X725100Y636400D02*
X704100D01*
Y619120D01*
X703759Y619052D01*
X701774Y617726D01*
X680674Y596626D01*
X679348Y594641D01*
X678883Y592300D01*
Y582500D01*
X676500D01*
Y571500D01*
X682432D01*
X682659Y571348D01*
X685000Y570882D01*
X687341Y571348D01*
X687568Y571500D01*
X693500D01*
Y582500D01*
X691117D01*
Y589766D01*
X708634Y607282D01*
X710100D01*
X710691Y607400D01*
X725100D01*
Y636400D01*
D02*
G37*
G36*
X837600D02*
X816600D01*
Y619120D01*
X816259Y619052D01*
X814274Y617726D01*
X788174Y591626D01*
X786848Y589641D01*
X786383Y587300D01*
Y580000D01*
X784000D01*
Y569000D01*
X789932D01*
X790159Y568848D01*
X792500Y568382D01*
X794841Y568848D01*
X795068Y569000D01*
X801000D01*
Y580000D01*
X798617D01*
Y584766D01*
X821134Y607282D01*
X822600D01*
X823191Y607400D01*
X837600D01*
Y636400D01*
D02*
G37*
G36*
X945100Y631400D02*
X924100D01*
Y611051D01*
X900674Y587626D01*
X899348Y585641D01*
X898883Y583300D01*
Y580000D01*
X894000D01*
Y569000D01*
X899932D01*
X900159Y568848D01*
X902500Y568382D01*
X904500D01*
X906841Y568848D01*
X907068Y569000D01*
X911000D01*
Y574409D01*
X911117Y575000D01*
Y580766D01*
X932751Y602400D01*
X945100D01*
Y631400D01*
D02*
G37*
G36*
X610100Y633900D02*
X589100D01*
Y615911D01*
X588074Y615226D01*
X565674Y592826D01*
X564348Y590841D01*
X563882Y588500D01*
Y577500D01*
X561500D01*
Y566500D01*
X567432D01*
X567659Y566348D01*
X570000Y565882D01*
X572341Y566348D01*
X572568Y566500D01*
X578500D01*
Y577500D01*
X576118D01*
Y585966D01*
X594934Y604782D01*
X595100D01*
X595691Y604900D01*
X610100D01*
Y633900D01*
D02*
G37*
G36*
X500100Y631400D02*
X479100D01*
Y614120D01*
X478759Y614052D01*
X476774Y612726D01*
X455674Y591626D01*
X454348Y589641D01*
X453882Y587300D01*
Y577500D01*
X451500D01*
Y566500D01*
X457432D01*
X457659Y566348D01*
X460000Y565882D01*
X462341Y566348D01*
X462568Y566500D01*
X468500D01*
Y577500D01*
X466118D01*
Y584766D01*
X483634Y602282D01*
X485100D01*
X485691Y602400D01*
X500100D01*
Y631400D01*
D02*
G37*
G36*
X151000Y611000D02*
X134000D01*
Y600000D01*
X138931D01*
Y592924D01*
X139203Y591558D01*
X139977Y590400D01*
X160395Y569982D01*
Y569034D01*
X161156Y567197D01*
X162563Y565790D01*
X164400Y565029D01*
X166390D01*
X168227Y565790D01*
X169634Y567197D01*
X170395Y569034D01*
Y571023D01*
X169634Y572861D01*
X168227Y574268D01*
X166390Y575029D01*
X165442D01*
X146069Y594402D01*
Y600000D01*
X151000D01*
Y611000D01*
D02*
G37*
G36*
X282600Y631400D02*
X261600D01*
Y609394D01*
X261383Y608300D01*
Y572500D01*
X259000D01*
Y561500D01*
X264932D01*
X265159Y561348D01*
X267500Y560882D01*
X269841Y561348D01*
X270068Y561500D01*
X276000D01*
Y572500D01*
X273617D01*
Y602400D01*
X282600D01*
Y631400D01*
D02*
G37*
G36*
X880000Y563618D02*
X877659Y563152D01*
X875674Y561826D01*
X874348Y559841D01*
X873883Y557500D01*
X874348Y555159D01*
X875674Y553174D01*
X877674Y551174D01*
X879659Y549848D01*
X882000Y549382D01*
X902500D01*
X904841Y549848D01*
X905068Y550000D01*
X911000D01*
Y561000D01*
X905068D01*
X904841Y561152D01*
X902500Y561618D01*
X884534D01*
X884326Y561826D01*
X882341Y563152D01*
X880000Y563618D01*
D02*
G37*
G36*
X845000D02*
X842659Y563152D01*
X840674Y561826D01*
X840466Y561618D01*
X768000D01*
X765659Y561152D01*
X763674Y559826D01*
X763174Y559326D01*
X761848Y557341D01*
X761382Y555000D01*
X761848Y552659D01*
X763174Y550674D01*
X765159Y549348D01*
X767500Y548882D01*
X769841Y549348D01*
X769892Y549382D01*
X843000D01*
X845341Y549848D01*
X847326Y551174D01*
X849326Y553174D01*
X850652Y555159D01*
X851118Y557500D01*
X850652Y559841D01*
X849326Y561826D01*
X847341Y563152D01*
X845000Y563618D01*
D02*
G37*
G36*
X544424Y571101D02*
X542083Y570636D01*
X540099Y569310D01*
X538773Y567325D01*
X538307Y564984D01*
X538773Y562643D01*
X540099Y560658D01*
X552083Y548674D01*
X554067Y547348D01*
X556408Y546882D01*
X608000D01*
X610341Y547348D01*
X612326Y548674D01*
X616826Y553174D01*
X618152Y555159D01*
X618618Y557500D01*
Y558000D01*
X618152Y560341D01*
X616826Y562326D01*
X614841Y563652D01*
X612500Y564118D01*
X610159Y563652D01*
X608174Y562326D01*
X607167Y560819D01*
X605466Y559118D01*
X558942D01*
X548750Y569310D01*
X546766Y570636D01*
X544424Y571101D01*
D02*
G37*
G36*
X105000Y559000D02*
X74500D01*
Y531118D01*
X62500D01*
X61909Y531000D01*
X51500D01*
Y530098D01*
X44965D01*
X43014Y529710D01*
X41360Y528605D01*
X37845Y525090D01*
X36740Y523436D01*
X36352Y521485D01*
Y474565D01*
X36740Y472614D01*
X37845Y470960D01*
X42410Y466395D01*
X44064Y465290D01*
X44371Y465229D01*
X44955Y463818D01*
X44653Y463366D01*
X44381Y462000D01*
Y459000D01*
X44653Y457634D01*
X44902Y457262D01*
Y451060D01*
X39858D01*
X38031Y450820D01*
X36328Y450115D01*
X34865Y448992D01*
X27508Y441635D01*
X26386Y440172D01*
X25680Y438470D01*
X25440Y436642D01*
Y417500D01*
X25680Y415673D01*
X26386Y413970D01*
X27508Y412508D01*
X47508Y392508D01*
X48970Y391385D01*
X50673Y390680D01*
X52500Y390440D01*
X54327Y390680D01*
X56030Y391385D01*
X57492Y392508D01*
X58615Y393970D01*
X59320Y395673D01*
X59560Y397500D01*
X59320Y399327D01*
X58615Y401030D01*
X57492Y402492D01*
X39560Y420424D01*
Y433718D01*
X42782Y436940D01*
X49500D01*
X51327Y437180D01*
X53030Y437886D01*
X53179Y438000D01*
X58500D01*
Y451000D01*
X55098D01*
Y455402D01*
X58342D01*
X60293Y455790D01*
X61947Y456895D01*
X68219Y463167D01*
X69389Y462541D01*
X69281Y462000D01*
Y459000D01*
X69553Y457634D01*
X70327Y456477D01*
X71484Y455703D01*
X72352Y455531D01*
Y450000D01*
X66500D01*
Y439000D01*
X83500D01*
Y439402D01*
X91500D01*
Y439000D01*
X108500D01*
Y450000D01*
X91500D01*
Y449598D01*
X83500D01*
Y450000D01*
X82548D01*
Y455531D01*
X83416Y455703D01*
X84573Y456477D01*
X85347Y457634D01*
X85618Y459000D01*
Y462000D01*
X85347Y463366D01*
X84573Y464523D01*
X84436Y464615D01*
Y465885D01*
X84573Y465977D01*
X85347Y467134D01*
X85618Y468500D01*
Y471500D01*
X85347Y472866D01*
X84573Y474023D01*
X84436Y474115D01*
Y475385D01*
X84573Y475477D01*
X85347Y476634D01*
X85618Y478000D01*
Y481000D01*
X85347Y482366D01*
X85098Y482738D01*
Y501485D01*
X84710Y503436D01*
X83605Y505090D01*
X80090Y508605D01*
X78436Y509710D01*
X76485Y510098D01*
X68500D01*
Y512000D01*
X65013D01*
X63951Y512710D01*
X62000Y513098D01*
X60000D01*
X58049Y512710D01*
X56987Y512000D01*
X51500D01*
Y499000D01*
X68500D01*
Y499902D01*
X74374D01*
X74902Y499374D01*
Y484569D01*
X72850D01*
X71484Y484297D01*
X70327Y483523D01*
X69553Y482366D01*
X69281Y481000D01*
Y478000D01*
X69553Y476634D01*
X69731Y476368D01*
X69052Y475098D01*
X67842D01*
X65891Y474710D01*
X64238Y473605D01*
X61861Y471228D01*
X60655Y471819D01*
X60447Y472866D01*
X59673Y474023D01*
X58516Y474797D01*
X57150Y475069D01*
X52698D01*
X52550Y475098D01*
X48126D01*
X46548Y476676D01*
Y519374D01*
X47076Y519902D01*
X51500D01*
Y518000D01*
X68500D01*
Y518882D01*
X76500D01*
X76500Y518882D01*
X80500D01*
X81091Y519000D01*
X105000D01*
Y559000D01*
D02*
G37*
G36*
X713400Y537050D02*
X700600D01*
Y520647D01*
X678522Y498569D01*
X567500D01*
X567420Y498553D01*
X566860Y499470D01*
X566759Y499716D01*
X567500Y501505D01*
Y502453D01*
X581478Y516431D01*
X585600D01*
Y515450D01*
X598400D01*
Y537050D01*
X585600D01*
Y523569D01*
X580000D01*
X578634Y523297D01*
X577477Y522523D01*
X562453Y507500D01*
X561505D01*
X559668Y506739D01*
X558261Y505332D01*
X557500Y503495D01*
Y501505D01*
X558261Y499668D01*
X559668Y498261D01*
X561505Y497500D01*
X563157D01*
X563738Y496499D01*
X563780Y496327D01*
X562453Y495000D01*
X561505D01*
X559668Y494239D01*
X558261Y492832D01*
X557500Y490995D01*
Y489005D01*
X558261Y487168D01*
X559668Y485761D01*
X561505Y485000D01*
X563495D01*
X565332Y485761D01*
X566739Y487168D01*
X567500Y489005D01*
Y489953D01*
X568978Y491431D01*
X680000D01*
X681366Y491703D01*
X682523Y492477D01*
X705497Y515450D01*
X713400D01*
Y537050D01*
D02*
G37*
G36*
X308000Y631400D02*
X287000D01*
Y602400D01*
X287183D01*
Y574200D01*
X287648Y571859D01*
X288974Y569874D01*
X310674Y548174D01*
X312659Y546848D01*
X313272Y546726D01*
X331600Y528399D01*
Y515450D01*
X344400D01*
Y537050D01*
X340252D01*
X320476Y556826D01*
X318491Y558152D01*
X317878Y558274D01*
X299471Y576680D01*
X299548Y577950D01*
X332700D01*
Y599550D01*
X299417D01*
Y602400D01*
X308000D01*
Y631400D01*
D02*
G37*
G36*
X825900Y537050D02*
X813100D01*
Y529819D01*
X796250D01*
X794884Y529547D01*
X793727Y528773D01*
X751022Y486069D01*
X590812D01*
X589446Y485797D01*
X588288Y485023D01*
X583265Y480000D01*
X581505D01*
X579668Y479239D01*
X578261Y477832D01*
X577500Y475995D01*
Y474005D01*
X578261Y472168D01*
X579668Y470761D01*
X581505Y470000D01*
X583495D01*
X585332Y470761D01*
X586739Y472168D01*
X587500Y474005D01*
Y474142D01*
X589131Y475773D01*
X590208Y475053D01*
X590000Y474552D01*
Y472562D01*
X590761Y470725D01*
X592168Y469318D01*
X594005Y468557D01*
X595995D01*
X597832Y469318D01*
X598503Y469989D01*
X763557D01*
X764923Y470260D01*
X766080Y471034D01*
X800178Y505131D01*
X852062D01*
X852548Y503958D01*
X844977Y496387D01*
X844203Y495229D01*
X843931Y493863D01*
Y486003D01*
X843261Y485332D01*
X842500Y483495D01*
Y481505D01*
X843261Y479668D01*
X844668Y478261D01*
X846505Y477500D01*
X848495D01*
X850332Y478261D01*
X851739Y479668D01*
X852500Y481505D01*
Y482198D01*
X853770Y482629D01*
X854968Y481068D01*
X857057Y479465D01*
X859490Y478457D01*
X862100Y478114D01*
X864710Y478457D01*
X867143Y479465D01*
X869232Y481068D01*
X870835Y483157D01*
X871843Y485589D01*
X872186Y488200D01*
Y492200D01*
X871843Y494810D01*
X870835Y497243D01*
X869593Y498861D01*
X870194Y500131D01*
X874522D01*
X878368Y496285D01*
X877757Y494810D01*
X877414Y492200D01*
Y488200D01*
X877757Y485589D01*
X878765Y483157D01*
X880368Y481068D01*
X882457Y479465D01*
X884890Y478457D01*
X886478Y478248D01*
X887297Y478140D01*
Y476860D01*
X886478Y476752D01*
X884890Y476543D01*
X882457Y475535D01*
X880368Y473932D01*
X878765Y471843D01*
X877757Y469411D01*
X877414Y466800D01*
Y462800D01*
X877453Y462500D01*
X873273Y458320D01*
X872100Y458806D01*
Y476800D01*
X852100D01*
Y454869D01*
X849431D01*
X849239Y455332D01*
X847832Y456739D01*
X845995Y457500D01*
X844005D01*
X842168Y456739D01*
X840761Y455332D01*
X840000Y453495D01*
Y451505D01*
X840761Y449668D01*
X842168Y448261D01*
X844005Y447500D01*
X845995D01*
X846553Y447731D01*
X871550D01*
X872915Y448003D01*
X874073Y448777D01*
X876123Y450827D01*
X876626Y451580D01*
X880564Y455517D01*
X882457Y454065D01*
X884890Y453057D01*
X887500Y452714D01*
X890110Y453057D01*
X892543Y454065D01*
X894632Y455668D01*
X896235Y457757D01*
X897243Y460190D01*
X897586Y462800D01*
Y466800D01*
X897243Y469411D01*
X896235Y471843D01*
X894632Y473932D01*
X892543Y475535D01*
X890110Y476543D01*
X888522Y476752D01*
X887703Y476860D01*
Y478140D01*
X888522Y478248D01*
X890110Y478457D01*
X892543Y479465D01*
X894632Y481068D01*
X896235Y483157D01*
X897243Y485589D01*
X897586Y488200D01*
Y492200D01*
X897243Y494810D01*
X896235Y497243D01*
X894632Y499332D01*
X892543Y500935D01*
X890110Y501943D01*
X887500Y502286D01*
X884890Y501943D01*
X883415Y501332D01*
X880789Y503958D01*
X881275Y505131D01*
X888700D01*
X890066Y505403D01*
X891223Y506177D01*
X897928Y512881D01*
X924100D01*
X924445Y512950D01*
X933400D01*
Y534550D01*
X920600D01*
Y520019D01*
X896450D01*
X895084Y519747D01*
X893927Y518973D01*
X887222Y512269D01*
X798700D01*
X797334Y511997D01*
X796177Y511223D01*
X762079Y477126D01*
X599014D01*
X598536Y477661D01*
X599105Y478931D01*
X752500D01*
X753866Y479203D01*
X755023Y479977D01*
X797728Y522681D01*
X813100D01*
Y515450D01*
X825900D01*
Y537050D01*
D02*
G37*
G36*
X915000Y326118D02*
X912659Y325652D01*
X910674Y324326D01*
X906966Y320617D01*
X862097D01*
X861600Y320950D01*
X859259Y321415D01*
X856918Y320950D01*
X854933Y319624D01*
X853607Y317639D01*
X853141Y315298D01*
X853607Y312957D01*
X854933Y310972D01*
X855731Y310174D01*
X857716Y308848D01*
X860057Y308382D01*
X909500D01*
X911841Y308848D01*
X913826Y310174D01*
X919326Y315674D01*
X920652Y317659D01*
X921117Y320000D01*
X920652Y322341D01*
X919326Y324326D01*
X917341Y325652D01*
X915000Y326118D01*
D02*
G37*
G36*
X797500Y333618D02*
X795159Y333152D01*
X793174Y331826D01*
X791848Y329841D01*
X791383Y327500D01*
Y318118D01*
X775534D01*
X771826Y321826D01*
X769841Y323152D01*
X767500Y323618D01*
X765159Y323152D01*
X763174Y321826D01*
X761848Y319841D01*
X761382Y317500D01*
X761848Y315159D01*
X763174Y313174D01*
X768674Y307674D01*
X770659Y306348D01*
X773000Y305882D01*
X795000D01*
X797341Y306348D01*
X797568Y306500D01*
X803500D01*
Y313909D01*
X803617Y314500D01*
Y327500D01*
X803152Y329841D01*
X801826Y331826D01*
X799841Y333152D01*
X797500Y333618D01*
D02*
G37*
G36*
X825900Y367050D02*
X813100D01*
Y345450D01*
X813382D01*
Y301549D01*
X804673Y292840D01*
X803500Y293326D01*
Y298500D01*
X797568D01*
X797341Y298652D01*
X795000Y299118D01*
X792659Y298652D01*
X792608Y298617D01*
X788300D01*
X787709Y298500D01*
X786500D01*
Y298260D01*
X785959Y298152D01*
X783974Y296826D01*
X764749Y277600D01*
X752400D01*
Y248600D01*
X773400D01*
Y268948D01*
X790834Y286383D01*
X794500D01*
X796841Y286848D01*
X796976Y286938D01*
X797786Y285952D01*
X795774Y283940D01*
X794448Y281956D01*
X793982Y279615D01*
Y248115D01*
X794448Y245774D01*
X795774Y243789D01*
X799289Y240274D01*
X801274Y238948D01*
X803615Y238482D01*
X825585D01*
X827926Y238948D01*
X829911Y240274D01*
X834169Y244532D01*
X834341Y244789D01*
X838151Y248600D01*
X850500D01*
Y277600D01*
X829500D01*
Y257251D01*
X826370Y254121D01*
X825100Y254648D01*
Y277600D01*
X808396D01*
X807910Y278773D01*
X823530Y294393D01*
X824800Y293975D01*
Y282950D01*
X860200D01*
Y304550D01*
X825618D01*
Y345450D01*
X825900D01*
Y367050D01*
D02*
G37*
G36*
X42000Y285486D02*
X38000D01*
X35389Y285143D01*
X32957Y284135D01*
X30868Y282532D01*
X30136Y281578D01*
X19843D01*
X18282Y281268D01*
X16959Y280384D01*
X16959Y280384D01*
X14616Y278041D01*
X13732Y276718D01*
X13422Y275157D01*
X13422Y275157D01*
Y157500D01*
X13422Y157500D01*
X13732Y155939D01*
X14616Y154616D01*
X29000Y140232D01*
Y135000D01*
X46000D01*
Y144014D01*
X58008Y156022D01*
X67798D01*
X68676Y154752D01*
X68596Y154350D01*
Y136150D01*
X68810Y135077D01*
X69417Y134167D01*
X69572Y134064D01*
Y126714D01*
X67616Y124759D01*
X66732Y123436D01*
X66422Y121875D01*
X66422Y121875D01*
Y113500D01*
X65000D01*
Y96500D01*
X66922D01*
Y90186D01*
X66922Y90186D01*
X67232Y88626D01*
X68116Y87303D01*
X85802Y69616D01*
X85802Y69616D01*
X87126Y68732D01*
X88686Y68422D01*
X140811D01*
X153000Y56232D01*
Y38000D01*
X177000D01*
Y62000D01*
X158768D01*
X145384Y75384D01*
X144061Y76268D01*
X142500Y76578D01*
X142500Y76578D01*
X90782D01*
X90232Y77192D01*
X90799Y78422D01*
X165863D01*
X189156Y55128D01*
X188870Y54632D01*
X188052Y51580D01*
Y48420D01*
X188870Y45368D01*
X190450Y42632D01*
X192684Y40398D01*
X195420Y38818D01*
X198472Y38000D01*
X201632D01*
X204684Y38818D01*
X207420Y40398D01*
X209654Y42632D01*
X211234Y45368D01*
X212052Y48420D01*
Y51580D01*
X211234Y54632D01*
X209654Y57368D01*
X207420Y59602D01*
X204684Y61182D01*
X201632Y62000D01*
X198472D01*
X195420Y61182D01*
X194924Y60896D01*
X170436Y85384D01*
X169113Y86268D01*
X167552Y86578D01*
X167552Y86578D01*
X91689D01*
X85078Y93189D01*
Y119311D01*
X89234Y123466D01*
X89234Y123466D01*
X90118Y124789D01*
X90428Y126350D01*
X90428Y126350D01*
Y134064D01*
X90583Y134167D01*
X91190Y135077D01*
X91404Y136150D01*
Y154350D01*
X91190Y155423D01*
X90583Y156333D01*
X90428Y156436D01*
Y159964D01*
X90428Y159964D01*
X90118Y161524D01*
X89234Y162847D01*
X89234Y162848D01*
X81097Y170984D01*
X80729Y171230D01*
X80928Y172181D01*
X81068Y172531D01*
X82832Y173261D01*
X84239Y174668D01*
X85000Y176505D01*
Y178495D01*
X84588Y179489D01*
Y182846D01*
X88600D01*
X89673Y183060D01*
X90583Y183667D01*
X91190Y184577D01*
X91404Y185650D01*
Y203850D01*
X91190Y204923D01*
X90583Y205833D01*
X89673Y206440D01*
X88600Y206654D01*
X84100D01*
X83027Y206440D01*
X82117Y205833D01*
X81510Y204923D01*
X81296Y203850D01*
Y199338D01*
X78704D01*
Y203850D01*
X78490Y204923D01*
X77883Y205833D01*
X76973Y206440D01*
X75900Y206654D01*
X71400D01*
X70327Y206440D01*
X69417Y205833D01*
X68810Y204923D01*
X68596Y203850D01*
Y185650D01*
X68810Y184577D01*
X69417Y183667D01*
X70327Y183060D01*
X71400Y182846D01*
X75412D01*
Y179489D01*
X75000Y178495D01*
Y176505D01*
X75761Y174668D01*
X76981Y173448D01*
X76796Y172563D01*
X76591Y172178D01*
X72309D01*
X71814Y173448D01*
X72500Y175105D01*
Y177094D01*
X71739Y178932D01*
X70332Y180339D01*
X68495Y181100D01*
X66505D01*
X65538Y182072D01*
Y184199D01*
X65790Y184577D01*
X66004Y185650D01*
Y203850D01*
X65790Y204923D01*
X65183Y205833D01*
X64273Y206440D01*
X63200Y206654D01*
X58700D01*
X57627Y206440D01*
X56717Y205833D01*
X56110Y204923D01*
X55896Y203850D01*
Y185650D01*
X56110Y184577D01*
X56362Y184199D01*
Y179491D01*
X56711Y177735D01*
X57706Y176246D01*
X60504Y173448D01*
X59978Y172178D01*
X49100D01*
X47539Y171868D01*
X47270Y171688D01*
X46000Y172367D01*
Y181000D01*
X34768D01*
X29078Y186689D01*
Y240000D01*
X52000D01*
Y260000D01*
X28000D01*
Y248250D01*
X27343D01*
X25782Y247939D01*
X24459Y247055D01*
X24459Y247055D01*
X22848Y245444D01*
X21578Y245970D01*
Y273422D01*
X28174D01*
X28257Y272789D01*
X29265Y270357D01*
X30868Y268268D01*
X32957Y266665D01*
X35389Y265657D01*
X38000Y265314D01*
X42000D01*
X44611Y265657D01*
X47043Y266665D01*
X49132Y268268D01*
X50735Y270357D01*
X51743Y272789D01*
X52086Y275400D01*
X51743Y278011D01*
X50735Y280443D01*
X49132Y282532D01*
X47043Y284135D01*
X44611Y285143D01*
X42000Y285486D01*
D02*
G37*
G36*
X915900Y367050D02*
X903100D01*
Y345450D01*
X909309D01*
X909900Y345332D01*
X911766D01*
X948083Y309016D01*
Y304550D01*
X914800D01*
Y282950D01*
X945816D01*
X946622Y281968D01*
X946383Y280765D01*
Y280100D01*
X937000D01*
Y251100D01*
X958000D01*
Y261452D01*
X958152Y261679D01*
X958617Y264020D01*
Y278276D01*
X959852Y280124D01*
X960318Y282465D01*
Y311550D01*
X959852Y313891D01*
X958526Y315876D01*
X918626Y355776D01*
X916641Y357102D01*
X915900Y357249D01*
Y367050D01*
D02*
G37*
G36*
X932600Y280100D02*
X911600D01*
Y251100D01*
X932600D01*
Y280100D01*
D02*
G37*
G36*
X887500Y301618D02*
X885500D01*
X883159Y301152D01*
X882932Y301000D01*
X879000D01*
Y295591D01*
X878883Y295000D01*
Y289234D01*
X867249Y277600D01*
X854900D01*
Y248600D01*
X875900D01*
Y268948D01*
X889326Y282374D01*
X890652Y284359D01*
X891117Y286700D01*
Y290000D01*
X896000D01*
Y301000D01*
X890068D01*
X889841Y301152D01*
X887500Y301618D01*
D02*
G37*
G36*
X113495Y260000D02*
X111505D01*
X109668Y259239D01*
X108261Y257832D01*
X107500Y255994D01*
Y254005D01*
X108261Y252168D01*
X108912Y251517D01*
Y245500D01*
X109000Y245057D01*
Y239000D01*
X126000D01*
Y250000D01*
X118088D01*
Y253729D01*
X117739Y255485D01*
X117500Y255843D01*
Y255994D01*
X116739Y257832D01*
X115332Y259239D01*
X113495Y260000D01*
D02*
G37*
G36*
X95268Y263537D02*
X93279D01*
X91441Y262775D01*
X90035Y261369D01*
X89274Y259531D01*
Y257542D01*
X89877Y256086D01*
Y250000D01*
X86500D01*
Y239000D01*
X103500D01*
Y250000D01*
X99053D01*
Y257010D01*
X99274Y257542D01*
Y259531D01*
X98512Y261369D01*
X97106Y262775D01*
X95268Y263537D01*
D02*
G37*
G36*
X73495Y262500D02*
X71505D01*
X69668Y261739D01*
X68261Y260332D01*
X67500Y258495D01*
Y256505D01*
X67912Y255511D01*
Y250000D01*
X64000D01*
Y239000D01*
X81000D01*
Y250000D01*
X77088D01*
Y255511D01*
X77500Y256505D01*
Y258495D01*
X76739Y260332D01*
X75332Y261739D01*
X73495Y262500D01*
D02*
G37*
G36*
X958000Y203900D02*
X937000D01*
Y174900D01*
X958000D01*
Y203900D01*
D02*
G37*
G36*
X490000Y216118D02*
X487659Y215652D01*
X485674Y214326D01*
X485274Y213926D01*
X483948Y211941D01*
X483483Y209600D01*
Y198900D01*
X479100D01*
Y174961D01*
X477927Y174475D01*
X472916Y179486D01*
X471100Y180699D01*
Y187560D01*
X448900D01*
Y169160D01*
X462609D01*
X463200Y169042D01*
X466056D01*
X477848Y157250D01*
Y146808D01*
X478014Y145974D01*
X477512Y145499D01*
X476967Y145225D01*
X471100Y151091D01*
Y160840D01*
X448900D01*
Y142440D01*
X462449D01*
X488332Y116556D01*
Y114550D01*
X488450Y113959D01*
Y97450D01*
X498216D01*
X498436Y96920D01*
X499557Y95458D01*
X543000Y52015D01*
Y38000D01*
X567000D01*
Y62000D01*
X552985D01*
X511610Y103375D01*
Y104450D01*
X511550Y104909D01*
Y120550D01*
X500277D01*
X500102Y121431D01*
X498776Y123416D01*
X478975Y143216D01*
X479249Y143762D01*
X479724Y144264D01*
X480558Y144098D01*
X488642D01*
X489679Y144304D01*
X490558Y144892D01*
X491146Y145771D01*
X491352Y146808D01*
Y163192D01*
X491146Y164229D01*
X490558Y165108D01*
X489679Y165696D01*
X488642Y165902D01*
X486499D01*
X483675Y168727D01*
X484161Y169900D01*
X500100D01*
Y198900D01*
X495718D01*
Y207989D01*
X496118Y210000D01*
X495652Y212341D01*
X494326Y214326D01*
X492341Y215652D01*
X490000Y216118D01*
D02*
G37*
G36*
X599600Y216117D02*
X597259Y215652D01*
X595274Y214326D01*
X593948Y212341D01*
X593483Y210000D01*
Y199500D01*
X589100D01*
Y173971D01*
X587927Y173485D01*
X586100Y175312D01*
Y185060D01*
X563900D01*
Y166660D01*
X577449D01*
X584595Y159513D01*
X584109Y158340D01*
X563900D01*
Y139940D01*
X577449D01*
X598332Y119056D01*
Y114550D01*
X598450Y113959D01*
Y97450D01*
X602940D01*
Y90000D01*
X603180Y88173D01*
X603885Y86470D01*
X605008Y85008D01*
X638000Y52015D01*
Y38000D01*
X662000D01*
Y62000D01*
X647985D01*
X617060Y92924D01*
Y97450D01*
X621550D01*
Y120550D01*
X610568D01*
Y121590D01*
X610102Y123931D01*
X608776Y125916D01*
X588975Y145716D01*
X589249Y146262D01*
X589724Y146764D01*
X590558Y146598D01*
X598642D01*
X599679Y146804D01*
X600558Y147392D01*
X601146Y148271D01*
X601352Y149308D01*
Y165692D01*
X601146Y166729D01*
X600558Y167608D01*
X599679Y168196D01*
X598642Y168402D01*
X594229D01*
X593900Y168468D01*
X592944D01*
X592085Y169327D01*
X592571Y170500D01*
X610100D01*
Y199500D01*
X605718D01*
Y210000D01*
X605252Y212341D01*
X603926Y214326D01*
X601941Y215652D01*
X599600Y216117D01*
D02*
G37*
G36*
X850500Y201400D02*
X829500D01*
Y172400D01*
X850500D01*
Y201400D01*
D02*
G37*
G36*
X748000D02*
X727000D01*
Y172400D01*
X748000D01*
Y201400D01*
D02*
G37*
G36*
X715000Y218617D02*
X712659Y218152D01*
X710674Y216826D01*
X709348Y214841D01*
X708883Y212500D01*
Y201400D01*
X701600D01*
Y173654D01*
X701600Y172598D01*
X700562Y171839D01*
X695416Y176986D01*
X693431Y178312D01*
X691100Y178776D01*
Y185060D01*
X668900D01*
Y166660D01*
X682609D01*
X683200Y166542D01*
X688556D01*
X695348Y159750D01*
Y149308D01*
X695554Y148271D01*
X696142Y147392D01*
X697021Y146804D01*
X698058Y146598D01*
X706142D01*
X707179Y146804D01*
X708058Y147392D01*
X708646Y148271D01*
X708852Y149308D01*
Y165692D01*
X708646Y166729D01*
X708058Y167608D01*
X707179Y168196D01*
X706142Y168402D01*
X703999D01*
X701039Y171362D01*
X701798Y172400D01*
X702788Y172400D01*
X722600D01*
Y201400D01*
X721117D01*
Y212500D01*
X720652Y214841D01*
X719326Y216826D01*
X717341Y218152D01*
X715000Y218617D01*
D02*
G37*
G36*
X635500Y199500D02*
X614500D01*
Y170500D01*
X635500D01*
Y199500D01*
D02*
G37*
G36*
X525500Y198900D02*
X504500D01*
Y169900D01*
X525500D01*
Y198900D01*
D02*
G37*
G36*
X413000D02*
X392000D01*
Y169900D01*
X413000D01*
Y198900D01*
D02*
G37*
G36*
X377500Y216118D02*
X375159Y215652D01*
X373174Y214326D01*
X372774Y213926D01*
X371448Y211941D01*
X370983Y209600D01*
Y198900D01*
X366600D01*
Y169900D01*
X387600D01*
Y198900D01*
X383218D01*
Y207989D01*
X383618Y210000D01*
X383152Y212341D01*
X381826Y214326D01*
X379841Y215652D01*
X377500Y216118D01*
D02*
G37*
G36*
X303000Y198900D02*
X282000D01*
Y169900D01*
X303000D01*
Y198900D01*
D02*
G37*
G36*
X267500Y216118D02*
X265159Y215652D01*
X263174Y214326D01*
X261848Y212341D01*
X261383Y210000D01*
Y198900D01*
X256600D01*
Y169900D01*
X277600D01*
Y198900D01*
X273617D01*
Y210000D01*
X273152Y212341D01*
X271826Y214326D01*
X269841Y215652D01*
X267500Y216118D01*
D02*
G37*
G36*
X195500Y193900D02*
X174500D01*
Y164900D01*
X195500D01*
Y193900D01*
D02*
G37*
G36*
X901100Y220060D02*
X878900D01*
Y201660D01*
X890623D01*
X890774Y201434D01*
X897695Y194513D01*
X897209Y193340D01*
X878900D01*
Y174940D01*
X885383D01*
Y163500D01*
X882152D01*
X876118Y169534D01*
Y178300D01*
X875900Y179394D01*
Y201400D01*
X854900D01*
Y172400D01*
X863883D01*
Y167000D01*
X864326Y164770D01*
X864285Y164452D01*
X863775Y163500D01*
X857500D01*
Y161117D01*
X852154D01*
Y163087D01*
X851940Y164165D01*
X851329Y165079D01*
X850415Y165690D01*
X849337Y165904D01*
X839963D01*
X838885Y165690D01*
X837971Y165079D01*
X837360Y164165D01*
X837146Y163087D01*
Y146913D01*
X837360Y145835D01*
X837971Y144921D01*
X838885Y144310D01*
X839963Y144096D01*
X849337D01*
X849382Y144059D01*
Y118805D01*
X848408Y118242D01*
X846258Y116092D01*
X844737Y113458D01*
X843950Y110521D01*
Y107479D01*
X844187Y106594D01*
X843049Y105936D01*
X841550Y107435D01*
Y120550D01*
X829020D01*
X828776Y120916D01*
X801100Y148591D01*
Y156349D01*
X802273Y156835D01*
X803584Y155524D01*
X805569Y154198D01*
X807848Y153745D01*
Y146808D01*
X808054Y145771D01*
X808642Y144892D01*
X809521Y144304D01*
X810558Y144098D01*
X818642D01*
X819679Y144304D01*
X820558Y144892D01*
X821146Y145771D01*
X821352Y146808D01*
Y163192D01*
X821146Y164229D01*
X820558Y165108D01*
X819679Y165696D01*
X818642Y165902D01*
X814229D01*
X813900Y165968D01*
X810444D01*
X805282Y171130D01*
X805808Y172400D01*
X825100D01*
Y201400D01*
X823617D01*
Y212500D01*
X823152Y214841D01*
X821826Y216826D01*
X819841Y218152D01*
X817500Y218617D01*
X815159Y218152D01*
X813174Y216826D01*
X811848Y214841D01*
X811383Y212500D01*
Y201400D01*
X804100D01*
Y174108D01*
X802830Y173582D01*
X801100Y175312D01*
Y185060D01*
X778900D01*
Y166660D01*
X792449D01*
X799595Y159513D01*
X799109Y158340D01*
X778900D01*
Y139940D01*
X792449D01*
X818450Y113939D01*
Y97450D01*
X831565D01*
X832940Y96075D01*
Y62000D01*
X828000D01*
Y38000D01*
X852000D01*
Y62000D01*
X847060D01*
Y99000D01*
X847013Y99356D01*
X848216Y99950D01*
X848408Y99758D01*
X851042Y98237D01*
X853979Y97450D01*
X857021D01*
X859958Y98237D01*
X862592Y99758D01*
X864742Y101908D01*
X866263Y104542D01*
X867050Y107479D01*
Y110521D01*
X866263Y113458D01*
X864742Y116092D01*
X862592Y118242D01*
X861618Y118805D01*
Y146500D01*
X868500D01*
Y152432D01*
X868652Y152659D01*
X869118Y155000D01*
X868652Y157341D01*
X868839Y157713D01*
X870369Y157979D01*
X875174Y153174D01*
X876373Y152373D01*
X876500Y152183D01*
Y146500D01*
X887500D01*
Y152432D01*
X887652Y152659D01*
X888118Y155000D01*
X888105Y155065D01*
X889225Y155664D01*
X928333Y116556D01*
Y115550D01*
X928450Y114959D01*
Y107479D01*
X928180Y106827D01*
X927940Y105000D01*
Y62000D01*
X923000D01*
Y38000D01*
X947000D01*
Y62000D01*
X942060D01*
Y98450D01*
X951550D01*
Y121550D01*
X940023D01*
X938776Y123416D01*
X916348Y145843D01*
X916340Y145999D01*
X917195Y146636D01*
X917569Y146775D01*
X918458Y146598D01*
X926542D01*
X927579Y146804D01*
X928458Y147392D01*
X929046Y148271D01*
X929252Y149308D01*
Y165692D01*
X929046Y166729D01*
X928458Y167608D01*
X927579Y168196D01*
X926542Y168402D01*
X918458D01*
X917421Y168196D01*
X917405Y168185D01*
X915466D01*
X911218Y172434D01*
Y173788D01*
X911600Y174900D01*
X912488Y174900D01*
X932600D01*
Y189665D01*
X932718Y190256D01*
Y204066D01*
X934326Y205674D01*
X935652Y207659D01*
X936117Y210000D01*
X935652Y212341D01*
X934326Y214326D01*
X932341Y215652D01*
X930000Y216118D01*
X927659Y215652D01*
X925674Y214326D01*
X922274Y210926D01*
X920948Y208941D01*
X920482Y206600D01*
Y203900D01*
X911600D01*
Y199118D01*
X910330Y198732D01*
X909426Y200086D01*
X901100Y208412D01*
Y220060D01*
D02*
G37*
G36*
X328400Y198900D02*
X307400D01*
Y169900D01*
X311782D01*
Y161946D01*
X311000Y161000D01*
X310512Y161000D01*
X300000D01*
Y158617D01*
X297154D01*
Y160587D01*
X296940Y161665D01*
X296329Y162579D01*
X295415Y163190D01*
X294337Y163404D01*
X284963D01*
X283885Y163190D01*
X282971Y162579D01*
X282360Y161665D01*
X282146Y160587D01*
Y144413D01*
X282360Y143335D01*
X282971Y142421D01*
X283885Y141810D01*
X284963Y141596D01*
X294337D01*
X295415Y141810D01*
X296329Y142421D01*
X296940Y143335D01*
X297154Y144413D01*
Y146383D01*
X299382D01*
Y118805D01*
X298408Y118242D01*
X296258Y116092D01*
X294737Y113458D01*
X293950Y110521D01*
Y107479D01*
X294187Y106594D01*
X293049Y105936D01*
X291550Y107435D01*
Y120550D01*
X268450D01*
Y115168D01*
X260984D01*
X241118Y135034D01*
Y142440D01*
X246100D01*
Y158849D01*
X247273Y159335D01*
X252848Y153760D01*
Y144308D01*
X253054Y143271D01*
X253642Y142392D01*
X254521Y141804D01*
X255558Y141598D01*
X263642D01*
X264679Y141804D01*
X265558Y142392D01*
X266146Y143271D01*
X266352Y144308D01*
Y160692D01*
X266146Y161729D01*
X265558Y162608D01*
X264679Y163196D01*
X263642Y163402D01*
X260509D01*
X246100Y177812D01*
Y187560D01*
X223900D01*
Y169160D01*
X237449D01*
X244595Y162013D01*
X244109Y160840D01*
X223900D01*
Y142440D01*
X228883D01*
Y132500D01*
X229348Y130159D01*
X230674Y128174D01*
X254124Y104724D01*
X256109Y103398D01*
X258450Y102933D01*
X268450D01*
Y97450D01*
X281565D01*
X334008Y45008D01*
X335470Y43885D01*
X337173Y43180D01*
X339000Y42940D01*
X353000D01*
Y38000D01*
X377000D01*
Y62000D01*
X353000D01*
Y57060D01*
X341925D01*
X302436Y96549D01*
X303094Y97687D01*
X303979Y97450D01*
X307021D01*
X309958Y98237D01*
X312592Y99758D01*
X314742Y101908D01*
X316263Y104542D01*
X317050Y107479D01*
Y110521D01*
X316263Y113458D01*
X314742Y116092D01*
X312592Y118242D01*
X311618Y118805D01*
Y152500D01*
X311152Y154841D01*
X311000Y155068D01*
Y157324D01*
X312248Y157559D01*
X313574Y155574D01*
X318474Y150674D01*
X318787Y150465D01*
X318848Y150159D01*
X319000Y149932D01*
Y144000D01*
X330000D01*
Y149932D01*
X330152Y150159D01*
X330618Y152500D01*
Y154500D01*
X330152Y156841D01*
X330000Y157068D01*
Y161000D01*
X325452D01*
X324017Y162434D01*
Y169900D01*
X328400D01*
Y198900D01*
D02*
G37*
G36*
X983400Y203900D02*
X962400D01*
Y174900D01*
X973949D01*
X983382Y165466D01*
Y157500D01*
X983848Y155159D01*
X984000Y154932D01*
Y149000D01*
X995000D01*
Y154932D01*
X995152Y155159D01*
X995618Y157500D01*
Y168000D01*
X995152Y170341D01*
X993826Y172326D01*
X983518Y182634D01*
Y184900D01*
X983400Y185491D01*
Y203900D01*
D02*
G37*
G36*
X773400Y201400D02*
X752400D01*
Y172400D01*
X760383D01*
Y158000D01*
X760848Y155659D01*
X761500Y154683D01*
Y149000D01*
X772500D01*
Y154932D01*
X772652Y155159D01*
X773118Y157500D01*
X772652Y159841D01*
X772618Y159892D01*
Y172400D01*
X773400D01*
Y201400D01*
D02*
G37*
G36*
X660900Y199500D02*
X639900D01*
Y170500D01*
X652249D01*
X653382Y169366D01*
Y157500D01*
X653848Y155159D01*
X654000Y154932D01*
Y149000D01*
X665000D01*
Y154932D01*
X665152Y155159D01*
X665618Y157500D01*
Y171900D01*
X665152Y174241D01*
X663826Y176226D01*
X660900Y179152D01*
Y199500D01*
D02*
G37*
G36*
X550900Y198900D02*
X529900D01*
Y169900D01*
X542248D01*
X543382Y168766D01*
Y155000D01*
X543848Y152659D01*
X544000Y152432D01*
Y146500D01*
X555000D01*
Y152432D01*
X555152Y152659D01*
X555618Y155000D01*
Y171300D01*
X555152Y173641D01*
X553826Y175626D01*
X550900Y178552D01*
Y198900D01*
D02*
G37*
G36*
X438400D02*
X417400D01*
Y169900D01*
X429748D01*
X430882Y168766D01*
Y155000D01*
X431348Y152659D01*
X431500Y152432D01*
Y146500D01*
X442500D01*
Y152432D01*
X442652Y152659D01*
X443118Y155000D01*
Y171300D01*
X442652Y173641D01*
X441326Y175626D01*
X438400Y178552D01*
Y198900D01*
D02*
G37*
G36*
X358600Y185060D02*
X336400D01*
Y166660D01*
X349949D01*
X357095Y159513D01*
X356609Y158340D01*
X336400D01*
Y139940D01*
X349949D01*
X378450Y111439D01*
Y97450D01*
X387490D01*
Y87950D01*
X387730Y86123D01*
X388436Y84420D01*
X389558Y82957D01*
X427508Y45008D01*
X428970Y43885D01*
X430673Y43180D01*
X432500Y42940D01*
X448000D01*
Y38000D01*
X472000D01*
Y62000D01*
X448000D01*
Y57060D01*
X435424D01*
X401610Y90875D01*
Y104450D01*
X401550Y104909D01*
Y120550D01*
X386642D01*
X363975Y143216D01*
X364249Y143762D01*
X364724Y144264D01*
X365558Y144098D01*
X373642D01*
X374679Y144304D01*
X375558Y144892D01*
X376146Y145771D01*
X376352Y146808D01*
Y163192D01*
X376146Y164229D01*
X375558Y165108D01*
X374679Y165696D01*
X373642Y165902D01*
X369229D01*
X368900Y165968D01*
X367944D01*
X358600Y175312D01*
Y185060D01*
D02*
G37*
G36*
X220900Y193900D02*
X199900D01*
Y164900D01*
X205382D01*
Y153000D01*
X205848Y150659D01*
X206500Y149683D01*
Y144000D01*
X217500D01*
Y149932D01*
X217652Y150159D01*
X218118Y152500D01*
X217652Y154841D01*
X217617Y154893D01*
Y164900D01*
X220900D01*
Y193900D01*
D02*
G37*
G36*
X181837Y163404D02*
X172463D01*
X171385Y163190D01*
X170471Y162579D01*
X169860Y161665D01*
X169646Y160587D01*
Y144413D01*
X169860Y143335D01*
X170471Y142421D01*
X171385Y141810D01*
X172463Y141596D01*
X181837D01*
X182915Y141810D01*
X183829Y142421D01*
X184440Y143335D01*
X184654Y144413D01*
Y146383D01*
X187383D01*
Y118217D01*
X186258Y117092D01*
X184737Y114458D01*
X183950Y111521D01*
Y108479D01*
X184675Y105772D01*
X184135Y105266D01*
X183621Y105030D01*
X181550Y107101D01*
Y121550D01*
X165041D01*
X164450Y121667D01*
X153024D01*
X138600Y136091D01*
Y145840D01*
X116400D01*
Y127440D01*
X129949D01*
X146164Y111224D01*
X148149Y109898D01*
X150490Y109432D01*
X158450D01*
Y98450D01*
X172899D01*
X225674Y45674D01*
X227659Y44348D01*
X230000Y43882D01*
X258000D01*
Y38000D01*
X282000D01*
Y62000D01*
X258000D01*
Y56118D01*
X232534D01*
X190530Y98121D01*
X190766Y98635D01*
X191272Y99175D01*
X193979Y98450D01*
X197021D01*
X199958Y99237D01*
X202592Y100758D01*
X204742Y102908D01*
X206263Y105542D01*
X207050Y108479D01*
Y111521D01*
X206263Y114458D01*
X204742Y117092D01*
X202592Y119242D01*
X199958Y120763D01*
X199618Y120854D01*
Y152000D01*
X199152Y154341D01*
X198500Y155317D01*
Y161000D01*
X187500D01*
Y158617D01*
X184654D01*
Y160587D01*
X184440Y161665D01*
X183829Y162579D01*
X182915Y163190D01*
X181837Y163404D01*
D02*
G37*
G36*
X992521Y121550D02*
X989479D01*
X986542Y120763D01*
X983908Y119242D01*
X981758Y117092D01*
X980237Y114458D01*
X979450Y111521D01*
Y108479D01*
X980237Y105542D01*
X981758Y102908D01*
X983908Y100758D01*
X986542Y99237D01*
X989479Y98450D01*
X992521D01*
X995458Y99237D01*
X998092Y100758D01*
X1000242Y102908D01*
X1001763Y105542D01*
X1002550Y108479D01*
Y111521D01*
X1001763Y114458D01*
X1000242Y117092D01*
X998092Y119242D01*
X995458Y120763D01*
X992521Y121550D01*
D02*
G37*
G36*
X957237Y168404D02*
X947863D01*
X946785Y168190D01*
X945871Y167579D01*
X945260Y166665D01*
X945046Y165587D01*
Y149413D01*
X945260Y148335D01*
X945871Y147421D01*
X946785Y146810D01*
X947863Y146596D01*
X956383D01*
Y120236D01*
X956848Y117895D01*
X956933Y117768D01*
X956258Y117092D01*
X954737Y114458D01*
X953950Y111521D01*
Y108479D01*
X954737Y105542D01*
X956258Y102908D01*
X958408Y100758D01*
X961042Y99237D01*
X963979Y98450D01*
X967021D01*
X969958Y99237D01*
X972592Y100758D01*
X974742Y102908D01*
X976263Y105542D01*
X977050Y108479D01*
Y111521D01*
X976263Y114458D01*
X974742Y117092D01*
X972592Y119242D01*
X969958Y120763D01*
X969173Y120973D01*
X969028Y121701D01*
X968617Y122316D01*
Y149000D01*
X976000D01*
Y154932D01*
X976152Y155159D01*
X976618Y157500D01*
X976152Y159841D01*
X976000Y160068D01*
Y166000D01*
X965000D01*
Y163617D01*
X960054D01*
Y165587D01*
X959840Y166665D01*
X959229Y167579D01*
X958315Y168190D01*
X957237Y168404D01*
D02*
G37*
G36*
X222521Y121550D02*
X219479D01*
X216542Y120763D01*
X213908Y119242D01*
X211758Y117092D01*
X210237Y114458D01*
X209450Y111521D01*
Y108479D01*
X210237Y105542D01*
X211758Y102908D01*
X213908Y100758D01*
X216542Y99237D01*
X219479Y98450D01*
X222521D01*
X225458Y99237D01*
X228092Y100758D01*
X230242Y102908D01*
X231763Y105542D01*
X232550Y108479D01*
Y111521D01*
X231763Y114458D01*
X230242Y117092D01*
X228092Y119242D01*
X225458Y120763D01*
X222521Y121550D01*
D02*
G37*
G36*
X882521Y120550D02*
X879479D01*
X876542Y119763D01*
X873908Y118242D01*
X871758Y116092D01*
X870237Y113458D01*
X869450Y110521D01*
Y107479D01*
X870237Y104542D01*
X871758Y101908D01*
X873908Y99758D01*
X876542Y98237D01*
X879479Y97450D01*
X882521D01*
X885458Y98237D01*
X888092Y99758D01*
X890242Y101908D01*
X891763Y104542D01*
X892550Y107479D01*
Y110521D01*
X891763Y113458D01*
X890242Y116092D01*
X888092Y118242D01*
X885458Y119763D01*
X882521Y120550D01*
D02*
G37*
G36*
X772521D02*
X769479D01*
X766542Y119763D01*
X763908Y118242D01*
X761758Y116092D01*
X760237Y113458D01*
X759450Y110521D01*
Y107479D01*
X760237Y104542D01*
X761758Y101908D01*
X763908Y99758D01*
X766542Y98237D01*
X769479Y97450D01*
X772521D01*
X775458Y98237D01*
X778092Y99758D01*
X780242Y101908D01*
X781763Y104542D01*
X782550Y107479D01*
Y110521D01*
X781763Y113458D01*
X780242Y116092D01*
X778092Y118242D01*
X775458Y119763D01*
X772521Y120550D01*
D02*
G37*
G36*
X736837Y168404D02*
X727463D01*
X726385Y168190D01*
X725471Y167579D01*
X724860Y166665D01*
X724646Y165587D01*
Y149413D01*
X724860Y148335D01*
X725471Y147421D01*
X726385Y146810D01*
X727463Y146596D01*
X736837D01*
X737915Y146810D01*
X738829Y147421D01*
X739440Y148335D01*
X739654Y149413D01*
Y151383D01*
X741383D01*
Y119854D01*
X741042Y119763D01*
X738408Y118242D01*
X736258Y116092D01*
X734737Y113458D01*
X733950Y110521D01*
Y107479D01*
X734737Y104542D01*
X736258Y101908D01*
X738408Y99758D01*
X741042Y98237D01*
X743979Y97450D01*
X747021D01*
X749958Y98237D01*
X752592Y99758D01*
X754742Y101908D01*
X756263Y104542D01*
X757050Y107479D01*
Y110521D01*
X756263Y113458D01*
X754742Y116092D01*
X753617Y117217D01*
Y155107D01*
X753652Y155159D01*
X754118Y157500D01*
X753652Y159841D01*
X753500Y160068D01*
Y166000D01*
X742500D01*
Y163617D01*
X739654D01*
Y165587D01*
X739440Y166665D01*
X738829Y167579D01*
X737915Y168190D01*
X736837Y168404D01*
D02*
G37*
G36*
X662521Y120550D02*
X659479D01*
X656542Y119763D01*
X653908Y118242D01*
X651758Y116092D01*
X650237Y113458D01*
X649450Y110521D01*
Y107479D01*
X650237Y104542D01*
X651758Y101908D01*
X653908Y99758D01*
X656542Y98237D01*
X659479Y97450D01*
X662521D01*
X665458Y98237D01*
X668092Y99758D01*
X670242Y101908D01*
X671763Y104542D01*
X672550Y107479D01*
Y110521D01*
X671763Y113458D01*
X670242Y116092D01*
X668092Y118242D01*
X665458Y119763D01*
X662521Y120550D01*
D02*
G37*
G36*
X629337Y168404D02*
X619963D01*
X618885Y168190D01*
X617971Y167579D01*
X617360Y166665D01*
X617146Y165587D01*
Y149413D01*
X617360Y148335D01*
X617971Y147421D01*
X618885Y146810D01*
X619963Y146596D01*
X629337D01*
X630415Y146810D01*
X631329Y147421D01*
X631940Y148335D01*
X632154Y149413D01*
Y151383D01*
X634382D01*
Y120550D01*
X633979D01*
X631042Y119763D01*
X628408Y118242D01*
X626258Y116092D01*
X624737Y113458D01*
X623950Y110521D01*
Y107479D01*
X624737Y104542D01*
X626258Y101908D01*
X628408Y99758D01*
X631042Y98237D01*
X633979Y97450D01*
X637021D01*
X639958Y98237D01*
X642592Y99758D01*
X644742Y101908D01*
X646263Y104542D01*
X647050Y107479D01*
Y110521D01*
X646263Y113458D01*
X645838Y114193D01*
X646152Y114663D01*
X646618Y117004D01*
Y157500D01*
X646152Y159841D01*
X646000Y160068D01*
Y166000D01*
X635000D01*
Y163617D01*
X632154D01*
Y165587D01*
X631940Y166665D01*
X631329Y167579D01*
X630415Y168190D01*
X629337Y168404D01*
D02*
G37*
G36*
X552521Y120550D02*
X549479D01*
X546542Y119763D01*
X543908Y118242D01*
X541758Y116092D01*
X540237Y113458D01*
X539450Y110521D01*
Y107479D01*
X540237Y104542D01*
X541758Y101908D01*
X543908Y99758D01*
X546542Y98237D01*
X549479Y97450D01*
X552521D01*
X555458Y98237D01*
X558092Y99758D01*
X560242Y101908D01*
X561763Y104542D01*
X562550Y107479D01*
Y110521D01*
X561763Y113458D01*
X560242Y116092D01*
X558092Y118242D01*
X555458Y119763D01*
X552521Y120550D01*
D02*
G37*
G36*
X519337Y165904D02*
X509963D01*
X508885Y165690D01*
X507971Y165079D01*
X507360Y164165D01*
X507146Y163087D01*
Y146913D01*
X507360Y145835D01*
X507971Y144921D01*
X508885Y144310D01*
X509963Y144096D01*
X519337D01*
X519383Y144059D01*
Y118805D01*
X518408Y118242D01*
X516258Y116092D01*
X514737Y113458D01*
X513950Y110521D01*
Y107479D01*
X514737Y104542D01*
X516258Y101908D01*
X518408Y99758D01*
X521042Y98237D01*
X523979Y97450D01*
X527021D01*
X529958Y98237D01*
X532592Y99758D01*
X534742Y101908D01*
X536263Y104542D01*
X537050Y107479D01*
Y110521D01*
X536263Y113458D01*
X534742Y116092D01*
X532592Y118242D01*
X531618Y118805D01*
Y146500D01*
X536000D01*
Y152432D01*
X536152Y152659D01*
X536618Y155000D01*
X536152Y157341D01*
X536000Y157568D01*
Y163500D01*
X525000D01*
Y161117D01*
X522154D01*
Y163087D01*
X521940Y164165D01*
X521329Y165079D01*
X520415Y165690D01*
X519337Y165904D01*
D02*
G37*
G36*
X442521Y120550D02*
X439479D01*
X436542Y119763D01*
X433908Y118242D01*
X431758Y116092D01*
X430237Y113458D01*
X429450Y110521D01*
Y107479D01*
X430237Y104542D01*
X431758Y101908D01*
X433908Y99758D01*
X436542Y98237D01*
X439479Y97450D01*
X442521D01*
X445458Y98237D01*
X448092Y99758D01*
X450242Y101908D01*
X451763Y104542D01*
X452550Y107479D01*
Y110521D01*
X451763Y113458D01*
X450242Y116092D01*
X448092Y118242D01*
X445458Y119763D01*
X442521Y120550D01*
D02*
G37*
G36*
X404337Y165904D02*
X394963D01*
X393885Y165690D01*
X392971Y165079D01*
X392360Y164165D01*
X392146Y163087D01*
Y146913D01*
X392360Y145835D01*
X392971Y144921D01*
X393885Y144310D01*
X394963Y144096D01*
X404337D01*
X405415Y144310D01*
X406329Y144921D01*
X406940Y145835D01*
X407154Y146913D01*
Y148883D01*
X411382D01*
Y119854D01*
X411042Y119763D01*
X408408Y118242D01*
X406258Y116092D01*
X404737Y113458D01*
X403950Y110521D01*
Y107479D01*
X404737Y104542D01*
X406258Y101908D01*
X408408Y99758D01*
X411042Y98237D01*
X413979Y97450D01*
X417021D01*
X419958Y98237D01*
X422592Y99758D01*
X424742Y101908D01*
X426263Y104542D01*
X427050Y107479D01*
Y110521D01*
X426263Y113458D01*
X424742Y116092D01*
X423618Y117217D01*
Y152607D01*
X423652Y152659D01*
X424118Y155000D01*
X423652Y157341D01*
X423500Y157568D01*
Y163500D01*
X412500D01*
Y161117D01*
X407154D01*
Y163087D01*
X406940Y164165D01*
X406329Y165079D01*
X405415Y165690D01*
X404337Y165904D01*
D02*
G37*
G36*
X332521Y120550D02*
X329479D01*
X326542Y119763D01*
X323908Y118242D01*
X321758Y116092D01*
X320237Y113458D01*
X319450Y110521D01*
Y107479D01*
X320237Y104542D01*
X321758Y101908D01*
X323908Y99758D01*
X326542Y98237D01*
X329479Y97450D01*
X332521D01*
X335458Y98237D01*
X338092Y99758D01*
X340242Y101908D01*
X341763Y104542D01*
X342550Y107479D01*
Y110521D01*
X341763Y113458D01*
X340242Y116092D01*
X338092Y118242D01*
X335458Y119763D01*
X332521Y120550D01*
D02*
G37*
G36*
X29500Y115350D02*
X13700D01*
Y99650D01*
X15482D01*
Y70900D01*
X15948Y68559D01*
X17274Y66574D01*
X21500Y62348D01*
Y59000D01*
X25432D01*
X25659Y58848D01*
X28000Y58383D01*
X30000D01*
X32341Y58848D01*
X32568Y59000D01*
X38500D01*
Y70000D01*
X32568D01*
X32341Y70152D01*
X30666Y70485D01*
X27717Y73434D01*
Y99650D01*
X29500D01*
Y115350D01*
D02*
G37*
G36*
X971632Y62000D02*
X968472D01*
X965420Y61182D01*
X962684Y59602D01*
X960450Y57368D01*
X958870Y54632D01*
X958052Y51580D01*
Y48420D01*
X958870Y45368D01*
X960450Y42632D01*
X962684Y40398D01*
X965420Y38818D01*
X968472Y38000D01*
X971632D01*
X974684Y38818D01*
X977420Y40398D01*
X979654Y42632D01*
X981234Y45368D01*
X982052Y48420D01*
Y51580D01*
X981234Y54632D01*
X979654Y57368D01*
X977420Y59602D01*
X974684Y61182D01*
X971632Y62000D01*
D02*
G37*
G36*
X876632D02*
X873472D01*
X870420Y61182D01*
X867684Y59602D01*
X865450Y57368D01*
X863870Y54632D01*
X863052Y51580D01*
Y48420D01*
X863870Y45368D01*
X865450Y42632D01*
X867684Y40398D01*
X870420Y38818D01*
X873472Y38000D01*
X876632D01*
X879684Y38818D01*
X882420Y40398D01*
X884654Y42632D01*
X886234Y45368D01*
X887052Y48420D01*
Y51580D01*
X886234Y54632D01*
X884654Y57368D01*
X882420Y59602D01*
X879684Y61182D01*
X876632Y62000D01*
D02*
G37*
G36*
X781632D02*
X778472D01*
X775420Y61182D01*
X772684Y59602D01*
X770450Y57368D01*
X768870Y54632D01*
X768052Y51580D01*
Y48420D01*
X768870Y45368D01*
X770450Y42632D01*
X772684Y40398D01*
X775420Y38818D01*
X778472Y38000D01*
X781632D01*
X784684Y38818D01*
X787420Y40398D01*
X789654Y42632D01*
X791234Y45368D01*
X792052Y48420D01*
Y51580D01*
X791234Y54632D01*
X789654Y57368D01*
X787420Y59602D01*
X784684Y61182D01*
X781632Y62000D01*
D02*
G37*
G36*
X691100Y158340D02*
X668900D01*
Y139940D01*
X682449D01*
X708450Y113939D01*
Y97450D01*
X712940D01*
Y75000D01*
X713180Y73173D01*
X713885Y71470D01*
X715008Y70008D01*
X733000Y52015D01*
Y38000D01*
X757000D01*
Y62000D01*
X742985D01*
X727060Y77924D01*
Y97450D01*
X731550D01*
Y120550D01*
X719020D01*
X718776Y120916D01*
X691100Y148591D01*
Y158340D01*
D02*
G37*
G36*
X686632Y62000D02*
X683472D01*
X680420Y61182D01*
X677684Y59602D01*
X675450Y57368D01*
X673870Y54632D01*
X673052Y51580D01*
Y48420D01*
X673870Y45368D01*
X675450Y42632D01*
X677684Y40398D01*
X680420Y38818D01*
X683472Y38000D01*
X686632D01*
X689684Y38818D01*
X692420Y40398D01*
X694654Y42632D01*
X696234Y45368D01*
X697052Y48420D01*
Y51580D01*
X696234Y54632D01*
X694654Y57368D01*
X692420Y59602D01*
X689684Y61182D01*
X686632Y62000D01*
D02*
G37*
G36*
X591632D02*
X588472D01*
X585420Y61182D01*
X582684Y59602D01*
X580450Y57368D01*
X578870Y54632D01*
X578052Y51580D01*
Y48420D01*
X578870Y45368D01*
X580450Y42632D01*
X582684Y40398D01*
X585420Y38818D01*
X588472Y38000D01*
X591632D01*
X594684Y38818D01*
X597420Y40398D01*
X599654Y42632D01*
X601234Y45368D01*
X602052Y48420D01*
Y51580D01*
X601234Y54632D01*
X599654Y57368D01*
X597420Y59602D01*
X594684Y61182D01*
X591632Y62000D01*
D02*
G37*
G36*
X496632D02*
X493472D01*
X490420Y61182D01*
X487684Y59602D01*
X485450Y57368D01*
X483870Y54632D01*
X483052Y51580D01*
Y48420D01*
X483870Y45368D01*
X485450Y42632D01*
X487684Y40398D01*
X490420Y38818D01*
X493472Y38000D01*
X496632D01*
X499684Y38818D01*
X502420Y40398D01*
X504654Y42632D01*
X506234Y45368D01*
X507052Y48420D01*
Y51580D01*
X506234Y54632D01*
X504654Y57368D01*
X502420Y59602D01*
X499684Y61182D01*
X496632Y62000D01*
D02*
G37*
G36*
X401632D02*
X398472D01*
X395420Y61182D01*
X392684Y59602D01*
X390450Y57368D01*
X388870Y54632D01*
X388052Y51580D01*
Y48420D01*
X388870Y45368D01*
X390450Y42632D01*
X392684Y40398D01*
X395420Y38818D01*
X398472Y38000D01*
X401632D01*
X404684Y38818D01*
X407420Y40398D01*
X409654Y42632D01*
X411234Y45368D01*
X412052Y48420D01*
Y51580D01*
X411234Y54632D01*
X409654Y57368D01*
X407420Y59602D01*
X404684Y61182D01*
X401632Y62000D01*
D02*
G37*
G36*
X306632D02*
X303472D01*
X300420Y61182D01*
X297684Y59602D01*
X295450Y57368D01*
X293870Y54632D01*
X293052Y51580D01*
Y48420D01*
X293870Y45368D01*
X295450Y42632D01*
X297684Y40398D01*
X300420Y38818D01*
X303472Y38000D01*
X306632D01*
X309684Y38818D01*
X312420Y40398D01*
X314654Y42632D01*
X316234Y45368D01*
X317052Y48420D01*
Y51580D01*
X316234Y54632D01*
X314654Y57368D01*
X312420Y59602D01*
X309684Y61182D01*
X306632Y62000D01*
D02*
G37*
G36*
X1012000Y585400D02*
X988000D01*
Y565400D01*
X1012000D01*
Y567283D01*
X1015232D01*
X1017940Y564576D01*
Y60424D01*
X989576Y32060D01*
X92924D01*
X77000Y47985D01*
Y62000D01*
X53000D01*
Y50598D01*
X38500D01*
Y51000D01*
X21500D01*
Y40000D01*
X38500D01*
Y40402D01*
X53000D01*
Y38000D01*
X67015D01*
X85008Y20008D01*
X86470Y18886D01*
X88173Y18180D01*
X90000Y17940D01*
X992500D01*
X994327Y18180D01*
X996030Y18886D01*
X997492Y20008D01*
X1029993Y52508D01*
X1031115Y53970D01*
X1031820Y55673D01*
X1032060Y57500D01*
Y567500D01*
X1031820Y569327D01*
X1031115Y571030D01*
X1029993Y572492D01*
X1023149Y579336D01*
X1021687Y580458D01*
X1019984Y581163D01*
X1018157Y581404D01*
X1012000D01*
Y585400D01*
D02*
G37*
%LPD*%
G36*
X236383Y577534D02*
X230674Y571826D01*
X229348Y569841D01*
X228883Y567500D01*
X229348Y565159D01*
X230674Y563174D01*
X232659Y561848D01*
X234958Y561391D01*
X239091Y557258D01*
X238465Y556087D01*
X238314Y556118D01*
X230799D01*
X207640Y579277D01*
X208125Y580450D01*
X236383D01*
Y577534D01*
D02*
G37*
G36*
X496327Y502477D02*
X497484Y501703D01*
X498850Y501431D01*
X528522D01*
X530157Y499796D01*
X530138Y499643D01*
X529589Y498569D01*
X485478D01*
X479143Y504904D01*
Y507071D01*
X479239Y507168D01*
X480000Y509005D01*
Y510995D01*
X479239Y512832D01*
X477891Y514180D01*
X477911Y514479D01*
X478227Y515450D01*
X483353D01*
X496327Y502477D01*
D02*
G37*
G36*
X451382Y529082D02*
Y512534D01*
X413750Y474902D01*
X390893Y497758D01*
X391379Y498931D01*
X398522D01*
X404977Y492477D01*
X406134Y491703D01*
X407500Y491431D01*
X411497D01*
X412168Y490761D01*
X414005Y490000D01*
X415995D01*
X417832Y490761D01*
X419239Y492168D01*
X420000Y494005D01*
Y495995D01*
X419239Y497832D01*
X417832Y499239D01*
X415995Y500000D01*
X414005D01*
X413769Y499902D01*
X413050Y500979D01*
X414239Y502168D01*
X415000Y504005D01*
Y505995D01*
X414239Y507832D01*
X412960Y509111D01*
X413044Y509707D01*
X413349Y510381D01*
X443850D01*
X445215Y510653D01*
X446373Y511427D01*
X448423Y513477D01*
X449197Y514635D01*
X449469Y516000D01*
Y529128D01*
X450164Y529665D01*
X451382Y529082D01*
D02*
G37*
G36*
X408174Y463174D02*
X408174Y463174D01*
X416382Y454966D01*
Y407500D01*
X416848Y405159D01*
X418174Y403174D01*
X418699Y402650D01*
X417832Y401739D01*
X415995Y402500D01*
X415265D01*
X410242Y407523D01*
X409084Y408297D01*
X407719Y408569D01*
X392574D01*
X392425Y408737D01*
X391967Y409757D01*
X406105Y423895D01*
X406384Y424313D01*
X406739Y424668D01*
X406931Y425132D01*
X407210Y425549D01*
X407308Y426042D01*
X407500Y426505D01*
Y427007D01*
X407598Y427500D01*
X407500Y427993D01*
Y428495D01*
X407308Y428958D01*
X407210Y429451D01*
X406931Y429869D01*
X406739Y430332D01*
X406384Y430687D01*
X406105Y431105D01*
X405687Y431384D01*
X405332Y431739D01*
X404869Y431931D01*
X404451Y432210D01*
X403958Y432308D01*
X403495Y432500D01*
X402993D01*
X402500Y432598D01*
X402007Y432500D01*
X401505D01*
X401042Y432308D01*
X400549Y432210D01*
X400132Y431931D01*
X399668Y431739D01*
X399313Y431384D01*
X398895Y431105D01*
X375388Y407598D01*
X290000D01*
X289508Y407500D01*
X289005D01*
X288542Y407308D01*
X288049Y407210D01*
X287632Y406931D01*
X287168Y406739D01*
X286813Y406384D01*
X286395Y406105D01*
X286116Y405687D01*
X285761Y405332D01*
X285569Y404868D01*
X285290Y404451D01*
X285192Y403958D01*
X285000Y403495D01*
Y402993D01*
X284902Y402500D01*
X285000Y402007D01*
Y401505D01*
X285192Y401042D01*
X285290Y400549D01*
X285569Y400132D01*
X285761Y399668D01*
X286116Y399313D01*
X286395Y398895D01*
X286813Y398616D01*
X287168Y398261D01*
X287313Y396989D01*
X287259Y396804D01*
X287111Y396595D01*
X266976D01*
X266591Y397865D01*
X267054Y398174D01*
X283565Y414686D01*
X284891Y416670D01*
X285357Y419012D01*
Y455760D01*
X284891Y458102D01*
X283565Y460086D01*
X271431Y472220D01*
Y477780D01*
X282534Y488882D01*
X344500D01*
Y475000D01*
X360500D01*
Y488882D01*
X382466D01*
X408174Y463174D01*
D02*
G37*
G36*
X274107Y497758D02*
X260988Y484639D01*
X259662Y482655D01*
X259196Y480314D01*
Y471118D01*
X254550D01*
Y471400D01*
X244262D01*
X243276Y472876D01*
X233366Y482785D01*
X233617Y484050D01*
Y495000D01*
X233152Y497341D01*
X232838Y497811D01*
X233436Y498931D01*
X273621D01*
X274107Y497758D01*
D02*
G37*
G36*
X576280Y443673D02*
X576238Y443501D01*
X575657Y442500D01*
X574005D01*
X572168Y441739D01*
X570761Y440332D01*
X570000Y438495D01*
Y436505D01*
X570761Y434668D01*
X571431Y433997D01*
Y425411D01*
X570356Y424862D01*
X570204Y424843D01*
X568569Y426478D01*
Y441497D01*
X569239Y442168D01*
X570000Y444005D01*
Y445995D01*
X569239Y447832D01*
X567832Y449239D01*
X565994Y450000D01*
X564005D01*
X562168Y449239D01*
X560761Y447832D01*
X560000Y445995D01*
Y444005D01*
X560761Y442168D01*
X561431Y441497D01*
Y425411D01*
X560356Y424862D01*
X560204Y424843D01*
X558569Y426478D01*
Y451497D01*
X559239Y452168D01*
X560000Y454005D01*
Y455995D01*
X559239Y457832D01*
X558509Y458562D01*
X558957Y459685D01*
X560142Y459812D01*
X576280Y443673D01*
D02*
G37*
G36*
X464159Y506881D02*
Y499772D01*
X464431Y498406D01*
X465205Y497249D01*
X477477Y484977D01*
X478634Y484203D01*
X480000Y483931D01*
X521497D01*
X522168Y483261D01*
X524005Y482500D01*
X525995D01*
X527832Y483261D01*
X529239Y484668D01*
X530000Y486505D01*
Y488157D01*
X531001Y488738D01*
X531173Y488780D01*
X532500Y487453D01*
Y486505D01*
X533261Y484668D01*
X534668Y483261D01*
X536505Y482500D01*
X538495D01*
X540332Y483261D01*
X541739Y484668D01*
X542252Y485906D01*
X543673Y486280D01*
X547500Y482453D01*
Y481505D01*
X548261Y479668D01*
X549623Y478306D01*
X549611Y478069D01*
X549307Y477036D01*
X513467D01*
X512102Y476764D01*
X510944Y475991D01*
X508051Y473097D01*
X507277Y471940D01*
X507243Y471770D01*
X507168Y471739D01*
X505761Y470332D01*
X505000Y468495D01*
Y466505D01*
X505761Y464668D01*
X506659Y463770D01*
X506600Y463286D01*
X506242Y462391D01*
X504668Y461739D01*
X503261Y460332D01*
X502500Y458495D01*
Y456505D01*
X503190Y454839D01*
X502701Y453569D01*
X498503D01*
X497832Y454239D01*
X495995Y455000D01*
X494005D01*
X492168Y454239D01*
X490761Y452832D01*
X490000Y450995D01*
Y449005D01*
X490761Y447168D01*
X492168Y445761D01*
X494005Y445000D01*
X495995D01*
X497832Y445761D01*
X498503Y446431D01*
X515000D01*
X516366Y446703D01*
X517523Y447477D01*
X529945Y459899D01*
X551032D01*
X551558Y458629D01*
X550761Y457832D01*
X550000Y455995D01*
Y454005D01*
X550761Y452168D01*
X551431Y451497D01*
Y425411D01*
X550356Y424862D01*
X550204Y424843D01*
X532523Y442523D01*
X531366Y443297D01*
X530000Y443569D01*
X491003D01*
X490332Y444239D01*
X488495Y445000D01*
X486505D01*
X484668Y444239D01*
X483261Y442832D01*
X482500Y440995D01*
Y439005D01*
X483261Y437168D01*
X484668Y435761D01*
X486505Y435000D01*
X488495D01*
X490332Y435761D01*
X491003Y436431D01*
X528522D01*
X588477Y376477D01*
X589634Y375703D01*
X591000Y375431D01*
X623641D01*
X624086Y374713D01*
X624178Y374161D01*
X623576Y373569D01*
X563978D01*
X562500Y375047D01*
Y375995D01*
X561739Y377832D01*
X560332Y379239D01*
X558495Y380000D01*
X556505D01*
X554668Y379239D01*
X553261Y377832D01*
X552500Y375995D01*
Y374005D01*
X553261Y372168D01*
X554668Y370761D01*
X556505Y370000D01*
X557453D01*
X559977Y367477D01*
X561134Y366703D01*
X562500Y366431D01*
X610600D01*
Y345450D01*
X610882D01*
Y283765D01*
X611348Y281424D01*
X612674Y279439D01*
X614383Y277731D01*
Y265700D01*
X614500Y265109D01*
Y246700D01*
X635500D01*
Y275700D01*
X626618D01*
Y280265D01*
X626336Y281680D01*
X627333Y282950D01*
X657700D01*
Y304550D01*
X623117D01*
Y345450D01*
X623400D01*
Y365233D01*
X624668Y365761D01*
X626505Y365000D01*
X628495D01*
X630332Y365761D01*
X631739Y367168D01*
X632500Y369005D01*
Y370995D01*
X631739Y372832D01*
X630410Y374161D01*
X630442Y374537D01*
X630772Y375431D01*
X656531D01*
Y359150D01*
X656600Y358805D01*
Y345450D01*
X669400D01*
Y367050D01*
X663669D01*
Y377243D01*
X663397Y378608D01*
X662623Y379766D01*
X662131Y380258D01*
X662617Y381431D01*
X691022D01*
X698931Y373522D01*
Y319936D01*
X697811Y319338D01*
X697341Y319652D01*
X695000Y320117D01*
X687393D01*
X687341Y320152D01*
X685000Y320617D01*
X682659Y320152D01*
X682432Y320000D01*
X676500D01*
Y309000D01*
X682183D01*
X683159Y308348D01*
X685500Y307882D01*
X695000D01*
X697341Y308348D01*
X697811Y308662D01*
X698931Y308064D01*
Y299528D01*
X694673Y295270D01*
X693500Y295756D01*
Y301000D01*
X687568D01*
X687341Y301152D01*
X685000Y301618D01*
X682659Y301152D01*
X682608Y301117D01*
X680200D01*
X679609Y301000D01*
X676500D01*
Y299744D01*
X675874Y299326D01*
X652249Y275700D01*
X639900D01*
Y246700D01*
X660900D01*
Y267048D01*
X682734Y288883D01*
X684500D01*
X686841Y289348D01*
X687185Y289578D01*
X687994Y288591D01*
X684977Y285574D01*
X684203Y284416D01*
X683931Y283050D01*
Y265620D01*
X654380Y236069D01*
X150000D01*
X148634Y235797D01*
X147477Y235023D01*
X126022Y213569D01*
X126003D01*
X125332Y214239D01*
X123495Y215000D01*
X121505D01*
X119668Y214239D01*
X118261Y212832D01*
X117500Y210995D01*
Y209005D01*
X118261Y207168D01*
X119668Y205761D01*
X121505Y205000D01*
X123495D01*
X125332Y205761D01*
X125918Y206347D01*
X127095Y206241D01*
X127578Y205124D01*
X122453Y200000D01*
X121505D01*
X119668Y199239D01*
X118261Y197832D01*
X117500Y195995D01*
Y194005D01*
X118261Y192168D01*
X119668Y190761D01*
X121505Y190000D01*
X123495D01*
X125332Y190761D01*
X126739Y192168D01*
X127500Y194005D01*
Y194953D01*
X156478Y223931D01*
X159725D01*
X160211Y222758D01*
X122453Y185000D01*
X121505D01*
X119668Y184239D01*
X118261Y182832D01*
X117500Y180995D01*
Y179005D01*
X118261Y177168D01*
X119668Y175761D01*
X121505Y175000D01*
X123495D01*
X125332Y175761D01*
X126739Y177168D01*
X127500Y179005D01*
Y179953D01*
X152348Y204802D01*
X153519Y204176D01*
X153483Y203993D01*
Y193900D01*
X149100D01*
Y166154D01*
X149100Y165098D01*
X148455Y164626D01*
X148230Y164553D01*
X147884Y164507D01*
X147916Y164486D01*
X147917Y164486D01*
X147916Y164486D01*
X145931Y165812D01*
X143590Y166278D01*
X138600D01*
Y172560D01*
X117388D01*
X116400Y172560D01*
X116117Y173713D01*
Y219382D01*
X127393D01*
X129734Y219848D01*
X131719Y221174D01*
X149426Y238881D01*
X150752Y240865D01*
X150799Y241100D01*
X170100D01*
Y270100D01*
X151217D01*
Y347566D01*
X187534Y383882D01*
X219966D01*
X223699Y380150D01*
X222832Y379239D01*
X220995Y380000D01*
X219005D01*
X217168Y379239D01*
X215761Y377832D01*
X215000Y375995D01*
Y374005D01*
X215761Y372168D01*
X217168Y370761D01*
X219005Y370000D01*
X219953D01*
X221633Y368320D01*
X221212Y367050D01*
X219100D01*
Y345450D01*
X231900D01*
Y367050D01*
X229069D01*
Y369500D01*
X228797Y370866D01*
X228023Y372023D01*
X225000Y375047D01*
Y375995D01*
X224239Y377832D01*
X225150Y378699D01*
X243883Y359966D01*
Y322500D01*
X241500D01*
Y311500D01*
X247432D01*
X247659Y311348D01*
X250000Y310882D01*
X252341Y311348D01*
X252393Y311383D01*
X265000D01*
X267122Y311805D01*
X267645Y311221D01*
X267870Y310757D01*
X265674Y308561D01*
X264348Y306576D01*
X263883Y304235D01*
Y287500D01*
X264348Y285159D01*
X265674Y283174D01*
X272575Y276273D01*
X272089Y275100D01*
X256600D01*
Y246100D01*
X277600D01*
Y268424D01*
X278773Y268911D01*
X282000Y265684D01*
Y246100D01*
X303000D01*
Y275100D01*
X289887D01*
X287378Y277609D01*
X287252Y278241D01*
X285926Y280226D01*
X281875Y284277D01*
X282361Y285450D01*
X312700D01*
Y307050D01*
X281684D01*
X280878Y308032D01*
X281117Y309235D01*
Y349264D01*
X280652Y351605D01*
X279326Y353590D01*
X278517Y354398D01*
Y358350D01*
X278400Y358941D01*
Y369550D01*
X265600D01*
Y347950D01*
X267799D01*
X268074Y347538D01*
X268883Y346730D01*
Y323469D01*
X267762Y322870D01*
X267341Y323152D01*
X265000Y323618D01*
X256117D01*
Y362500D01*
X255652Y364841D01*
X254326Y366826D01*
X234299Y386853D01*
X234785Y388026D01*
X234889D01*
X236727Y388787D01*
X237397Y389458D01*
X365760D01*
X365963Y388827D01*
X365971Y388188D01*
X364977Y387523D01*
X339772Y362319D01*
X324400D01*
Y369550D01*
X311600D01*
Y347950D01*
X324400D01*
Y355181D01*
X341250D01*
X342616Y355453D01*
X343773Y356227D01*
X368978Y381431D01*
X385201D01*
X385690Y380161D01*
X385000Y378495D01*
Y376505D01*
X385761Y374668D01*
X387168Y373261D01*
X389005Y372500D01*
X389953D01*
X391633Y370820D01*
X391107Y369550D01*
X380600D01*
Y347950D01*
X380882D01*
Y280500D01*
X381348Y278159D01*
X382543Y276370D01*
X382170Y275100D01*
X366600D01*
Y246100D01*
X387600D01*
Y269189D01*
X388773Y269675D01*
X392000Y266448D01*
Y246100D01*
X413000D01*
Y275100D01*
X400652D01*
X396731Y279020D01*
X395926Y280226D01*
X393117Y283034D01*
Y285450D01*
X427700D01*
Y307050D01*
X393117D01*
Y347950D01*
X393400D01*
Y367955D01*
X394670Y368997D01*
X395000Y368931D01*
X422172D01*
X426600Y364503D01*
Y347950D01*
X439400D01*
Y369550D01*
X431647D01*
X429967Y371230D01*
X430493Y372500D01*
X430995D01*
X432832Y373261D01*
X433503Y373931D01*
X458168D01*
X459040Y373349D01*
X460406Y373077D01*
X489145D01*
X490511Y373349D01*
X491669Y374122D01*
X510047Y392500D01*
X510995D01*
X512832Y393261D01*
X514239Y394668D01*
X515000Y396505D01*
Y398495D01*
X514239Y400332D01*
X512832Y401739D01*
X510995Y402500D01*
X509005D01*
X507168Y401739D01*
X505761Y400332D01*
X505000Y398495D01*
Y397547D01*
X487667Y380214D01*
X461789D01*
X460917Y380797D01*
X459551Y381069D01*
X447995D01*
X447627Y382284D01*
X447680Y382320D01*
X449006Y384304D01*
X449472Y386645D01*
X449006Y388987D01*
X447680Y390971D01*
X428618Y410034D01*
Y457500D01*
X428152Y459841D01*
X426826Y461826D01*
X422402Y466250D01*
X461826Y505674D01*
X462889Y507266D01*
X464159Y506881D01*
D02*
G37*
G36*
X265671Y444282D02*
Y432146D01*
X265001Y431476D01*
X264240Y429638D01*
Y427649D01*
X265001Y425811D01*
X266407Y424405D01*
X268245Y423644D01*
X270234D01*
X271852Y424314D01*
X273122Y423796D01*
Y421546D01*
X271008Y419432D01*
X270607Y419438D01*
X269518Y419738D01*
X269431Y419868D01*
X269239Y420332D01*
X268884Y420687D01*
X268605Y421105D01*
X268187Y421384D01*
X267832Y421739D01*
X267368Y421931D01*
X266951Y422210D01*
X266458Y422308D01*
X265995Y422500D01*
X265492D01*
X265000Y422598D01*
X230259D01*
X229773Y423771D01*
X241602Y435600D01*
X254550D01*
Y448400D01*
X255641Y448831D01*
X261122D01*
X265671Y444282D01*
D02*
G37*
G36*
X262805Y411229D02*
X260194Y408618D01*
X152623D01*
X152097Y409888D01*
X154612Y412402D01*
X262319D01*
X262805Y411229D01*
D02*
G37*
G36*
X777477Y402477D02*
X777683Y402339D01*
X777298Y401069D01*
X771478D01*
X727289Y445258D01*
X727775Y446431D01*
X733522D01*
X777477Y402477D01*
D02*
G37*
G36*
X410000Y397672D02*
Y396505D01*
X410761Y394668D01*
X412168Y393261D01*
X414005Y392500D01*
X415995D01*
X417832Y393261D01*
X419239Y394668D01*
X420000Y396505D01*
Y398495D01*
X419239Y400332D01*
X420150Y401199D01*
X439010Y382339D01*
X439003Y382023D01*
X438714Y381069D01*
X433503D01*
X432832Y381739D01*
X430995Y382500D01*
X429005D01*
X427168Y381739D01*
X425761Y380332D01*
X425000Y378495D01*
Y377095D01*
X424040Y376119D01*
X423827Y376033D01*
X423650Y376069D01*
X396478D01*
X395000Y377547D01*
Y378495D01*
X394239Y380332D01*
X392832Y381739D01*
X391594Y382252D01*
X391220Y383673D01*
X397547Y390000D01*
X398495D01*
X400332Y390761D01*
X401739Y392168D01*
X402500Y394005D01*
Y395995D01*
X401739Y397832D01*
X400332Y399239D01*
X398495Y400000D01*
X396505D01*
X394668Y399239D01*
X393261Y397832D01*
X392500Y395995D01*
Y395047D01*
X386022Y388569D01*
X382267D01*
X382063Y389199D01*
X382055Y389839D01*
X383050Y390503D01*
X393978Y401431D01*
X406241D01*
X410000Y397672D01*
D02*
G37*
%LPC*%
G36*
X360500Y470000D02*
X344500D01*
Y454000D01*
X360500D01*
Y455882D01*
X372000D01*
X374341Y456348D01*
X376065Y457500D01*
X383500D01*
Y468500D01*
X366500D01*
Y468117D01*
X360500D01*
Y470000D01*
D02*
G37*
G36*
X317050Y482700D02*
X295450D01*
Y447300D01*
X317050D01*
Y482700D01*
D02*
G37*
G36*
X437500Y435098D02*
X437007Y435000D01*
X436505D01*
X436042Y434808D01*
X435549Y434710D01*
X435132Y434431D01*
X434668Y434239D01*
X434313Y433884D01*
X433895Y433605D01*
X433616Y433187D01*
X433261Y432832D01*
X433069Y432368D01*
X432790Y431951D01*
X432692Y431458D01*
X432500Y430995D01*
Y430493D01*
X432402Y430000D01*
X432500Y429507D01*
Y429005D01*
X432692Y428542D01*
X432790Y428049D01*
X433069Y427632D01*
X433261Y427168D01*
X433616Y426813D01*
X433895Y426395D01*
X459902Y400388D01*
Y387500D01*
X460000Y387007D01*
Y386506D01*
X460192Y386042D01*
X460290Y385549D01*
X460569Y385132D01*
X460761Y384668D01*
X461116Y384313D01*
X461395Y383895D01*
X461813Y383616D01*
X462168Y383261D01*
X462632Y383069D01*
X463049Y382790D01*
X463542Y382692D01*
X464005Y382500D01*
X464507D01*
X465000Y382402D01*
X465493Y382500D01*
X465995D01*
X466458Y382692D01*
X466951Y382790D01*
X467368Y383069D01*
X467832Y383261D01*
X468187Y383616D01*
X468605Y383895D01*
X468884Y384313D01*
X469239Y384668D01*
X469431Y385132D01*
X469710Y385549D01*
X469808Y386042D01*
X470000Y386506D01*
Y387007D01*
X470098Y387500D01*
Y402500D01*
X469710Y404451D01*
X468605Y406105D01*
X441105Y433605D01*
X440687Y433884D01*
X440332Y434239D01*
X439868Y434431D01*
X439451Y434710D01*
X438958Y434808D01*
X438495Y435000D01*
X437993D01*
X437500Y435098D01*
D02*
G37*
G36*
X480995Y435000D02*
X479005D01*
X477168Y434239D01*
X475761Y432832D01*
X475000Y430995D01*
Y429005D01*
X475761Y427168D01*
X477168Y425761D01*
X479005Y425000D01*
X480995D01*
X481022Y425011D01*
X481370Y424779D01*
X482736Y424507D01*
X497946D01*
X541931Y380522D01*
Y369550D01*
X539100D01*
Y350106D01*
X537927Y349620D01*
X536069Y351478D01*
Y355000D01*
X536069Y355000D01*
Y372500D01*
X535797Y373866D01*
X535023Y375023D01*
X532500Y377547D01*
Y378495D01*
X531739Y380332D01*
X530332Y381739D01*
X528495Y382500D01*
X526505D01*
X524668Y381739D01*
X523261Y380332D01*
X522500Y378495D01*
Y376505D01*
X523261Y374668D01*
X524668Y373261D01*
X526505Y372500D01*
X527453D01*
X528931Y371022D01*
Y355000D01*
X528932Y355000D01*
Y350000D01*
X529203Y348634D01*
X529977Y347477D01*
X535077Y342377D01*
X535077Y342377D01*
X542477Y334977D01*
X543634Y334203D01*
X545000Y333931D01*
X596497D01*
X597168Y333261D01*
X599005Y332500D01*
X600995D01*
X602832Y333261D01*
X604239Y334668D01*
X605000Y336505D01*
Y338495D01*
X604239Y340332D01*
X602832Y341739D01*
X600995Y342500D01*
X599005D01*
X597168Y341739D01*
X596497Y341069D01*
X546478D01*
X540867Y346680D01*
X541393Y347950D01*
X551900D01*
Y369550D01*
X549069D01*
Y382000D01*
X548797Y383366D01*
X548023Y384523D01*
X501947Y430599D01*
X500790Y431373D01*
X499424Y431645D01*
X484731D01*
X484239Y432832D01*
X482832Y434239D01*
X480995Y435000D01*
D02*
G37*
G36*
X317500Y328618D02*
X315159Y328152D01*
X313174Y326826D01*
X311848Y324841D01*
X311383Y322500D01*
X311848Y320159D01*
X313174Y318174D01*
X318174Y313174D01*
X320159Y311848D01*
X322500Y311383D01*
X337500D01*
X337583Y311399D01*
X337659Y311348D01*
X340000Y310882D01*
X364649D01*
X366990Y311348D01*
X368975Y312674D01*
X373578Y317277D01*
X374904Y319262D01*
X375369Y321603D01*
X374904Y323944D01*
X373578Y325929D01*
X371593Y327255D01*
X369252Y327721D01*
X366911Y327255D01*
X364926Y325929D01*
X362115Y323117D01*
X340000D01*
X339917Y323101D01*
X339841Y323152D01*
X337500Y323618D01*
X325034D01*
X321826Y326826D01*
X319841Y328152D01*
X317500Y328618D01*
D02*
G37*
G36*
X430000D02*
X427659Y328152D01*
X425674Y326826D01*
X424348Y324841D01*
X423882Y322500D01*
X424348Y320159D01*
X425674Y318174D01*
X428174Y315674D01*
X430159Y314348D01*
X432500Y313883D01*
X472466D01*
X480674Y305674D01*
X482659Y304348D01*
X485000Y303883D01*
X487341Y304348D01*
X489326Y305674D01*
X490652Y307659D01*
X491118Y310000D01*
X490652Y312341D01*
X489326Y314326D01*
X479326Y324326D01*
X477341Y325652D01*
X475000Y326118D01*
X435034D01*
X434326Y326826D01*
X432341Y328152D01*
X430000Y328618D01*
D02*
G37*
G36*
X567500Y318118D02*
X565500D01*
X563159Y317652D01*
X562932Y317500D01*
X559000D01*
Y314151D01*
X548219Y303370D01*
X547820D01*
X545479Y302905D01*
X543494Y301579D01*
X542168Y299594D01*
X541702Y297253D01*
X542168Y294912D01*
X543494Y292927D01*
X545479Y291601D01*
X547820Y291136D01*
X550753D01*
X553094Y291601D01*
X555079Y292927D01*
X557827Y295675D01*
X559000Y295189D01*
Y293091D01*
X558882Y292500D01*
Y291734D01*
X542248Y275100D01*
X529900D01*
Y246100D01*
X550900D01*
Y266448D01*
X569326Y284874D01*
X570652Y286859D01*
X570779Y287500D01*
X576000D01*
Y293189D01*
X577173Y293675D01*
X578882Y291966D01*
Y290000D01*
X579348Y287659D01*
X580674Y285674D01*
X582659Y284348D01*
X585000Y283883D01*
X587341Y284348D01*
X589326Y285674D01*
X590652Y287659D01*
X591118Y290000D01*
Y294500D01*
X590652Y296841D01*
X589326Y298826D01*
X576000Y312152D01*
Y317500D01*
X570068D01*
X569841Y317652D01*
X567500Y318118D01*
D02*
G37*
G36*
X610100Y275700D02*
X589100D01*
Y246700D01*
X610100D01*
Y275700D01*
D02*
G37*
G36*
X505900Y369550D02*
X493100D01*
Y347950D01*
X493382D01*
Y286265D01*
X493848Y283924D01*
X495174Y281939D01*
X497982Y279131D01*
Y275500D01*
X497654Y275100D01*
X479100D01*
Y246100D01*
X500100D01*
Y269189D01*
X501273Y269675D01*
X504500Y266448D01*
Y246100D01*
X525500D01*
Y275100D01*
X513152D01*
X510218Y278034D01*
Y281665D01*
X509752Y284006D01*
X509535Y284330D01*
X510134Y285450D01*
X540200D01*
Y307050D01*
X505617D01*
Y347950D01*
X505900D01*
Y369550D01*
D02*
G37*
G36*
X455000Y307118D02*
X453000D01*
X450659Y306652D01*
X450432Y306500D01*
X446500D01*
Y301091D01*
X446382Y300500D01*
Y291734D01*
X429748Y275100D01*
X417400D01*
Y246100D01*
X438400D01*
Y266448D01*
X456826Y284874D01*
X458152Y286859D01*
X458618Y289200D01*
Y295500D01*
X463500D01*
Y306500D01*
X457568D01*
X457341Y306652D01*
X455000Y307118D01*
D02*
G37*
G36*
X340000Y304118D02*
X327186D01*
X324845Y303652D01*
X322860Y302326D01*
X318174Y297639D01*
X316848Y295655D01*
X316383Y293314D01*
Y275100D01*
X307400D01*
Y246100D01*
X328400D01*
Y268509D01*
X328517Y269100D01*
Y273284D01*
X328618Y273786D01*
Y290780D01*
X329720Y291882D01*
X340000D01*
X342341Y292348D01*
X342568Y292500D01*
X348500D01*
Y303500D01*
X342568D01*
X342341Y303652D01*
X340000Y304118D01*
D02*
G37*
G36*
X250000D02*
X248000D01*
X245659Y303652D01*
X245432Y303500D01*
X241500D01*
Y299352D01*
X212248Y270100D01*
X199900D01*
Y241100D01*
X220900D01*
Y261448D01*
X251665Y292214D01*
X252341Y292348D01*
X252568Y292500D01*
X258500D01*
Y303500D01*
X252568D01*
X252341Y303652D01*
X250000Y304118D01*
D02*
G37*
G36*
X185900Y367050D02*
X173100D01*
Y345450D01*
X173382D01*
Y265100D01*
X173848Y262759D01*
X174500Y261783D01*
Y241100D01*
X195500D01*
Y270100D01*
X185618D01*
Y282950D01*
X220200D01*
Y304550D01*
X185618D01*
Y345450D01*
X185900D01*
Y367050D01*
D02*
G37*
%LPD*%
G36*
X29000Y175232D02*
Y170000D01*
X33422D01*
Y165000D01*
X29000D01*
Y154000D01*
X42791D01*
X43277Y152827D01*
X38116Y147666D01*
X37232Y146342D01*
X37164Y146000D01*
X34768D01*
X21578Y159189D01*
Y180858D01*
X22848Y181384D01*
X29000Y175232D01*
D02*
G37*
D17*
X99050Y145250D02*
D03*
X86350D02*
D03*
X73650D02*
D03*
X60950D02*
D03*
Y194750D02*
D03*
X73650D02*
D03*
X86350D02*
D03*
X99050D02*
D03*
D18*
X27500Y699500D02*
D03*
Y680500D02*
D03*
X365000Y550500D02*
D03*
Y569500D02*
D03*
X685000Y314500D02*
D03*
Y295500D02*
D03*
X142500Y624500D02*
D03*
Y605500D02*
D03*
X795000Y312000D02*
D03*
Y293000D02*
D03*
X460000Y553000D02*
D03*
Y572000D02*
D03*
X250000Y317000D02*
D03*
Y298000D02*
D03*
X887500Y314500D02*
D03*
Y295500D02*
D03*
X570000Y553000D02*
D03*
Y572000D02*
D03*
X340000Y317000D02*
D03*
Y298000D02*
D03*
X685000Y558000D02*
D03*
Y577000D02*
D03*
X977500Y312500D02*
D03*
Y293500D02*
D03*
X792500Y555500D02*
D03*
Y574500D02*
D03*
X242500Y613000D02*
D03*
Y632000D02*
D03*
X455000Y320000D02*
D03*
Y301000D02*
D03*
X567500Y312000D02*
D03*
Y293000D02*
D03*
X267500Y548000D02*
D03*
Y567000D02*
D03*
X902500Y555500D02*
D03*
Y574500D02*
D03*
X375000Y482000D02*
D03*
Y463000D02*
D03*
X30000Y45500D02*
D03*
Y64500D02*
D03*
X100000Y425500D02*
D03*
Y444500D02*
D03*
X75000Y425500D02*
D03*
Y444500D02*
D03*
X37500Y194500D02*
D03*
Y175500D02*
D03*
X117500Y244500D02*
D03*
Y225500D02*
D03*
X95000Y244500D02*
D03*
Y225500D02*
D03*
X72500Y244500D02*
D03*
Y225500D02*
D03*
X37500Y140500D02*
D03*
Y159500D02*
D03*
D19*
X663000Y356250D02*
D03*
X640000D02*
D03*
X617000D02*
D03*
X438000Y526250D02*
D03*
X415000D02*
D03*
X392000D02*
D03*
X727000Y356250D02*
D03*
X750000D02*
D03*
X773000D02*
D03*
X528000Y526250D02*
D03*
X505000D02*
D03*
X482000D02*
D03*
X179500Y356250D02*
D03*
X202500D02*
D03*
X225500D02*
D03*
X819500D02*
D03*
X842500D02*
D03*
X865500D02*
D03*
X638000Y526250D02*
D03*
X615000D02*
D03*
X592000D02*
D03*
X272000Y358750D02*
D03*
X295000D02*
D03*
X318000D02*
D03*
X753000Y526250D02*
D03*
X730000D02*
D03*
X707000D02*
D03*
X909500Y356250D02*
D03*
X932500D02*
D03*
X955500D02*
D03*
X865500Y526250D02*
D03*
X842500D02*
D03*
X819500D02*
D03*
X243000Y528750D02*
D03*
X220000D02*
D03*
X197000D02*
D03*
X387000Y358750D02*
D03*
X410000D02*
D03*
X433000D02*
D03*
X499500D02*
D03*
X522500D02*
D03*
X545500D02*
D03*
X338000Y526250D02*
D03*
X315000D02*
D03*
X292000D02*
D03*
X973000Y523750D02*
D03*
X950000D02*
D03*
X927000D02*
D03*
D20*
X640000Y293750D02*
D03*
X415000Y588750D02*
D03*
X750000Y293750D02*
D03*
X505000Y588750D02*
D03*
X202500Y293750D02*
D03*
X842500D02*
D03*
X615000Y588750D02*
D03*
X295000Y296250D02*
D03*
X730000Y588750D02*
D03*
X932500Y293750D02*
D03*
X842500Y588750D02*
D03*
X220000Y591250D02*
D03*
X410000Y296250D02*
D03*
X522500D02*
D03*
X315000Y588750D02*
D03*
X950000Y586250D02*
D03*
D21*
X855350Y727500D02*
D03*
X192850Y725000D02*
D03*
X399650Y155000D02*
D03*
X514650D02*
D03*
X962850Y725000D02*
D03*
X307500Y722500D02*
D03*
X952550Y157500D02*
D03*
X742850Y727500D02*
D03*
X630350Y725000D02*
D03*
X844650Y155000D02*
D03*
X522850Y725000D02*
D03*
X732150Y157500D02*
D03*
X624650D02*
D03*
X412850Y725000D02*
D03*
X289650Y152500D02*
D03*
X177150D02*
D03*
D22*
X885400Y727500D02*
D03*
X222900Y725000D02*
D03*
X369600Y155000D02*
D03*
X484600D02*
D03*
X992900Y725000D02*
D03*
X337550Y722500D02*
D03*
X922500Y157500D02*
D03*
X772900Y727500D02*
D03*
X660400Y725000D02*
D03*
X814600Y155000D02*
D03*
X552900Y725000D02*
D03*
X702100Y157500D02*
D03*
X594600D02*
D03*
X442900Y725000D02*
D03*
X259600Y152500D02*
D03*
X147100D02*
D03*
D23*
X185000Y803450D02*
D03*
Y851550D02*
D03*
X57500Y854050D02*
D03*
Y805950D02*
D03*
D24*
X1012500Y730860D02*
D03*
Y704140D02*
D03*
X355000Y723360D02*
D03*
Y696640D02*
D03*
X460000Y151640D02*
D03*
Y178360D02*
D03*
X905000Y730860D02*
D03*
Y704140D02*
D03*
X245000Y725860D02*
D03*
Y699140D02*
D03*
X347500Y149140D02*
D03*
Y175860D02*
D03*
X890000Y184140D02*
D03*
Y210860D02*
D03*
X797500Y730860D02*
D03*
Y704140D02*
D03*
X235000Y151640D02*
D03*
Y178360D02*
D03*
X682500Y730860D02*
D03*
Y704140D02*
D03*
X790000Y149140D02*
D03*
Y175860D02*
D03*
X127500Y136640D02*
D03*
Y163360D02*
D03*
X572500Y728360D02*
D03*
Y701640D02*
D03*
X680000Y149140D02*
D03*
Y175860D02*
D03*
X575000Y149140D02*
D03*
Y175860D02*
D03*
X462500Y730860D02*
D03*
Y704140D02*
D03*
D25*
X427900Y260600D02*
D03*
X402500D02*
D03*
Y184400D02*
D03*
X427900D02*
D03*
X377100Y260600D02*
D03*
Y184400D02*
D03*
X430400Y695600D02*
D03*
Y619400D02*
D03*
X379600Y695600D02*
D03*
X405000D02*
D03*
Y619400D02*
D03*
X379600D02*
D03*
X650400Y261200D02*
D03*
X625000D02*
D03*
Y185000D02*
D03*
X650400D02*
D03*
X599600Y261200D02*
D03*
Y185000D02*
D03*
X762900Y263100D02*
D03*
X737500D02*
D03*
Y186900D02*
D03*
X762900D02*
D03*
X712100Y263100D02*
D03*
Y186900D02*
D03*
X540400Y693100D02*
D03*
Y616900D02*
D03*
X489600Y693100D02*
D03*
X515000D02*
D03*
Y616900D02*
D03*
X489600D02*
D03*
X210400Y255600D02*
D03*
X185000D02*
D03*
Y179400D02*
D03*
X210400D02*
D03*
X159600Y255600D02*
D03*
Y179400D02*
D03*
X814600Y186900D02*
D03*
Y263100D02*
D03*
X865400Y186900D02*
D03*
X840000D02*
D03*
Y263100D02*
D03*
X865400D02*
D03*
X599600Y619400D02*
D03*
X625000D02*
D03*
Y695600D02*
D03*
X599600D02*
D03*
X650400Y619400D02*
D03*
Y695600D02*
D03*
X267100Y184400D02*
D03*
Y260600D02*
D03*
X317900Y184400D02*
D03*
X292500D02*
D03*
Y260600D02*
D03*
X317900D02*
D03*
X714600Y621900D02*
D03*
X740000D02*
D03*
Y698100D02*
D03*
X714600D02*
D03*
X765400Y621900D02*
D03*
Y698100D02*
D03*
X922100Y189400D02*
D03*
Y265600D02*
D03*
X972900Y189400D02*
D03*
X947500D02*
D03*
Y265600D02*
D03*
X972900D02*
D03*
X215400Y695600D02*
D03*
Y619400D02*
D03*
X164600Y695600D02*
D03*
X190000D02*
D03*
Y619400D02*
D03*
X164600D02*
D03*
X827100Y621900D02*
D03*
X852500D02*
D03*
Y698100D02*
D03*
X827100D02*
D03*
X877900Y621900D02*
D03*
Y698100D02*
D03*
X489600Y184400D02*
D03*
Y260600D02*
D03*
X540400Y184400D02*
D03*
X515000D02*
D03*
Y260600D02*
D03*
X540400D02*
D03*
X272100Y616900D02*
D03*
X297500D02*
D03*
Y693100D02*
D03*
X272100D02*
D03*
X322900Y616900D02*
D03*
Y693100D02*
D03*
X985400D02*
D03*
Y616900D02*
D03*
X934600Y693100D02*
D03*
X960000D02*
D03*
Y616900D02*
D03*
X934600D02*
D03*
D26*
X115600Y607100D02*
D03*
X39400D02*
D03*
X115600Y657900D02*
D03*
Y632500D02*
D03*
X39400D02*
D03*
Y657900D02*
D03*
D27*
X378000Y725000D02*
D03*
X397000D02*
D03*
X659500Y157500D02*
D03*
X640500D02*
D03*
X767000D02*
D03*
X748000D02*
D03*
X488000Y725000D02*
D03*
X507000D02*
D03*
X212000Y152500D02*
D03*
X193000D02*
D03*
X882000Y155000D02*
D03*
X863000D02*
D03*
X595000Y725000D02*
D03*
X614000D02*
D03*
X324500Y152500D02*
D03*
X305500D02*
D03*
X705500Y727500D02*
D03*
X724500D02*
D03*
X989500Y157500D02*
D03*
X970500D02*
D03*
X437000Y155000D02*
D03*
X418000D02*
D03*
X158000Y725000D02*
D03*
X177000D02*
D03*
X821000Y727500D02*
D03*
X840000D02*
D03*
X549500Y155000D02*
D03*
X530500D02*
D03*
X270000Y722500D02*
D03*
X289000D02*
D03*
X928000Y725000D02*
D03*
X947000D02*
D03*
X70500Y105000D02*
D03*
X89500D02*
D03*
X144500Y395000D02*
D03*
X125500D02*
D03*
D28*
X67500Y780500D02*
D03*
X117500D02*
D03*
Y689500D02*
D03*
X67500D02*
D03*
D29*
X352500Y483000D02*
D03*
Y462000D02*
D03*
D30*
X53400Y107500D02*
D03*
X21600D02*
D03*
D31*
X77450Y479500D02*
D03*
Y470000D02*
D03*
Y460500D02*
D03*
X52550D02*
D03*
Y470000D02*
D03*
Y479500D02*
D03*
D32*
X60000Y524500D02*
D03*
Y505500D02*
D03*
X50000Y425500D02*
D03*
Y444500D02*
D03*
X210000Y453000D02*
D03*
Y472000D02*
D03*
D33*
X89750Y539000D02*
D03*
X170250D02*
D03*
D34*
X130000Y445000D02*
D03*
X180000D02*
D03*
D35*
X306250Y465000D02*
D03*
D36*
X243750Y442000D02*
D03*
Y465000D02*
D03*
Y488000D02*
D03*
D37*
X212000Y497500D02*
D03*
X193000D02*
D03*
X105500Y105000D02*
D03*
X124500D02*
D03*
X125500Y372500D02*
D03*
X144500D02*
D03*
D38*
X75000Y334000D02*
D03*
X105000D02*
D03*
X75000Y406000D02*
D03*
X105000D02*
D03*
D39*
X935000Y50000D02*
Y105000D01*
X940000Y110000D01*
X1025000Y57500D02*
Y567500D01*
X998656Y576744D02*
X1001057Y574343D01*
X1018157D01*
X1025000Y567500D01*
X992500Y25000D02*
X1025000Y57500D01*
X90000Y25000D02*
X992500D01*
X65000Y50000D02*
X90000Y25000D01*
X32500Y417500D02*
Y436642D01*
X49500Y444000D02*
X50000Y444500D01*
X39858Y444000D02*
X49500D01*
X32500Y436642D02*
X39858Y444000D01*
X32500Y417500D02*
X52500Y397500D01*
X226000Y790948D02*
X265052Y830000D01*
X226000Y770000D02*
Y790948D01*
X830000Y109000D02*
X840000Y99000D01*
Y50000D02*
Y99000D01*
X720000Y75000D02*
X745000Y50000D01*
X720000Y75000D02*
Y109000D01*
X610000Y90000D02*
X650000Y50000D01*
X610000Y90000D02*
Y109000D01*
X504550Y100450D02*
X555000Y50000D01*
X504550Y100450D02*
Y104450D01*
X500000Y109000D02*
X504550Y104450D01*
X394550Y87950D02*
X432500Y50000D01*
X390000Y109000D02*
X394550Y104450D01*
Y87950D02*
Y104450D01*
X432500Y50000D02*
X460000D01*
X280000Y109000D02*
X339000Y50000D01*
X365000D01*
D74*
X380526Y393026D02*
X392500Y405000D01*
X407719D02*
X415000Y397719D01*
X392500Y405000D02*
X407719D01*
X233895Y393026D02*
X380526D01*
X423650Y372500D02*
X433000Y363150D01*
X395000Y372500D02*
X423650D01*
X459551Y377500D02*
X460406Y376645D01*
X430000Y377500D02*
X459551D01*
X460406Y376645D02*
X489145D01*
X798700Y508700D02*
X888700D01*
X896450Y516450D02*
X924100D01*
X888700Y508700D02*
X896450Y516450D01*
X987500Y287900D02*
X1000000Y275400D01*
X239824Y453857D02*
X241281Y452400D01*
X262600D01*
X292793Y514707D02*
Y525457D01*
X292000Y526250D02*
X292793Y525457D01*
Y514707D02*
X298550Y508950D01*
X407500Y495000D02*
X415000D01*
X405238Y508950D02*
X409188Y505000D01*
X298550Y508950D02*
X405238D01*
X409188Y505000D02*
X410000D01*
X228100Y502500D02*
X400000D01*
X209150Y521450D02*
X228100Y502500D01*
X400000D02*
X407500Y495000D01*
X199900Y521450D02*
X209150D01*
X401050Y513950D02*
X443850D01*
X396050Y518950D02*
X401050Y513950D01*
X394900Y518950D02*
X396050D01*
X445900Y516000D02*
Y530900D01*
X597500Y455000D02*
X604256Y461757D01*
X654114D01*
X569033Y473467D02*
X594000Y448500D01*
X624737D01*
X513467Y473467D02*
X569033D01*
X591500Y443500D02*
X626808D01*
X566533Y468467D02*
X591500Y443500D01*
X523467Y468467D02*
X566533D01*
X528467Y463467D02*
X561533D01*
X593411Y431589D01*
X626718D01*
X555000Y425000D02*
X595000Y385000D01*
X555000Y425000D02*
Y455000D01*
X565000Y425000D02*
Y445000D01*
X575000Y425000D02*
Y437500D01*
Y425000D02*
X600000Y400000D01*
X165000Y222500D02*
X660000D01*
X122500Y180000D02*
X165000Y222500D01*
X155000Y227500D02*
X657929D01*
X122500Y195000D02*
X155000Y227500D01*
X150000Y232500D02*
X655858D01*
X122500Y210000D02*
X127500D01*
X150000Y232500D01*
X595000Y385000D02*
X692500D01*
X702500Y375000D01*
Y298050D02*
Y375000D01*
X692500Y400000D02*
X712500Y380000D01*
Y292500D02*
Y380000D01*
X697500Y277500D02*
X712500Y292500D01*
X697500Y260000D02*
Y277500D01*
X660000Y222500D02*
X697500Y260000D01*
X692500Y280979D02*
X707500Y295979D01*
X692500Y262071D02*
Y280979D01*
X657929Y227500D02*
X692500Y262071D01*
X687500Y283050D02*
X702500Y298050D01*
X687500Y264142D02*
Y283050D01*
X707500Y295979D02*
Y377500D01*
X655858Y232500D02*
X687500Y264142D01*
X735000Y450000D02*
X780000Y405000D01*
X626237Y450000D02*
X735000D01*
X624737Y448500D02*
X626237Y450000D01*
X780000Y405000D02*
X922500D01*
X480000Y487500D02*
X525000D01*
X467728Y499772D02*
X480000Y487500D01*
X467728Y499772D02*
Y519772D01*
X475574Y503426D02*
X484000Y495000D01*
X530000D01*
X475574Y503426D02*
Y509426D01*
X475000Y510000D02*
X475574Y509426D01*
X530000Y495000D02*
X537500Y487500D01*
X445900Y530900D02*
X452386Y537386D01*
Y537614D01*
X498850Y505000D02*
X530000D01*
X552500Y482500D01*
X482000Y521850D02*
X498850Y505000D01*
X703950Y518950D02*
X704100D01*
X680000Y495000D02*
X703950Y518950D01*
X567500Y495000D02*
X680000D01*
X707000Y521850D02*
Y526250D01*
X704100Y518950D02*
X707000Y521850D01*
X752500Y482500D02*
X796250Y526250D01*
X583312Y475000D02*
X590812Y482500D01*
X752500D01*
X595000Y473557D02*
X763557D01*
X582500Y475000D02*
X583312D01*
X626808Y443500D02*
X627308Y444000D01*
X600000Y400000D02*
X692500D01*
X597500Y392500D02*
X692500D01*
X565000Y425000D02*
X597500Y392500D01*
X763557Y473557D02*
X798700Y508700D01*
X617500Y417500D02*
X647301D01*
X654891Y425089D01*
X607500Y410000D02*
X646872D01*
X654373Y417500D01*
X690000D01*
X654891Y425089D02*
X694911D01*
X627308Y444000D02*
X723500D01*
X770000Y397500D01*
X690000Y417500D02*
X727500Y380000D01*
X694911Y425089D02*
X725000Y395000D01*
X702650Y431000D02*
X773000Y360650D01*
X627308Y431000D02*
X702650D01*
X692500Y392500D02*
X707500Y377500D01*
X510000Y467500D02*
X510574Y468074D01*
Y470574D01*
X513467Y473467D01*
X512500Y457500D02*
X523467Y468467D01*
X515000Y450000D02*
X528467Y463467D01*
X507500Y457500D02*
X512500D01*
X495000Y450000D02*
X515000D01*
X530000Y440000D02*
X591000Y379000D01*
X658343D01*
X487500Y440000D02*
X530000D01*
X557500Y375000D02*
X562500Y370000D01*
X627500D01*
X660100Y359150D02*
Y377243D01*
X658343Y379000D02*
X660100Y377243D01*
Y359150D02*
X663000Y356250D01*
X562500Y490000D02*
X567500Y495000D01*
X592000Y522900D02*
Y526250D01*
X589100Y520000D02*
X592000Y522900D01*
X580000Y520000D02*
X589100D01*
X562500Y502500D02*
X580000Y520000D01*
X626718Y431589D02*
X627308Y431000D01*
X545000Y337500D02*
X600000D01*
X630000Y437500D02*
X717500D01*
X767500Y387500D01*
X807500D01*
X770000Y397500D02*
X828650D01*
X269240Y428644D02*
Y445761D01*
X262600Y452400D02*
X269240Y445761D01*
X532500Y350000D02*
X537600Y344900D01*
X532500Y355000D02*
X532500Y355000D01*
X537600Y344900D02*
Y344900D01*
X532500Y350000D02*
Y355000D01*
X527500Y377500D02*
X532500Y372500D01*
Y355000D02*
Y372500D01*
X537600Y344900D02*
X545000Y337500D01*
X482000Y521850D02*
Y526250D01*
X392000Y521850D02*
X394900Y518950D01*
X392000Y521850D02*
Y526250D01*
X387500Y385000D02*
X397500Y395000D01*
X367500Y385000D02*
X387500D01*
X341250Y358750D02*
X367500Y385000D01*
X390000Y377500D02*
X395000Y372500D01*
X318000Y358750D02*
X341250D01*
X828650Y397500D02*
X862600Y363550D01*
X807500Y387500D02*
X820000Y375000D01*
X480812Y430000D02*
X482736Y428076D01*
X499424D02*
X545500Y382000D01*
X480000Y430000D02*
X480812D01*
X482736Y428076D02*
X499424D01*
X545500Y358750D02*
Y382000D01*
X773000Y356250D02*
Y360650D01*
X862600Y363550D02*
X862600D01*
X865500Y360650D01*
X922500Y405000D02*
X955500Y372000D01*
Y356250D02*
Y372000D01*
X980000Y368263D02*
X987500Y360763D01*
X980000Y368263D02*
Y368263D01*
X987500Y287900D02*
Y360763D01*
X905763Y442500D02*
X980000Y368263D01*
X842312Y411000D02*
X898000D01*
X909500Y422500D01*
X840812Y412500D02*
X842312Y411000D01*
X840000Y412500D02*
X840812D01*
X796250Y526250D02*
X819500D01*
X489145Y376645D02*
X510000Y397500D01*
X780000Y442500D02*
X905763D01*
X846200Y451300D02*
X871550D01*
X884800Y464800D02*
X887500D01*
X873600Y453600D02*
X884800Y464800D01*
X873600Y453350D02*
Y453600D01*
X871550Y451300D02*
X873600Y453350D01*
X845000Y452500D02*
X846200Y451300D01*
X847500Y482500D02*
Y493863D01*
X857337Y503700D01*
X876000D01*
X887500Y490200D02*
Y492200D01*
X876000Y503700D02*
X887500Y492200D01*
X415000Y397500D02*
Y397719D01*
X142500Y592924D02*
X165395Y570029D01*
X142500Y592924D02*
Y605500D01*
X924100Y516450D02*
X927000Y519350D01*
Y523750D01*
X443850Y513950D02*
X445900Y516000D01*
X197000Y524350D02*
Y528750D01*
Y524350D02*
X199900Y521450D01*
X865500Y356250D02*
Y360650D01*
X433000Y358750D02*
Y363150D01*
X225500Y356250D02*
Y369500D01*
X220000Y375000D02*
X225500Y369500D01*
D75*
X971700Y574965D02*
Y601200D01*
X970881Y567519D02*
X973000Y565400D01*
X970881Y574146D02*
X971700Y574965D01*
X970881Y567519D02*
Y574146D01*
X960000Y612900D02*
X971700Y601200D01*
X973000Y523750D02*
Y565400D01*
X352500Y462000D02*
X372000D01*
X29500Y680500D02*
X32900Y677100D01*
Y662400D02*
X34900Y660400D01*
X32900Y662400D02*
Y677100D01*
X27500Y680500D02*
X29500D01*
X34900Y660400D02*
X36900D01*
X963376Y112124D02*
X965500Y110000D01*
X963376Y112124D02*
Y119360D01*
X962500Y120236D02*
X963376Y119360D01*
X965500Y157500D02*
X970500D01*
X962500D02*
X965500D01*
X962500Y120236D02*
Y157500D01*
X977400Y180100D02*
X989500Y168000D01*
Y157500D02*
Y168000D01*
X977400Y180100D02*
Y184900D01*
X972900Y189400D02*
X977400Y184900D01*
X926600Y190256D02*
Y206600D01*
X930000Y210000D01*
X925000Y188656D02*
X926600Y190256D01*
X914300Y351450D02*
X954200Y311550D01*
X909500Y351850D02*
X909900Y351450D01*
X909500Y351850D02*
Y356250D01*
X909900Y351450D02*
X914300D01*
X954200Y282465D02*
Y311550D01*
X952500Y280765D02*
X954200Y282465D01*
X952500Y264020D02*
Y280765D01*
X975000Y267700D02*
Y293000D01*
X977000D01*
X972900Y265600D02*
X975000Y267700D01*
X977000Y293000D02*
X977500Y293500D01*
X879500Y157500D02*
X881500D01*
X870000Y167000D02*
X879500Y157500D01*
X865400Y182900D02*
X870000Y178300D01*
X881500Y155500D02*
X882000Y155000D01*
X881500Y155500D02*
Y157500D01*
X870000Y167000D02*
Y178300D01*
X905100Y169900D02*
X912933Y162068D01*
X905100Y169900D02*
Y195760D01*
X895100Y205760D02*
X905100Y195760D01*
X921800Y162068D02*
X922500Y161367D01*
X912933Y162068D02*
X921800D01*
X922500Y157500D02*
Y161367D01*
X891500Y162040D02*
Y182640D01*
Y162040D02*
X934450Y119090D01*
X890000Y184140D02*
X891500Y182640D01*
X889058Y211802D02*
X890958D01*
X895100Y207660D01*
Y205760D02*
Y207660D01*
X42000Y577400D02*
X44496Y575000D01*
X134250D01*
X40000Y575400D02*
X42000Y577400D01*
X62500Y525000D02*
X76500D01*
X76500Y525000D01*
X80500D01*
X89750Y534250D01*
Y539000D01*
X72500Y225500D02*
X112500D01*
X70000D02*
X72500D01*
X117500Y225500D02*
X127393D01*
X229824Y449715D02*
Y451526D01*
Y449715D02*
X237139Y442400D01*
X225000Y456350D02*
X229824Y451526D01*
X220814Y471500D02*
X225000Y467314D01*
X210000Y472000D02*
X210500Y471500D01*
X220814D01*
X225000Y456350D02*
Y467314D01*
X237139Y442400D02*
X238950D01*
X239350Y442000D01*
X170000Y472000D02*
X210000D01*
X270000Y287500D02*
X281600Y275900D01*
X270000Y287500D02*
Y304235D01*
X275000Y309235D01*
X272400Y351864D02*
Y358350D01*
X275000Y309235D02*
Y349264D01*
X272000Y358750D02*
X272400Y358350D01*
Y351864D02*
X275000Y349264D01*
X250500Y317500D02*
X265000D01*
X457500Y530000D02*
X468550Y541050D01*
X491050D01*
X415000Y467500D02*
X457500Y510000D01*
Y530000D01*
X412500Y467500D02*
X422500Y457500D01*
X412500Y467500D02*
X415000D01*
X385000Y495000D02*
X412500Y467500D01*
X685500Y314000D02*
X695000D01*
X599600Y185000D02*
Y210000D01*
X715000Y189800D02*
Y212500D01*
X267500Y184800D02*
Y210000D01*
X159600Y179400D02*
Y203993D01*
X159835Y204228D01*
X685000Y314500D02*
X685500Y314000D01*
X617000Y283765D02*
Y356250D01*
Y283765D02*
X620500Y280265D01*
X112500Y225500D02*
X117500D01*
X127393D02*
X145100Y243207D01*
Y350100D01*
X377100Y209600D02*
X377500Y210000D01*
X377100Y184400D02*
Y209600D01*
X489600Y184400D02*
Y209600D01*
X490000Y210000D01*
X145100Y350100D02*
X185000Y390000D01*
X223850Y426500D02*
X239350Y442000D01*
X185000Y390000D02*
X202500D01*
X222500D01*
X110000Y167500D02*
Y223000D01*
X727000Y277600D02*
X737500Y267100D01*
X727000Y277600D02*
Y356250D01*
X585000Y290000D02*
Y294500D01*
X620500Y265700D02*
Y280265D01*
Y265700D02*
X625000Y261200D01*
X280000Y495000D02*
X352500D01*
Y483000D02*
Y495000D01*
X385000D01*
X437600Y526650D02*
Y537400D01*
X393300Y570842D02*
X399142Y565000D01*
X410000D01*
X437600Y526650D02*
X438000Y526250D01*
X410000Y565000D02*
X437600Y537400D01*
X437000Y553000D02*
X460000D01*
X393300Y570842D02*
Y603700D01*
X460000Y553000D02*
X478000D01*
X435000Y555000D02*
X437000Y553000D01*
X152000Y402500D02*
X262728D01*
X279240Y419012D01*
X147000Y397500D02*
X152000Y402500D01*
X250000Y317000D02*
Y362500D01*
X222500Y390000D02*
X250000Y362500D01*
X279240Y419012D02*
Y455760D01*
X265314Y469686D02*
X279240Y455760D01*
X265314Y469686D02*
Y480314D01*
Y465000D02*
Y469686D01*
X99828Y157328D02*
X110000Y167500D01*
X99828Y151100D02*
Y157328D01*
X499500Y286265D02*
X504100Y281665D01*
Y275500D02*
Y281665D01*
Y275500D02*
X515000Y264600D01*
X499500Y286265D02*
Y358750D01*
X515000Y260600D02*
Y264600D01*
X387000Y280500D02*
X391600Y275900D01*
X387000Y280500D02*
Y358750D01*
X322500Y317500D02*
X337500D01*
X364649Y317000D02*
X369252Y321603D01*
X317500Y322500D02*
X322500Y317500D01*
X340000Y317000D02*
X364649D01*
X322400Y269100D02*
Y273686D01*
X322500Y273786D01*
X317900Y264600D02*
X322400Y269100D01*
X327186Y298000D02*
X340000D01*
X322500Y273786D02*
Y293314D01*
X327186Y298000D01*
X281600Y274735D02*
Y275900D01*
Y274735D02*
X287235Y269100D01*
X288000D02*
X292500Y264600D01*
Y260600D02*
Y264600D01*
X287235Y269100D02*
X288000D01*
X100000Y505000D02*
X112500Y492500D01*
X157500D01*
X134250Y575000D02*
X156250Y553000D01*
X144500Y395000D02*
X145000Y395500D01*
Y397500D01*
X147000D01*
X422500Y407500D02*
X443355Y386645D01*
X422500Y407500D02*
Y457500D01*
X179500Y265100D02*
Y353750D01*
Y265100D02*
X185000Y259600D01*
X227500Y484050D02*
Y495000D01*
X101358Y622343D02*
X101443D01*
X97100Y617100D02*
Y618085D01*
X90000Y610000D02*
X97100Y617100D01*
X111600Y632500D02*
X115600D01*
X101443Y622343D02*
X111600Y632500D01*
X97100Y618085D02*
X101358Y622343D01*
X265314Y480314D02*
X280000Y495000D01*
X491050Y541050D02*
X500000Y550000D01*
X612500Y557500D02*
Y558000D01*
X608000Y553000D02*
X612500Y557500D01*
X570000Y553000D02*
X608000D01*
X235000Y567500D02*
X242500Y575000D01*
Y613000D01*
X963000Y325000D02*
X975500Y312500D01*
X960000Y325000D02*
X963000D01*
X975500Y312500D02*
X977500D01*
X909500Y314500D02*
X915000Y320000D01*
X887500Y314500D02*
X909500D01*
X860057D02*
X887500D01*
X859259Y315298D02*
X860057Y314500D01*
X797500D02*
Y327500D01*
X795000Y312000D02*
X797500Y314500D01*
X819500Y299015D02*
Y356250D01*
X800100Y279615D02*
X819500Y299015D01*
X773000Y312000D02*
X795000D01*
X767500Y317500D02*
X773000Y312000D01*
X567500Y312000D02*
X585000Y294500D01*
X550753Y297253D02*
X565500Y312000D01*
X547820Y297253D02*
X550753D01*
X565500Y312000D02*
X567500D01*
X475000Y320000D02*
X485000Y310000D01*
X455000Y320000D02*
X475000D01*
X432500D02*
X455000D01*
X430000Y322500D02*
X432500Y320000D01*
X250000Y317000D02*
X250500Y317500D01*
X124500Y105000D02*
Y107000D01*
X100050Y131450D02*
X124500Y107000D01*
X100050Y131450D02*
Y144250D01*
X478000Y553000D02*
X482500Y557500D01*
X544424Y564984D02*
X556408Y553000D01*
X570000D01*
X650000Y557500D02*
X684500D01*
X685000Y558000D01*
X685500Y557500D01*
X732500D01*
X767500Y555000D02*
X768000Y555500D01*
X792500D01*
X843000D01*
X845000Y557500D01*
X880000D02*
X882000Y555500D01*
X902500D01*
X526700Y556700D02*
Y601200D01*
Y556700D02*
X528000Y555400D01*
X515000Y612900D02*
X526700Y601200D01*
X528000Y526250D02*
Y555400D01*
X395500Y550500D02*
X397500Y552500D01*
X365000Y550500D02*
X395500D01*
X339500D02*
X365000D01*
X335000Y555000D02*
X339500Y550500D01*
X297507Y548000D02*
X298967Y549461D01*
X267500Y548000D02*
X297507D01*
X267000Y548500D02*
X267500Y548000D01*
X256500Y548500D02*
X267000D01*
X237500Y567500D02*
X256500Y548500D01*
X235000Y567500D02*
X237500D01*
X170250Y539000D02*
Y543750D01*
X179500Y553000D01*
X184250D01*
X188219Y556969D01*
X201650D01*
X165000Y472000D02*
X170000D01*
X170250Y472250D02*
Y539000D01*
X170000Y472000D02*
X170250Y472250D01*
X239350Y442000D02*
X243750D01*
X952550Y157500D02*
X962500D01*
X853825Y155000D02*
X863000D01*
X844650D02*
X853825D01*
X855500Y153325D01*
Y109000D02*
Y153325D01*
X747500Y111000D02*
Y157000D01*
X748000Y157500D01*
X745500Y109000D02*
X747500Y111000D01*
X732150Y157500D02*
X748000D01*
X635500Y109000D02*
Y112004D01*
X640500Y117004D02*
Y157500D01*
X635500Y112004D02*
X640500Y117004D01*
X624650Y157500D02*
X640500D01*
X522575Y155000D02*
X530500D01*
X514650D02*
X522575D01*
X525500Y152075D01*
Y109000D02*
Y152075D01*
X415500Y109000D02*
X417500Y111000D01*
Y154500D02*
X418000Y155000D01*
X417500Y111000D02*
Y154500D01*
X399650Y155000D02*
X418000D01*
X305500Y109000D02*
Y152500D01*
X289650D02*
X305500D01*
X185000Y851550D02*
X190000D01*
X209254Y832296D01*
X227704D01*
X230000Y830000D01*
X170000Y110000D02*
X230000Y50000D01*
X270000D01*
X996000Y770000D02*
Y804052D01*
X970052Y830000D02*
X996000Y804052D01*
X865052Y830000D02*
X886000Y809052D01*
Y770000D02*
Y809052D01*
X765052Y830000D02*
X776000Y819052D01*
Y770000D02*
Y819052D01*
X665052Y830000D02*
X665526Y829526D01*
Y770474D02*
X666000Y770000D01*
X665526Y770474D02*
Y829526D01*
X556000Y770000D02*
Y820948D01*
X565052Y830000D01*
X446000Y810948D02*
X465052Y830000D01*
X446000Y770000D02*
Y810948D01*
X336000Y770000D02*
X365052Y799052D01*
Y830000D01*
X225475Y482025D02*
X238950Y468550D01*
X212000Y495500D02*
X225475Y482025D01*
X227500Y484050D01*
X238950Y465400D02*
X239350Y465000D01*
X212000Y495500D02*
Y497500D01*
X238950Y465400D02*
Y468550D01*
X239350Y465000D02*
X243750D01*
X265314D01*
X125314Y425500D02*
X130000Y430186D01*
X100000Y425500D02*
X125314D01*
X130000Y430186D02*
Y445000D01*
X138000D02*
X165000Y472000D01*
X130000Y445000D02*
X138000D01*
X161000Y553000D02*
X170250Y543750D01*
X156250Y553000D02*
X161000D01*
X112000Y225000D02*
X112000D01*
X110000Y223000D02*
X112000Y225000D01*
X112000D02*
X112500Y225500D01*
X112500Y225500D02*
X112500Y225500D01*
X28000Y64500D02*
X30000D01*
X21600Y70900D02*
Y107500D01*
Y70900D02*
X28000Y64500D01*
X712100Y186900D02*
X715000Y189800D01*
X817500D02*
Y212500D01*
X814600Y186900D02*
X817500Y189800D01*
X934450Y115550D02*
X940000Y110000D01*
X934450Y115550D02*
Y119090D01*
X865400Y182900D02*
Y186900D01*
X824450Y114550D02*
Y116590D01*
X790000Y149140D02*
X791900D01*
X824450Y116590D01*
Y114550D02*
X830000Y109000D01*
X813900Y159850D02*
X814600Y159150D01*
X790000Y175860D02*
X791900D01*
X814600Y155000D02*
Y159150D01*
X807910Y159850D02*
X813900D01*
X791900Y175860D02*
X807910Y159850D01*
X766500Y158000D02*
Y183300D01*
X762900Y186900D02*
X766500Y183300D01*
Y158000D02*
X767000Y157500D01*
X714450Y114550D02*
X720000Y109000D01*
X680000Y149140D02*
X681900D01*
X714450Y116590D01*
Y114550D02*
Y116590D01*
X691090Y172660D02*
X702100Y161650D01*
X680000Y175860D02*
X683200Y172660D01*
X702100Y157500D02*
Y161650D01*
X683200Y172660D02*
X691090D01*
X650400Y181000D02*
X659500Y171900D01*
Y157500D02*
Y171900D01*
X650400Y181000D02*
Y185000D01*
X576900Y149140D02*
X604450Y121590D01*
X575000Y149140D02*
X576900D01*
X604450Y114550D02*
Y121590D01*
Y114550D02*
X610000Y109000D01*
X576900Y175860D02*
X590410Y162350D01*
X575000Y175860D02*
X576900D01*
X594600Y157500D02*
Y161650D01*
X593900Y162350D02*
X594600Y161650D01*
X590410Y162350D02*
X593900D01*
X540400Y180400D02*
Y184400D01*
X549500Y155000D02*
Y171300D01*
X540400Y180400D02*
X549500Y171300D01*
X468590Y175160D02*
X484600Y159150D01*
Y155000D02*
Y159150D01*
X463200Y175160D02*
X468590D01*
X460000Y178360D02*
X463200Y175160D01*
X494450Y114550D02*
X500000Y109000D01*
X460000Y151640D02*
X461900D01*
X494450Y119090D01*
Y114550D02*
Y119090D01*
X437000Y155000D02*
Y171300D01*
X427900Y180400D02*
X437000Y171300D01*
X427900Y180400D02*
Y184400D01*
X349400Y175860D02*
X365410Y159850D01*
X368900D02*
X369600Y159150D01*
Y155000D02*
Y159150D01*
X347500Y175860D02*
X349400D01*
X365410Y159850D02*
X368900D01*
X383990Y114550D02*
X384450D01*
X390000Y109000D01*
X347500Y149140D02*
X349400D01*
X383990Y114550D01*
X317900Y159900D02*
X322800Y155000D01*
X324000D02*
X324500Y154500D01*
X317900Y159900D02*
Y184400D01*
X322800Y155000D02*
X324000D01*
X324500Y152500D02*
Y154500D01*
X267100Y184400D02*
X267500Y184800D01*
X258450Y109050D02*
X279950D01*
X235000Y132500D02*
X258450Y109050D01*
X279950D02*
X280000Y109000D01*
X235000Y132500D02*
Y151640D01*
X257910Y157350D02*
X258900D01*
X259600Y156650D01*
X235000Y178360D02*
X236900D01*
X257910Y157350D01*
X259600Y152500D02*
Y156650D01*
X247500Y296700D02*
Y297500D01*
X248000Y298000D01*
X250000D01*
X210400Y255600D02*
Y259600D01*
X247500Y296700D01*
X317900Y260600D02*
Y264600D01*
X452500Y289200D02*
Y300500D01*
X453000Y301000D02*
X455000D01*
X427900Y260600D02*
Y264600D01*
X452500Y289200D01*
Y300500D02*
X453000Y301000D01*
X565000Y289200D02*
Y292500D01*
X565500Y293000D01*
X567500D01*
X540400Y260600D02*
Y264600D01*
X565000Y289200D01*
X650400Y261200D02*
Y265200D01*
X680200Y295000D01*
X684500D01*
X685000Y295500D01*
X885000Y286700D02*
Y295000D01*
X885500Y295500D01*
X865400Y263100D02*
Y267100D01*
X885000Y286700D01*
X885500Y295500D02*
X887500D01*
X762900Y267100D02*
X788300Y292500D01*
X794500D01*
X795000Y293000D01*
X762900Y263100D02*
Y267100D01*
X800100Y248115D02*
X803615Y244600D01*
X825585D01*
X829843Y248858D01*
Y248943D01*
X800100Y248115D02*
Y279615D01*
X829843Y248943D02*
X840000Y259100D01*
Y263100D01*
X737500D02*
Y267100D01*
X391600Y275500D02*
X402500Y264600D01*
X391600Y275500D02*
Y275900D01*
X402500Y260600D02*
Y264600D01*
X185000Y255600D02*
Y259600D01*
X210400Y179400D02*
X211500Y178300D01*
Y153000D02*
X212000Y152500D01*
X211500Y153000D02*
Y178300D01*
X193500Y112000D02*
X195500Y110000D01*
X193000Y152500D02*
X193500Y152000D01*
Y112000D02*
Y152000D01*
X177150Y152500D02*
X193000D01*
X129400Y136640D02*
X150490Y115550D01*
X164450D01*
X170000Y110000D01*
X127500Y136640D02*
X129400D01*
X130700Y160160D02*
X143590D01*
X147100Y152500D02*
Y156650D01*
X127500Y163360D02*
X130700Y160160D01*
X143590D02*
X147100Y156650D01*
X230314Y642500D02*
X235000Y637814D01*
Y637500D02*
X240500Y632000D01*
X183615Y642500D02*
X230314D01*
X235000Y637500D02*
Y637814D01*
X243000Y528750D02*
Y545314D01*
X228265Y550000D02*
X238314D01*
X243000Y545314D01*
X190000Y588265D02*
Y619400D01*
Y588265D02*
X228265Y550000D01*
X240500Y632000D02*
X242500D01*
X164600Y623400D02*
X174757Y633557D01*
Y633642D01*
X183615Y642500D01*
X164600Y619400D02*
Y623400D01*
X267500Y608300D02*
X272100Y612900D01*
Y616900D01*
X267500Y567000D02*
Y608300D01*
X316150Y552500D02*
X338000Y530650D01*
Y526250D02*
Y530650D01*
X315000Y552500D02*
X316150D01*
X293300Y574200D02*
X315000Y552500D01*
X293300Y612700D02*
X297500Y616900D01*
X293300Y574200D02*
Y612700D01*
X393300Y603700D02*
X405000Y615400D01*
Y619400D01*
X365000Y600800D02*
X379600Y615400D01*
X365000Y569500D02*
Y600800D01*
X379600Y615400D02*
Y619400D01*
X460000Y587300D02*
X481100Y608400D01*
X485100D02*
X489600Y612900D01*
X460000Y572000D02*
Y587300D01*
X481100Y608400D02*
X485100D01*
X489600Y612900D02*
Y616900D01*
X515000Y612900D02*
Y616900D01*
X592400Y610900D02*
X595100D01*
X599600Y615400D01*
X570000Y572000D02*
Y588500D01*
X592400Y610900D01*
X599600Y615400D02*
Y619400D01*
X638000Y526250D02*
Y552900D01*
X636700Y554200D02*
X638000Y552900D01*
X625000Y615400D02*
X636700Y603700D01*
X625000Y615400D02*
Y619400D01*
X636700Y554200D02*
Y603700D01*
X714600Y617900D02*
Y621900D01*
X685000Y577000D02*
Y592300D01*
X706100Y613400D01*
X710100D01*
X714600Y617900D01*
X751700Y549200D02*
X753000Y547900D01*
Y526250D02*
Y547900D01*
X740000Y617900D02*
X751700Y606200D01*
X740000Y617900D02*
Y621900D01*
X751700Y549200D02*
Y606200D01*
X818600Y613400D02*
X822600D01*
X827100Y617900D02*
Y621900D01*
X792500Y574500D02*
Y587300D01*
X818600Y613400D01*
X822600D02*
X827100Y617900D01*
X864200Y574200D02*
X865500Y572900D01*
Y526250D02*
Y572900D01*
X852500Y617900D02*
X864200Y606200D01*
Y574200D02*
Y606200D01*
X852500Y617900D02*
Y621900D01*
X905000Y583300D02*
X934600Y612900D01*
X902500Y574500D02*
X904500D01*
X934600Y612900D02*
Y616900D01*
X905000Y575000D02*
Y583300D01*
X904500Y574500D02*
X905000Y575000D01*
X960000Y612900D02*
Y616900D01*
X115600Y632500D02*
X119600D01*
X142000Y625000D02*
X142500Y624500D01*
X127100Y625000D02*
X142000D01*
X119600Y632500D02*
X127100Y625000D01*
X39400Y632500D02*
X67500D01*
X92500Y657500D01*
Y680314D02*
X97186Y685000D01*
X92500Y657500D02*
Y680314D01*
X97186Y685000D02*
X113250D01*
X117500Y689250D02*
Y689500D01*
X113250Y685000D02*
X117500Y689250D01*
X57250Y700000D02*
X67500Y689750D01*
X28000Y700000D02*
X57250D01*
X27500Y699500D02*
X28000Y700000D01*
X67500Y689500D02*
Y689750D01*
X984538Y668183D02*
X985400Y669045D01*
Y693100D01*
X1006410Y707340D02*
X1009300D01*
X992900Y720850D02*
Y725000D01*
Y720850D02*
X1006410Y707340D01*
X1009300D02*
X1012500Y704140D01*
Y730860D02*
X1015000Y733360D01*
Y751000D01*
X996000Y770000D02*
X1015000Y751000D01*
X962850Y759346D02*
X970500Y766996D01*
X962850Y725000D02*
Y759346D01*
X970500Y766996D02*
Y770000D01*
X947000Y725000D02*
X962850D01*
X928000Y703700D02*
Y725000D01*
Y703700D02*
X934600Y697100D01*
Y693100D02*
Y697100D01*
X877900Y674600D02*
X880000Y672500D01*
X877900Y674600D02*
Y698100D01*
X903100Y704140D02*
X905000D01*
X886100Y721140D02*
X903100Y704140D01*
X886100Y721140D02*
Y726800D01*
X885400Y727500D02*
X886100Y726800D01*
X902500Y733360D02*
X905000Y730860D01*
X902500Y733360D02*
Y753500D01*
X886000Y770000D02*
X902500Y753500D01*
X855350Y727500D02*
Y761846D01*
X860500Y766996D01*
Y770000D01*
X840000Y727500D02*
X855350D01*
X821000Y708200D02*
X827100Y702100D01*
Y698100D02*
Y702100D01*
X821000Y708200D02*
Y727500D01*
X765400Y674354D02*
X767577Y672177D01*
X765400Y674354D02*
Y698100D01*
X773600Y722650D02*
X777090D01*
X772900Y723350D02*
Y727500D01*
X795600Y704140D02*
X797500D01*
X777090Y722650D02*
X795600Y704140D01*
X772900Y723350D02*
X773600Y722650D01*
X797500Y730860D02*
Y748500D01*
X776000Y770000D02*
X797500Y748500D01*
X742850Y727500D02*
Y759346D01*
X750500Y766996D01*
Y770000D01*
X724500Y727500D02*
X742850D01*
X705500Y711200D02*
Y727500D01*
Y711200D02*
X714600Y702100D01*
Y698100D02*
Y702100D01*
X650400Y672100D02*
Y695600D01*
Y672100D02*
X652500Y670000D01*
X642500Y740550D02*
Y768000D01*
X640500Y770000D02*
X642500Y768000D01*
X630350Y728400D02*
X642500Y740550D01*
X630350Y725000D02*
Y728400D01*
X614000Y725000D02*
X630350D01*
X664590Y720150D02*
X680600Y704140D01*
X660400Y720850D02*
Y725000D01*
X680600Y704140D02*
X682500D01*
X661100Y720150D02*
X664590D01*
X660400Y720850D02*
X661100Y720150D01*
X682500Y730860D02*
Y753500D01*
X666000Y770000D02*
X682500Y753500D01*
X595000Y704200D02*
X599600Y699600D01*
Y695600D02*
Y699600D01*
X595000Y704200D02*
Y725000D01*
X540400Y669600D02*
X542500Y667500D01*
X540400Y669600D02*
Y693100D01*
X552900Y725000D02*
X553600Y724300D01*
X570600Y701640D02*
X572500D01*
X553600Y718640D02*
X570600Y701640D01*
X553600Y718640D02*
Y724300D01*
X572500Y728360D02*
Y753500D01*
X556000Y770000D02*
X572500Y753500D01*
X530500Y766996D02*
Y770000D01*
X522850Y725000D02*
Y759346D01*
X530500Y766996D01*
X507000Y725000D02*
X522850D01*
X488500Y694200D02*
Y724500D01*
X488000Y725000D02*
X488500Y724500D01*
Y694200D02*
X489600Y693100D01*
X430400Y672100D02*
X432500Y670000D01*
X430400Y672100D02*
Y695600D01*
X446000Y770000D02*
X462500Y753500D01*
Y730860D02*
Y753500D01*
X444590Y720150D02*
X460600Y704140D01*
X443600Y720150D02*
X444590D01*
X442900Y720850D02*
Y725000D01*
X460600Y704140D02*
X462500D01*
X442900Y720850D02*
X443600Y720150D01*
X412850Y759346D02*
X420500Y766996D01*
Y770000D01*
X412850Y725000D02*
Y759346D01*
X397000Y725000D02*
X412850D01*
X378500Y696700D02*
Y724500D01*
X378000Y725000D02*
X378500Y724500D01*
Y696700D02*
X379600Y695600D01*
X322500Y667500D02*
X322900Y667900D01*
Y693100D01*
X338250Y711490D02*
X353100Y696640D01*
X338250Y711490D02*
Y721800D01*
X353100Y696640D02*
X355000D01*
X337550Y722500D02*
X338250Y721800D01*
X355000Y723360D02*
Y751000D01*
X336000Y770000D02*
X355000Y751000D01*
X308950Y723950D02*
Y768450D01*
X310500Y770000D01*
X307500Y722500D02*
X308950Y723950D01*
X289000Y722500D02*
X307500D01*
X270000D02*
X270500Y722000D01*
Y694700D02*
Y722000D01*
Y694700D02*
X272100Y693100D01*
X223600Y718640D02*
X243100Y699140D01*
X222900Y725000D02*
X223600Y724300D01*
X243100Y699140D02*
X245000D01*
X223600Y718640D02*
Y724300D01*
X245000Y725860D02*
Y751000D01*
X226000Y770000D02*
X245000Y751000D01*
X215000Y667500D02*
X215400Y667900D01*
Y695600D01*
X192850Y759346D02*
X200500Y766996D01*
X192850Y725000D02*
Y759346D01*
X200500Y766996D02*
Y770000D01*
X158000Y706200D02*
Y725000D01*
Y706200D02*
X164600Y699600D01*
Y695600D02*
Y699600D01*
X177000Y725000D02*
X192850D01*
X59650Y805950D02*
X62500D01*
X57500D02*
X59650D01*
X67500Y798100D01*
Y780500D02*
Y798100D01*
X140200Y803450D02*
X185000D01*
X117500Y780750D02*
X140200Y803450D01*
X117500Y780500D02*
Y780750D01*
X135000Y827500D02*
X159050Y851550D01*
X185000D01*
X57500Y854050D02*
X65350Y846200D01*
X81248D01*
X99948Y827500D01*
X62500Y805950D02*
X70350Y798100D01*
D76*
X59500Y525000D02*
X60000Y524500D01*
X41450Y521485D02*
X44965Y525000D01*
X41450Y474565D02*
Y521485D01*
X44965Y525000D02*
X59500D01*
X60000Y508000D02*
X62000D01*
X65000Y505000D01*
X80000Y479500D02*
Y501485D01*
X76485Y505000D02*
X80000Y501485D01*
X65000Y505000D02*
X76485D01*
X46015Y470000D02*
X52550D01*
X41450Y474565D02*
X46015Y470000D01*
X141500Y406500D02*
X152500Y417500D01*
X265000D01*
X290000Y402500D02*
X377500D01*
X402500Y427500D01*
X465000Y387500D02*
Y402500D01*
X437500Y430000D02*
X465000Y402500D01*
X138429Y406000D02*
X138929Y406500D01*
X105000Y406000D02*
X138429D01*
X138929Y406500D02*
X141500D01*
X50000Y444500D02*
Y460500D01*
X105000Y385000D02*
Y406000D01*
Y334000D02*
Y385000D01*
X125500Y383750D02*
Y395000D01*
Y372500D02*
Y383750D01*
X105000Y385000D02*
X106250Y383750D01*
X125500D01*
X30000Y45500D02*
X60500D01*
X65000Y50000D01*
X76950Y444500D02*
X100000D01*
X75000D02*
X76950D01*
X77450Y445000D02*
Y460500D01*
X76950Y444500D02*
X77450Y445000D01*
X58342Y460500D02*
X67842Y470000D01*
X77450D01*
X52550Y460500D02*
X58342D01*
X50000D02*
X52550D01*
X77450Y479500D02*
X80000D01*
D77*
X19843Y277500D02*
X37900D01*
X17500Y275157D02*
X19843Y277500D01*
X37900D02*
X40000Y275400D01*
X17500Y157500D02*
Y275157D01*
X25000Y185000D02*
Y241828D01*
X27343Y244172D02*
X34172D01*
X40000Y250000D01*
X25000Y241828D02*
X27343Y244172D01*
X73650Y145250D02*
Y157935D01*
X25000Y185000D02*
X34500Y175500D01*
X17500Y157500D02*
X34500Y140500D01*
X81000Y91500D02*
Y121000D01*
X86350Y126350D01*
Y145250D01*
X81000Y91500D02*
X90000Y82500D01*
X167552D02*
X200052Y50000D01*
X90000Y82500D02*
X167552D01*
X142500Y72500D02*
X165000Y50000D01*
X88686Y72500D02*
X142500D01*
X71000Y90186D02*
X88686Y72500D01*
X70500Y121875D02*
X73650Y125025D01*
X70500Y105000D02*
X71000Y104500D01*
X73650Y125025D02*
Y145250D01*
X71000Y90186D02*
Y104500D01*
X70500Y105000D02*
Y121875D01*
X34500Y175500D02*
X37500D01*
X34500Y140500D02*
X37500D01*
X40500D01*
X41000Y141000D01*
Y144782D01*
X56318Y160100D01*
X71485D02*
X73650Y157935D01*
X56318Y160100D02*
X71485D01*
X38000Y160000D02*
X41000D01*
X37500Y159500D02*
X38000Y160000D01*
X41000D02*
X49100Y168100D01*
X86350Y145250D02*
Y159964D01*
X49100Y168100D02*
X78214D01*
X86350Y159964D01*
X37500Y159500D02*
Y175500D01*
D78*
X67309Y176291D02*
X67500Y176100D01*
X64150Y176291D02*
X67309D01*
X60950Y179491D02*
X64150Y176291D01*
X60950Y179491D02*
Y194750D01*
X97500Y177771D02*
X98550Y178821D01*
X97500Y177500D02*
Y177771D01*
X98550Y178821D02*
Y194250D01*
X112500Y254729D02*
Y255000D01*
X114500Y244500D02*
X117500D01*
X113500Y245500D02*
Y253729D01*
Y245500D02*
X114500Y244500D01*
X112500Y254729D02*
X113500Y253729D01*
X98550Y194250D02*
X99050Y194750D01*
X80000D02*
X86350D01*
X73650D02*
X80000D01*
X94465Y245035D02*
X95000Y244500D01*
X94465Y245035D02*
Y258345D01*
X94274Y258537D02*
X94465Y258345D01*
X80000Y177500D02*
Y194750D01*
X72500Y244500D02*
Y257500D01*
D79*
X40000Y250000D02*
D03*
X1000000Y575400D02*
D03*
X40000D02*
D03*
D80*
Y275400D02*
D03*
X1000000Y550000D02*
D03*
X40000D02*
D03*
D81*
X135000Y827500D02*
D03*
X970052Y830000D02*
D03*
X465052D02*
D03*
X650000Y50000D02*
D03*
X745000D02*
D03*
X565052Y830000D02*
D03*
X270000Y50000D02*
D03*
X840000D02*
D03*
X665052Y830000D02*
D03*
X365000Y50000D02*
D03*
X765052Y830000D02*
D03*
X935000Y50000D02*
D03*
X865052Y830000D02*
D03*
X265052D02*
D03*
X460000Y50000D02*
D03*
X555000D02*
D03*
X365052Y830000D02*
D03*
X65000Y50000D02*
D03*
X165000D02*
D03*
D82*
X99948Y827500D02*
D03*
X935000Y830000D02*
D03*
X430000D02*
D03*
X685052Y50000D02*
D03*
X780052D02*
D03*
X530000Y830000D02*
D03*
X305052Y50000D02*
D03*
X875052D02*
D03*
X630000Y830000D02*
D03*
X400052Y50000D02*
D03*
X730000Y830000D02*
D03*
X970052Y50000D02*
D03*
X830000Y830000D02*
D03*
X230000D02*
D03*
X495052Y50000D02*
D03*
X590052D02*
D03*
X330000Y830000D02*
D03*
X100052Y50000D02*
D03*
X200052D02*
D03*
D83*
X395000Y770000D02*
D03*
X420500D02*
D03*
X635500Y109000D02*
D03*
X661000D02*
D03*
X771000D02*
D03*
X745500D02*
D03*
X530500Y770000D02*
D03*
X505000D02*
D03*
X221000Y110000D02*
D03*
X195500D02*
D03*
X855500Y109000D02*
D03*
X881000D02*
D03*
X615000Y770000D02*
D03*
X640500D02*
D03*
X305500Y109000D02*
D03*
X331000D02*
D03*
X725000Y770000D02*
D03*
X750500D02*
D03*
X965500Y110000D02*
D03*
X991000D02*
D03*
X441000Y109000D02*
D03*
X415500D02*
D03*
X200500Y770000D02*
D03*
X175000D02*
D03*
X835000D02*
D03*
X860500D02*
D03*
X525500Y109000D02*
D03*
X551000D02*
D03*
X285000Y770000D02*
D03*
X310500D02*
D03*
X970500D02*
D03*
X945000D02*
D03*
D84*
X446000D02*
D03*
X610000Y109000D02*
D03*
X720000D02*
D03*
X556000Y770000D02*
D03*
X170000Y110000D02*
D03*
X830000Y109000D02*
D03*
X666000Y770000D02*
D03*
X280000Y109000D02*
D03*
X776000Y770000D02*
D03*
X940000Y110000D02*
D03*
X390000Y109000D02*
D03*
X226000Y770000D02*
D03*
X886000D02*
D03*
X500000Y109000D02*
D03*
X336000Y770000D02*
D03*
X996000D02*
D03*
D85*
X1000000Y275400D02*
D03*
Y250000D02*
D03*
Y300800D02*
D03*
D86*
Y326200D02*
D03*
D87*
X909500Y422500D02*
D03*
X860500D02*
D03*
D88*
X862100Y464800D02*
D03*
D89*
X887500Y464800D02*
D03*
X912900Y464800D02*
D03*
X862100Y490200D02*
D03*
X887500Y490200D02*
D03*
X912900Y490200D02*
D03*
D90*
X430000Y377500D02*
D03*
X390000Y475000D02*
D03*
X67500Y176100D02*
D03*
X517500Y340000D02*
D03*
X239824Y453857D02*
D03*
X237500Y485000D02*
D03*
X197500Y455000D02*
D03*
X195000Y485000D02*
D03*
X415000Y495000D02*
D03*
X265000Y317500D02*
D03*
X597500Y455000D02*
D03*
X555000D02*
D03*
X565000Y445000D02*
D03*
X575000Y437500D02*
D03*
X122500Y180000D02*
D03*
Y195000D02*
D03*
Y210000D02*
D03*
X475000Y510000D02*
D03*
X452386Y537614D02*
D03*
X595000Y473557D02*
D03*
X582500Y475000D02*
D03*
X617500Y417500D02*
D03*
X607500Y410000D02*
D03*
X654114Y461757D02*
D03*
X725000Y395000D02*
D03*
X695000Y314000D02*
D03*
X599600Y210000D02*
D03*
X715000Y212500D02*
D03*
X267500Y210000D02*
D03*
X159835Y204228D02*
D03*
X97500Y177500D02*
D03*
X510000Y467500D02*
D03*
X507500Y457500D02*
D03*
X627500Y370000D02*
D03*
X562500Y490000D02*
D03*
Y502500D02*
D03*
X600000Y337500D02*
D03*
X490000Y210000D02*
D03*
X377500D02*
D03*
X223850Y426500D02*
D03*
X585000Y290000D02*
D03*
X537500Y487500D02*
D03*
X552500Y482500D02*
D03*
X495000Y450000D02*
D03*
X487500Y440000D02*
D03*
X435000Y555000D02*
D03*
X410000Y505000D02*
D03*
X233895Y393026D02*
D03*
X265000Y417500D02*
D03*
X390000Y377500D02*
D03*
X397500Y395000D02*
D03*
X290000Y402500D02*
D03*
X630000Y437500D02*
D03*
X840000Y412500D02*
D03*
X465000Y387500D02*
D03*
X510000Y397500D02*
D03*
X437500Y430000D02*
D03*
X402500Y427500D02*
D03*
X202500Y390000D02*
D03*
X527500Y377500D02*
D03*
X557500Y375000D02*
D03*
X780000Y442500D02*
D03*
X820000Y375000D02*
D03*
X727500Y380000D02*
D03*
X525000Y487500D02*
D03*
X845000Y452500D02*
D03*
X847500Y482500D02*
D03*
X443355Y386645D02*
D03*
X415000Y397500D02*
D03*
X269240Y428644D02*
D03*
X227500Y495000D02*
D03*
X157500Y492500D02*
D03*
X100000Y505000D02*
D03*
X90000Y610000D02*
D03*
X467728Y519772D02*
D03*
X480000Y430000D02*
D03*
X220000Y375000D02*
D03*
X612500Y558000D02*
D03*
X500000Y550000D02*
D03*
X422500Y457500D02*
D03*
X960000Y325000D02*
D03*
X915000Y320000D02*
D03*
X859259Y315298D02*
D03*
X797500Y327500D02*
D03*
X767500Y317500D02*
D03*
X547820Y297253D02*
D03*
X485000Y310000D02*
D03*
X430000Y322500D02*
D03*
X369252Y321603D02*
D03*
X317500Y322500D02*
D03*
X482500Y557500D02*
D03*
X544424Y564984D02*
D03*
X650000Y557500D02*
D03*
X732500D02*
D03*
X767500Y555000D02*
D03*
X845000Y557500D02*
D03*
X880000D02*
D03*
X397500Y552500D02*
D03*
X335000Y555000D02*
D03*
X298967Y549461D02*
D03*
X235000Y567500D02*
D03*
X201650Y556969D02*
D03*
X112500Y255000D02*
D03*
X52500Y397500D02*
D03*
X165395Y570029D02*
D03*
X94274Y258537D02*
D03*
X80000Y177500D02*
D03*
X72500Y257500D02*
D03*
X817500Y212500D02*
D03*
X930000Y210000D02*
D03*
X984538Y668183D02*
D03*
X880000Y672500D02*
D03*
X767577Y672177D02*
D03*
X652500Y670000D02*
D03*
X542500Y667500D02*
D03*
X432500Y670000D02*
D03*
X322500Y667500D02*
D03*
X215000D02*
D03*
M02*
