G04*
G04 #@! TF.GenerationSoftware,Altium Limited,Altium Designer,22.7.1 (60)*
G04*
G04 Layer_Color=8388736*
%FSLAX44Y44*%
%MOMM*%
G71*
G04*
G04 #@! TF.SameCoordinates,58864457-2C57-4B72-ACF9-2A768CBF14AA*
G04*
G04*
G04 #@! TF.FilePolarity,Negative*
G04*
G01*
G75*
%ADD39C,1.0000*%
G04:AMPARAMS|DCode=40|XSize=2.17mm|YSize=0.8mm|CornerRadius=0.175mm|HoleSize=0mm|Usage=FLASHONLY|Rotation=270.000|XOffset=0mm|YOffset=0mm|HoleType=Round|Shape=RoundedRectangle|*
%AMROUNDEDRECTD40*
21,1,2.1700,0.4500,0,0,270.0*
21,1,1.8200,0.8000,0,0,270.0*
1,1,0.3500,-0.2250,-0.9100*
1,1,0.3500,-0.2250,0.9100*
1,1,0.3500,0.2250,0.9100*
1,1,0.3500,0.2250,-0.9100*
%
%ADD40ROUNDEDRECTD40*%
%ADD41R,1.5000X0.9000*%
%ADD42R,1.0800X1.9600*%
%ADD43R,3.3400X1.9600*%
G04:AMPARAMS|DCode=44|XSize=1.29mm|YSize=1.97mm|CornerRadius=0.1763mm|HoleSize=0mm|Usage=FLASHONLY|Rotation=0.000|XOffset=0mm|YOffset=0mm|HoleType=Round|Shape=RoundedRectangle|*
%AMROUNDEDRECTD44*
21,1,1.2900,1.6174,0,0,0.0*
21,1,0.9374,1.9700,0,0,0.0*
1,1,0.3526,0.4687,-0.8087*
1,1,0.3526,-0.4687,-0.8087*
1,1,0.3526,-0.4687,0.8087*
1,1,0.3526,0.4687,0.8087*
%
%ADD44ROUNDEDRECTD44*%
G04:AMPARAMS|DCode=45|XSize=1.14mm|YSize=1.97mm|CornerRadius=0.1658mm|HoleSize=0mm|Usage=FLASHONLY|Rotation=0.000|XOffset=0mm|YOffset=0mm|HoleType=Round|Shape=RoundedRectangle|*
%AMROUNDEDRECTD45*
21,1,1.1400,1.6384,0,0,0.0*
21,1,0.8084,1.9700,0,0,0.0*
1,1,0.3316,0.4042,-0.8192*
1,1,0.3316,-0.4042,-0.8192*
1,1,0.3316,-0.4042,0.8192*
1,1,0.3316,0.4042,0.8192*
%
%ADD45ROUNDEDRECTD45*%
%ADD46R,3.5700X2.5700*%
%ADD47R,2.0200X1.6400*%
%ADD48R,1.9000X2.7000*%
%ADD49R,2.7000X1.9000*%
%ADD50R,0.9000X1.5000*%
%ADD51R,1.8500X1.9000*%
%ADD52R,1.4000X1.4000*%
%ADD53R,1.3800X1.3700*%
G04:AMPARAMS|DCode=54|XSize=1.32mm|YSize=0.7mm|CornerRadius=0.2mm|HoleSize=0mm|Usage=FLASHONLY|Rotation=0.000|XOffset=0mm|YOffset=0mm|HoleType=Round|Shape=RoundedRectangle|*
%AMROUNDEDRECTD54*
21,1,1.3200,0.3000,0,0,0.0*
21,1,0.9200,0.7000,0,0,0.0*
1,1,0.4000,0.4600,-0.1500*
1,1,0.4000,-0.4600,-0.1500*
1,1,0.4000,-0.4600,0.1500*
1,1,0.4000,0.4600,0.1500*
%
%ADD54ROUNDEDRECTD54*%
%ADD55R,1.5000X1.1000*%
%ADD56R,2.8500X3.8000*%
%ADD57R,3.4000X1.8000*%
%ADD58R,1.9600X3.3400*%
%ADD59R,1.9600X1.0800*%
%ADD60R,1.1000X1.5000*%
%ADD61R,1.6000X1.8000*%
%ADD62R,2.2000X1.8000*%
%ADD63O,2.2000X1.8000*%
%ADD64R,2.2000X2.2000*%
%ADD65C,2.2000*%
%ADD66C,2.1100*%
%ADD67R,2.1100X2.1100*%
%ADD68C,1.7000*%
%ADD69R,1.7000X1.7000*%
%ADD70C,1.8000*%
%ADD71R,1.8000X2.2000*%
%ADD72O,1.8000X2.2000*%
%ADD73C,0.8000*%
D39*
X230000Y50000D02*
X270000D01*
X170000Y110000D02*
X230000Y50000D01*
X340000D02*
X360000D01*
X280000Y109000D02*
X340000Y50000D01*
X395000Y87500D02*
Y105000D01*
Y87500D02*
X432500Y50000D01*
X460000D01*
X500000Y105000D02*
X555000Y50000D01*
X610000Y90000D02*
Y107500D01*
Y90000D02*
X650000Y50000D01*
X720000Y75000D02*
Y109000D01*
Y75000D02*
X745000Y50000D01*
X830000Y107500D02*
X840000Y100000D01*
X840000Y50000D01*
X935000D02*
Y107500D01*
X225000Y772500D02*
Y790000D01*
X265052Y830000D01*
X365000Y797500D02*
X365052Y830000D01*
X336000Y770000D02*
X365000Y797500D01*
X445000Y810000D02*
X465052Y830000D01*
X445000Y810000D02*
X446000Y770000D01*
X555000Y820000D02*
X565052Y830000D01*
X555000Y820000D02*
X556000Y770000D01*
X665000Y827500D02*
X666000Y770000D01*
X765052Y830000D02*
X775000Y820000D01*
X776000Y770000D01*
X865052Y830000D02*
X885000Y807500D01*
X886000Y770000D01*
X995000Y805000D02*
X996000Y770000D01*
X970052Y830000D02*
X995000Y805000D01*
D40*
X99050Y145250D02*
D03*
X86350D02*
D03*
X73650D02*
D03*
X60950D02*
D03*
Y194750D02*
D03*
X73650D02*
D03*
X86350D02*
D03*
X99050D02*
D03*
D41*
X27500Y699500D02*
D03*
Y680500D02*
D03*
X365000Y550500D02*
D03*
Y569500D02*
D03*
X685000Y314500D02*
D03*
Y295500D02*
D03*
X142500Y624500D02*
D03*
Y605500D02*
D03*
X795000Y312000D02*
D03*
Y293000D02*
D03*
X460000Y553000D02*
D03*
Y572000D02*
D03*
X250000Y317000D02*
D03*
Y298000D02*
D03*
X887500Y314500D02*
D03*
Y295500D02*
D03*
X570000Y553000D02*
D03*
Y572000D02*
D03*
X340000Y317000D02*
D03*
Y298000D02*
D03*
X685000Y558000D02*
D03*
Y577000D02*
D03*
X977500Y312500D02*
D03*
Y293500D02*
D03*
X792500Y555500D02*
D03*
Y574500D02*
D03*
X242500Y613000D02*
D03*
Y632000D02*
D03*
X455000Y320000D02*
D03*
Y301000D02*
D03*
X567500Y312000D02*
D03*
Y293000D02*
D03*
X267500Y548000D02*
D03*
Y567000D02*
D03*
X902500Y555500D02*
D03*
Y574500D02*
D03*
X375000Y482000D02*
D03*
Y463000D02*
D03*
X30000Y45500D02*
D03*
Y64500D02*
D03*
X100000Y425500D02*
D03*
Y444500D02*
D03*
X75000Y425500D02*
D03*
Y444500D02*
D03*
X37500Y194500D02*
D03*
Y175500D02*
D03*
X117500Y244500D02*
D03*
Y225500D02*
D03*
X95000Y244500D02*
D03*
Y225500D02*
D03*
X72500Y244500D02*
D03*
Y225500D02*
D03*
X37500Y140500D02*
D03*
Y159500D02*
D03*
D42*
X663000Y356250D02*
D03*
X640000D02*
D03*
X617000D02*
D03*
X438000Y526250D02*
D03*
X415000D02*
D03*
X392000D02*
D03*
X727000Y356250D02*
D03*
X750000D02*
D03*
X773000D02*
D03*
X528000Y526250D02*
D03*
X505000D02*
D03*
X482000D02*
D03*
X179500Y356250D02*
D03*
X202500D02*
D03*
X225500D02*
D03*
X819500D02*
D03*
X842500D02*
D03*
X865500D02*
D03*
X638000Y526250D02*
D03*
X615000D02*
D03*
X592000D02*
D03*
X272000Y358750D02*
D03*
X295000D02*
D03*
X318000D02*
D03*
X753000Y526250D02*
D03*
X730000D02*
D03*
X707000D02*
D03*
X909500Y356250D02*
D03*
X932500D02*
D03*
X955500D02*
D03*
X865500Y526250D02*
D03*
X842500D02*
D03*
X819500D02*
D03*
X243000Y528750D02*
D03*
X220000D02*
D03*
X197000D02*
D03*
X387000Y358750D02*
D03*
X410000D02*
D03*
X433000D02*
D03*
X499500D02*
D03*
X522500D02*
D03*
X545500D02*
D03*
X338000Y526250D02*
D03*
X315000D02*
D03*
X292000D02*
D03*
X973000Y523750D02*
D03*
X950000D02*
D03*
X927000D02*
D03*
D43*
X640000Y293750D02*
D03*
X415000Y588750D02*
D03*
X750000Y293750D02*
D03*
X505000Y588750D02*
D03*
X202500Y293750D02*
D03*
X842500D02*
D03*
X615000Y588750D02*
D03*
X295000Y296250D02*
D03*
X730000Y588750D02*
D03*
X932500Y293750D02*
D03*
X842500Y588750D02*
D03*
X220000Y591250D02*
D03*
X410000Y296250D02*
D03*
X522500D02*
D03*
X315000Y588750D02*
D03*
X950000Y586250D02*
D03*
D44*
X855350Y727500D02*
D03*
X192850Y725000D02*
D03*
X399650Y155000D02*
D03*
X514650D02*
D03*
X962850Y725000D02*
D03*
X307500Y722500D02*
D03*
X952550Y157500D02*
D03*
X742850Y727500D02*
D03*
X630350Y725000D02*
D03*
X844650Y155000D02*
D03*
X522850Y725000D02*
D03*
X732150Y157500D02*
D03*
X624650D02*
D03*
X412850Y725000D02*
D03*
X289650Y152500D02*
D03*
X177150D02*
D03*
D45*
X885400Y727500D02*
D03*
X222900Y725000D02*
D03*
X369600Y155000D02*
D03*
X484600D02*
D03*
X992900Y725000D02*
D03*
X337550Y722500D02*
D03*
X922500Y157500D02*
D03*
X772900Y727500D02*
D03*
X660400Y725000D02*
D03*
X814600Y155000D02*
D03*
X552900Y725000D02*
D03*
X702100Y157500D02*
D03*
X594600D02*
D03*
X442900Y725000D02*
D03*
X259600Y152500D02*
D03*
X147100D02*
D03*
D46*
X185000Y803450D02*
D03*
Y851550D02*
D03*
X57500Y854050D02*
D03*
Y805950D02*
D03*
D47*
X1012500Y730860D02*
D03*
Y704140D02*
D03*
X355000Y723360D02*
D03*
Y696640D02*
D03*
X460000Y151640D02*
D03*
Y178360D02*
D03*
X905000Y730860D02*
D03*
Y704140D02*
D03*
X245000Y725860D02*
D03*
Y699140D02*
D03*
X347500Y149140D02*
D03*
Y175860D02*
D03*
X890000Y184140D02*
D03*
Y210860D02*
D03*
X797500Y730860D02*
D03*
Y704140D02*
D03*
X235000Y151640D02*
D03*
Y178360D02*
D03*
X682500Y730860D02*
D03*
Y704140D02*
D03*
X790000Y149140D02*
D03*
Y175860D02*
D03*
X127500Y136640D02*
D03*
Y163360D02*
D03*
X572500Y728360D02*
D03*
Y701640D02*
D03*
X680000Y149140D02*
D03*
Y175860D02*
D03*
X575000Y149140D02*
D03*
Y175860D02*
D03*
X462500Y730860D02*
D03*
Y704140D02*
D03*
D48*
X427900Y260600D02*
D03*
X402500D02*
D03*
Y184400D02*
D03*
X427900D02*
D03*
X377100Y260600D02*
D03*
Y184400D02*
D03*
X430400Y695600D02*
D03*
Y619400D02*
D03*
X379600Y695600D02*
D03*
X405000D02*
D03*
Y619400D02*
D03*
X379600D02*
D03*
X650400Y261200D02*
D03*
X625000D02*
D03*
Y185000D02*
D03*
X650400D02*
D03*
X599600Y261200D02*
D03*
Y185000D02*
D03*
X762900Y263100D02*
D03*
X737500D02*
D03*
Y186900D02*
D03*
X762900D02*
D03*
X712100Y263100D02*
D03*
Y186900D02*
D03*
X540400Y693100D02*
D03*
Y616900D02*
D03*
X489600Y693100D02*
D03*
X515000D02*
D03*
Y616900D02*
D03*
X489600D02*
D03*
X210400Y255600D02*
D03*
X185000D02*
D03*
Y179400D02*
D03*
X210400D02*
D03*
X159600Y255600D02*
D03*
Y179400D02*
D03*
X814600Y186900D02*
D03*
Y263100D02*
D03*
X865400Y186900D02*
D03*
X840000D02*
D03*
Y263100D02*
D03*
X865400D02*
D03*
X599600Y619400D02*
D03*
X625000D02*
D03*
Y695600D02*
D03*
X599600D02*
D03*
X650400Y619400D02*
D03*
Y695600D02*
D03*
X267100Y184400D02*
D03*
Y260600D02*
D03*
X317900Y184400D02*
D03*
X292500D02*
D03*
Y260600D02*
D03*
X317900D02*
D03*
X714600Y621900D02*
D03*
X740000D02*
D03*
Y698100D02*
D03*
X714600D02*
D03*
X765400Y621900D02*
D03*
Y698100D02*
D03*
X922100Y189400D02*
D03*
Y265600D02*
D03*
X972900Y189400D02*
D03*
X947500D02*
D03*
Y265600D02*
D03*
X972900D02*
D03*
X215400Y695600D02*
D03*
Y619400D02*
D03*
X164600Y695600D02*
D03*
X190000D02*
D03*
Y619400D02*
D03*
X164600D02*
D03*
X827100Y621900D02*
D03*
X852500D02*
D03*
Y698100D02*
D03*
X827100D02*
D03*
X877900Y621900D02*
D03*
Y698100D02*
D03*
X489600Y184400D02*
D03*
Y260600D02*
D03*
X540400Y184400D02*
D03*
X515000D02*
D03*
Y260600D02*
D03*
X540400D02*
D03*
X272100Y616900D02*
D03*
X297500D02*
D03*
Y693100D02*
D03*
X272100D02*
D03*
X322900Y616900D02*
D03*
Y693100D02*
D03*
X985400D02*
D03*
Y616900D02*
D03*
X934600Y693100D02*
D03*
X960000D02*
D03*
Y616900D02*
D03*
X934600D02*
D03*
D49*
X115600Y607100D02*
D03*
X39400D02*
D03*
X115600Y657900D02*
D03*
Y632500D02*
D03*
X39400D02*
D03*
Y657900D02*
D03*
D50*
X378000Y725000D02*
D03*
X397000D02*
D03*
X659500Y157500D02*
D03*
X640500D02*
D03*
X767000D02*
D03*
X748000D02*
D03*
X488000Y725000D02*
D03*
X507000D02*
D03*
X212000Y152500D02*
D03*
X193000D02*
D03*
X882000Y155000D02*
D03*
X863000D02*
D03*
X595000Y725000D02*
D03*
X614000D02*
D03*
X324500Y152500D02*
D03*
X305500D02*
D03*
X705500Y727500D02*
D03*
X724500D02*
D03*
X989500Y157500D02*
D03*
X970500D02*
D03*
X437000Y155000D02*
D03*
X418000D02*
D03*
X158000Y725000D02*
D03*
X177000D02*
D03*
X821000Y727500D02*
D03*
X840000D02*
D03*
X549500Y155000D02*
D03*
X530500D02*
D03*
X270000Y722500D02*
D03*
X289000D02*
D03*
X928000Y725000D02*
D03*
X947000D02*
D03*
X70500Y105000D02*
D03*
X89500D02*
D03*
X144500Y395000D02*
D03*
X125500D02*
D03*
D51*
X67500Y780500D02*
D03*
X117500D02*
D03*
Y689500D02*
D03*
X67500D02*
D03*
D52*
X352500Y483000D02*
D03*
Y462000D02*
D03*
D53*
X53400Y107500D02*
D03*
X21600D02*
D03*
D54*
X77450Y479500D02*
D03*
Y470000D02*
D03*
Y460500D02*
D03*
X52550D02*
D03*
Y470000D02*
D03*
Y479500D02*
D03*
D55*
X60000Y524500D02*
D03*
Y505500D02*
D03*
X50000Y425500D02*
D03*
Y444500D02*
D03*
X210000Y453000D02*
D03*
Y472000D02*
D03*
D56*
X89750Y539000D02*
D03*
X170250D02*
D03*
D57*
X130000Y445000D02*
D03*
X180000D02*
D03*
D58*
X306250Y465000D02*
D03*
D59*
X243750Y442000D02*
D03*
Y465000D02*
D03*
Y488000D02*
D03*
D60*
X212000Y497500D02*
D03*
X193000D02*
D03*
X105500Y105000D02*
D03*
X124500D02*
D03*
X125500Y372500D02*
D03*
X144500D02*
D03*
D61*
X75000Y334000D02*
D03*
X105000D02*
D03*
X75000Y406000D02*
D03*
X105000D02*
D03*
D62*
X40000Y250000D02*
D03*
X1000000Y575400D02*
D03*
X40000D02*
D03*
D63*
Y275400D02*
D03*
X1000000Y550000D02*
D03*
X40000D02*
D03*
D64*
X135000Y827500D02*
D03*
X970052Y830000D02*
D03*
X465052D02*
D03*
X650000Y50000D02*
D03*
X745000D02*
D03*
X565052Y830000D02*
D03*
X270000Y50000D02*
D03*
X840000D02*
D03*
X665052Y830000D02*
D03*
X365000Y50000D02*
D03*
X765052Y830000D02*
D03*
X935000Y50000D02*
D03*
X865052Y830000D02*
D03*
X265052D02*
D03*
X460000Y50000D02*
D03*
X555000D02*
D03*
X365052Y830000D02*
D03*
X65000Y50000D02*
D03*
X165000D02*
D03*
D65*
X99948Y827500D02*
D03*
X935000Y830000D02*
D03*
X430000D02*
D03*
X685052Y50000D02*
D03*
X780052D02*
D03*
X530000Y830000D02*
D03*
X305052Y50000D02*
D03*
X875052D02*
D03*
X630000Y830000D02*
D03*
X400052Y50000D02*
D03*
X730000Y830000D02*
D03*
X970052Y50000D02*
D03*
X830000Y830000D02*
D03*
X230000D02*
D03*
X495052Y50000D02*
D03*
X590052D02*
D03*
X330000Y830000D02*
D03*
X100052Y50000D02*
D03*
X200052D02*
D03*
D66*
X395000Y770000D02*
D03*
X420500D02*
D03*
X635500Y109000D02*
D03*
X661000D02*
D03*
X771000D02*
D03*
X745500D02*
D03*
X530500Y770000D02*
D03*
X505000D02*
D03*
X221000Y110000D02*
D03*
X195500D02*
D03*
X855500Y109000D02*
D03*
X881000D02*
D03*
X615000Y770000D02*
D03*
X640500D02*
D03*
X305500Y109000D02*
D03*
X331000D02*
D03*
X725000Y770000D02*
D03*
X750500D02*
D03*
X965500Y110000D02*
D03*
X991000D02*
D03*
X441000Y109000D02*
D03*
X415500D02*
D03*
X200500Y770000D02*
D03*
X175000D02*
D03*
X835000D02*
D03*
X860500D02*
D03*
X525500Y109000D02*
D03*
X551000D02*
D03*
X285000Y770000D02*
D03*
X310500D02*
D03*
X970500D02*
D03*
X945000D02*
D03*
D67*
X446000D02*
D03*
X610000Y109000D02*
D03*
X720000D02*
D03*
X556000Y770000D02*
D03*
X170000Y110000D02*
D03*
X830000Y109000D02*
D03*
X666000Y770000D02*
D03*
X280000Y109000D02*
D03*
X776000Y770000D02*
D03*
X940000Y110000D02*
D03*
X390000Y109000D02*
D03*
X226000Y770000D02*
D03*
X886000D02*
D03*
X500000Y109000D02*
D03*
X336000Y770000D02*
D03*
X996000D02*
D03*
D68*
X1000000Y275400D02*
D03*
Y250000D02*
D03*
Y300800D02*
D03*
D69*
Y326200D02*
D03*
D70*
X909500Y422500D02*
D03*
X860500D02*
D03*
D71*
X862100Y464800D02*
D03*
D72*
X887500Y464800D02*
D03*
X912900Y464800D02*
D03*
X862100Y490200D02*
D03*
X887500Y490200D02*
D03*
X912900Y490200D02*
D03*
D73*
X430000Y377500D02*
D03*
X390000Y475000D02*
D03*
X67500Y176100D02*
D03*
X517500Y340000D02*
D03*
X239824Y453857D02*
D03*
X237500Y485000D02*
D03*
X197500Y455000D02*
D03*
X195000Y485000D02*
D03*
X415000Y495000D02*
D03*
X265000Y317500D02*
D03*
X597500Y455000D02*
D03*
X555000D02*
D03*
X565000Y445000D02*
D03*
X575000Y437500D02*
D03*
X122500Y180000D02*
D03*
Y195000D02*
D03*
Y210000D02*
D03*
X475000Y510000D02*
D03*
X452386Y537614D02*
D03*
X595000Y473557D02*
D03*
X582500Y475000D02*
D03*
X617500Y417500D02*
D03*
X607500Y410000D02*
D03*
X654114Y461757D02*
D03*
X725000Y395000D02*
D03*
X695000Y314000D02*
D03*
X599600Y210000D02*
D03*
X715000Y212500D02*
D03*
X267500Y210000D02*
D03*
X159835Y204228D02*
D03*
X97500Y177500D02*
D03*
X510000Y467500D02*
D03*
X507500Y457500D02*
D03*
X627500Y370000D02*
D03*
X562500Y490000D02*
D03*
Y502500D02*
D03*
X600000Y337500D02*
D03*
X490000Y210000D02*
D03*
X377500D02*
D03*
X223850Y426500D02*
D03*
X585000Y290000D02*
D03*
X537500Y487500D02*
D03*
X552500Y482500D02*
D03*
X495000Y450000D02*
D03*
X487500Y440000D02*
D03*
X435000Y555000D02*
D03*
X410000Y505000D02*
D03*
X233895Y393026D02*
D03*
X265000Y417500D02*
D03*
X390000Y377500D02*
D03*
X397500Y395000D02*
D03*
X290000Y402500D02*
D03*
X630000Y437500D02*
D03*
X840000Y412500D02*
D03*
X465000Y387500D02*
D03*
X510000Y397500D02*
D03*
X437500Y430000D02*
D03*
X402500Y427500D02*
D03*
X202500Y390000D02*
D03*
X527500Y377500D02*
D03*
X557500Y375000D02*
D03*
X780000Y442500D02*
D03*
X820000Y375000D02*
D03*
X727500Y380000D02*
D03*
X525000Y487500D02*
D03*
X845000Y452500D02*
D03*
X847500Y482500D02*
D03*
X443355Y386645D02*
D03*
X415000Y397500D02*
D03*
X269240Y428644D02*
D03*
X227500Y495000D02*
D03*
X157500Y492500D02*
D03*
X100000Y505000D02*
D03*
X90000Y610000D02*
D03*
X467728Y519772D02*
D03*
X480000Y430000D02*
D03*
X220000Y375000D02*
D03*
X612500Y558000D02*
D03*
X500000Y550000D02*
D03*
X422500Y457500D02*
D03*
X960000Y325000D02*
D03*
X915000Y320000D02*
D03*
X859259Y315298D02*
D03*
X797500Y327500D02*
D03*
X767500Y317500D02*
D03*
X547820Y297253D02*
D03*
X485000Y310000D02*
D03*
X430000Y322500D02*
D03*
X369252Y321603D02*
D03*
X317500Y322500D02*
D03*
X482500Y557500D02*
D03*
X544424Y564984D02*
D03*
X650000Y557500D02*
D03*
X732500D02*
D03*
X767500Y555000D02*
D03*
X845000Y557500D02*
D03*
X880000D02*
D03*
X397500Y552500D02*
D03*
X335000Y555000D02*
D03*
X298967Y549461D02*
D03*
X235000Y567500D02*
D03*
X201650Y556969D02*
D03*
X112500Y255000D02*
D03*
X52500Y397500D02*
D03*
X165395Y570029D02*
D03*
X94274Y258537D02*
D03*
X80000Y177500D02*
D03*
X72500Y257500D02*
D03*
X817500Y212500D02*
D03*
X930000Y210000D02*
D03*
X984538Y668183D02*
D03*
X880000Y672500D02*
D03*
X767577Y672177D02*
D03*
X652500Y670000D02*
D03*
X542500Y667500D02*
D03*
X432500Y670000D02*
D03*
X322500Y667500D02*
D03*
X215000D02*
D03*
M02*
