G04*
G04 #@! TF.GenerationSoftware,Altium Limited,Altium Designer,22.7.1 (60)*
G04*
G04 Layer_Color=16711935*
%FSLAX44Y44*%
%MOMM*%
G71*
G04*
G04 #@! TF.SameCoordinates,58864457-2C57-4B72-ACF9-2A768CBF14AA*
G04*
G04*
G04 #@! TF.FilePolarity,Negative*
G04*
G01*
G75*
%ADD39C,1.0000*%
%ADD50R,0.9000X1.5000*%
%ADD55R,1.5000X1.1000*%
%ADD60R,1.1000X1.5000*%
%ADD62R,2.2000X1.8000*%
%ADD63O,2.2000X1.8000*%
%ADD64R,2.2000X2.2000*%
%ADD65C,2.2000*%
%ADD66C,2.1100*%
%ADD67R,2.1100X2.1100*%
%ADD68C,1.7000*%
%ADD69R,1.7000X1.7000*%
%ADD70C,1.8000*%
%ADD71R,1.8000X2.2000*%
%ADD72O,1.8000X2.2000*%
%ADD73C,0.8000*%
G04:AMPARAMS|DCode=96|XSize=0.8mm|YSize=1.6mm|CornerRadius=0mm|HoleSize=0mm|Usage=FLASHONLY|Rotation=225.000|XOffset=0mm|YOffset=0mm|HoleType=Round|Shape=Rectangle|*
%AMROTATEDRECTD96*
4,1,4,-0.2828,0.8485,0.8485,-0.2828,0.2828,-0.8485,-0.8485,0.2828,-0.2828,0.8485,0.0*
%
%ADD96ROTATEDRECTD96*%

G04:AMPARAMS|DCode=97|XSize=1.1mm|YSize=1.5mm|CornerRadius=0mm|HoleSize=0mm|Usage=FLASHONLY|Rotation=135.000|XOffset=0mm|YOffset=0mm|HoleType=Round|Shape=Rectangle|*
%AMROTATEDRECTD97*
4,1,4,0.9192,0.1414,-0.1414,-0.9192,-0.9192,-0.1414,0.1414,0.9192,0.9192,0.1414,0.0*
%
%ADD97ROTATEDRECTD97*%

G04:AMPARAMS|DCode=98|XSize=1.1mm|YSize=1.5mm|CornerRadius=0mm|HoleSize=0mm|Usage=FLASHONLY|Rotation=45.000|XOffset=0mm|YOffset=0mm|HoleType=Round|Shape=Rectangle|*
%AMROTATEDRECTD98*
4,1,4,0.1414,-0.9192,-0.9192,0.1414,-0.1414,0.9192,0.9192,-0.1414,0.1414,-0.9192,0.0*
%
%ADD98ROTATEDRECTD98*%

G04:AMPARAMS|DCode=99|XSize=1.68mm|YSize=0.37mm|CornerRadius=0.0913mm|HoleSize=0mm|Usage=FLASHONLY|Rotation=45.000|XOffset=0mm|YOffset=0mm|HoleType=Round|Shape=RoundedRectangle|*
%AMROUNDEDRECTD99*
21,1,1.6800,0.1875,0,0,45.0*
21,1,1.4975,0.3700,0,0,45.0*
1,1,0.1825,0.5957,0.4632*
1,1,0.1825,-0.4632,-0.5957*
1,1,0.1825,-0.5957,-0.4632*
1,1,0.1825,0.4632,0.5957*
%
%ADD99ROUNDEDRECTD99*%
G04:AMPARAMS|DCode=100|XSize=1.68mm|YSize=0.37mm|CornerRadius=0.0913mm|HoleSize=0mm|Usage=FLASHONLY|Rotation=315.000|XOffset=0mm|YOffset=0mm|HoleType=Round|Shape=RoundedRectangle|*
%AMROUNDEDRECTD100*
21,1,1.6800,0.1875,0,0,315.0*
21,1,1.4975,0.3700,0,0,315.0*
1,1,0.1825,0.4632,-0.5957*
1,1,0.1825,-0.5957,0.4632*
1,1,0.1825,-0.4632,0.5957*
1,1,0.1825,0.5957,-0.4632*
%
%ADD100ROUNDEDRECTD100*%
D39*
X250000Y75000D02*
Y435000D01*
X262410Y447410D01*
X265000Y665000D01*
X255000Y675000D02*
X265000Y665000D01*
X255000Y675000D02*
Y800000D01*
X135000Y827500D02*
Y855000D01*
X75000D02*
X243750D01*
X72500Y787500D02*
X75000Y855000D01*
X72500Y787500D02*
X140000Y716932D01*
X140000Y25000D01*
X330000D01*
X305000Y75000D02*
X305500Y109000D01*
X415000Y77500D02*
X415500Y109000D01*
X525000Y75000D02*
X525500Y109000D01*
X635000Y77500D02*
X635500Y109000D01*
X745000Y77500D02*
X745500Y109000D01*
X855000Y77500D02*
X855500Y109000D01*
X965000Y80000D02*
Y102500D01*
X957500Y75000D02*
X965000Y80000D01*
X205000Y75000D02*
X957500D01*
X195000Y85000D02*
X205000Y75000D01*
X195000Y85000D02*
X195500Y110000D01*
X200000Y800000D02*
X200500Y770000D01*
X310000Y797500D02*
X310500Y770000D01*
X420000Y800000D02*
X420500Y770000D01*
X530000Y800000D02*
X530500Y770000D01*
X640000Y800000D02*
X640500Y770000D01*
X750000Y795000D02*
X750500Y770000D01*
X860000Y795000D02*
X860500Y770000D01*
X940000Y800000D02*
X962500Y777500D01*
X127500Y800000D02*
X940000D01*
X99948Y827500D02*
X127500Y800000D01*
X232500Y840000D02*
Y850000D01*
X237500Y855000D01*
X247500D01*
X330000Y835000D02*
Y852500D01*
X430000Y835000D02*
Y855000D01*
X532500Y835000D02*
Y855000D01*
X630000Y832500D02*
Y855000D01*
X730000Y830000D02*
Y855000D01*
X830000Y830000D02*
X830000Y855000D01*
X935000Y830000D02*
X935000Y850000D01*
X930000Y855000D02*
X935000Y850000D01*
X925000Y855000D02*
X930000D01*
X247500D02*
X925000D01*
X400000Y30000D02*
X400052Y50000D01*
X495000Y27500D02*
X495052Y50000D01*
X590000Y30000D02*
X590052Y50000D01*
X685000Y27500D02*
X685052Y50000D01*
X780000Y27500D02*
X780052Y50000D01*
X875000Y30000D02*
X875052Y50000D01*
X970000Y27500D02*
Y52500D01*
X969167Y25000D02*
X970000Y27500D01*
X962500Y25000D02*
X969167D01*
X330000D02*
X962500D01*
X305052Y50000D02*
X330000Y25000D01*
D50*
X887000Y385000D02*
D03*
X868000D02*
D03*
X834500Y485000D02*
D03*
X815500D02*
D03*
Y462500D02*
D03*
X834500D02*
D03*
D55*
X522500Y548000D02*
D03*
Y567000D02*
D03*
D60*
X833000Y385000D02*
D03*
X852000D02*
D03*
X924500D02*
D03*
X905500D02*
D03*
D62*
X40000Y250000D02*
D03*
X1000000Y575400D02*
D03*
X40000D02*
D03*
D63*
Y275400D02*
D03*
X1000000Y550000D02*
D03*
X40000D02*
D03*
D64*
X135000Y827500D02*
D03*
X970052Y830000D02*
D03*
X465052D02*
D03*
X650000Y50000D02*
D03*
X745000D02*
D03*
X565052Y830000D02*
D03*
X270000Y50000D02*
D03*
X840000D02*
D03*
X665052Y830000D02*
D03*
X365000Y50000D02*
D03*
X765052Y830000D02*
D03*
X935000Y50000D02*
D03*
X865052Y830000D02*
D03*
X265052D02*
D03*
X460000Y50000D02*
D03*
X555000D02*
D03*
X365052Y830000D02*
D03*
X65000Y50000D02*
D03*
X165000D02*
D03*
D65*
X99948Y827500D02*
D03*
X935000Y830000D02*
D03*
X430000D02*
D03*
X685052Y50000D02*
D03*
X780052D02*
D03*
X530000Y830000D02*
D03*
X305052Y50000D02*
D03*
X875052D02*
D03*
X630000Y830000D02*
D03*
X400052Y50000D02*
D03*
X730000Y830000D02*
D03*
X970052Y50000D02*
D03*
X830000Y830000D02*
D03*
X230000D02*
D03*
X495052Y50000D02*
D03*
X590052D02*
D03*
X330000Y830000D02*
D03*
X100052Y50000D02*
D03*
X200052D02*
D03*
D66*
X395000Y770000D02*
D03*
X420500D02*
D03*
X635500Y109000D02*
D03*
X661000D02*
D03*
X771000D02*
D03*
X745500D02*
D03*
X530500Y770000D02*
D03*
X505000D02*
D03*
X221000Y110000D02*
D03*
X195500D02*
D03*
X855500Y109000D02*
D03*
X881000D02*
D03*
X615000Y770000D02*
D03*
X640500D02*
D03*
X305500Y109000D02*
D03*
X331000D02*
D03*
X725000Y770000D02*
D03*
X750500D02*
D03*
X965500Y110000D02*
D03*
X991000D02*
D03*
X441000Y109000D02*
D03*
X415500D02*
D03*
X200500Y770000D02*
D03*
X175000D02*
D03*
X835000D02*
D03*
X860500D02*
D03*
X525500Y109000D02*
D03*
X551000D02*
D03*
X285000Y770000D02*
D03*
X310500D02*
D03*
X970500D02*
D03*
X945000D02*
D03*
D67*
X446000D02*
D03*
X610000Y109000D02*
D03*
X720000D02*
D03*
X556000Y770000D02*
D03*
X170000Y110000D02*
D03*
X830000Y109000D02*
D03*
X666000Y770000D02*
D03*
X280000Y109000D02*
D03*
X776000Y770000D02*
D03*
X940000Y110000D02*
D03*
X390000Y109000D02*
D03*
X226000Y770000D02*
D03*
X886000D02*
D03*
X500000Y109000D02*
D03*
X336000Y770000D02*
D03*
X996000D02*
D03*
D68*
X1000000Y275400D02*
D03*
Y250000D02*
D03*
Y300800D02*
D03*
D69*
Y326200D02*
D03*
D70*
X909500Y422500D02*
D03*
X860500D02*
D03*
D71*
X862100Y464800D02*
D03*
D72*
X887500Y464800D02*
D03*
X912900Y464800D02*
D03*
X862100Y490200D02*
D03*
X887500Y490200D02*
D03*
X912900Y490200D02*
D03*
D73*
X430000Y377500D02*
D03*
X390000Y475000D02*
D03*
X67500Y176100D02*
D03*
X517500Y340000D02*
D03*
X239824Y453857D02*
D03*
X237500Y485000D02*
D03*
X197500Y455000D02*
D03*
X195000Y485000D02*
D03*
X415000Y495000D02*
D03*
X265000Y317500D02*
D03*
X597500Y455000D02*
D03*
X555000D02*
D03*
X565000Y445000D02*
D03*
X575000Y437500D02*
D03*
X122500Y180000D02*
D03*
Y195000D02*
D03*
Y210000D02*
D03*
X475000Y510000D02*
D03*
X452386Y537614D02*
D03*
X595000Y473557D02*
D03*
X582500Y475000D02*
D03*
X617500Y417500D02*
D03*
X607500Y410000D02*
D03*
X654114Y461757D02*
D03*
X725000Y395000D02*
D03*
X695000Y314000D02*
D03*
X599600Y210000D02*
D03*
X715000Y212500D02*
D03*
X267500Y210000D02*
D03*
X159835Y204228D02*
D03*
X97500Y177500D02*
D03*
X510000Y467500D02*
D03*
X507500Y457500D02*
D03*
X627500Y370000D02*
D03*
X562500Y490000D02*
D03*
Y502500D02*
D03*
X600000Y337500D02*
D03*
X490000Y210000D02*
D03*
X377500D02*
D03*
X223850Y426500D02*
D03*
X585000Y290000D02*
D03*
X537500Y487500D02*
D03*
X552500Y482500D02*
D03*
X495000Y450000D02*
D03*
X487500Y440000D02*
D03*
X435000Y555000D02*
D03*
X410000Y505000D02*
D03*
X233895Y393026D02*
D03*
X265000Y417500D02*
D03*
X390000Y377500D02*
D03*
X397500Y395000D02*
D03*
X290000Y402500D02*
D03*
X630000Y437500D02*
D03*
X840000Y412500D02*
D03*
X465000Y387500D02*
D03*
X510000Y397500D02*
D03*
X437500Y430000D02*
D03*
X402500Y427500D02*
D03*
X202500Y390000D02*
D03*
X527500Y377500D02*
D03*
X557500Y375000D02*
D03*
X780000Y442500D02*
D03*
X820000Y375000D02*
D03*
X727500Y380000D02*
D03*
X525000Y487500D02*
D03*
X845000Y452500D02*
D03*
X847500Y482500D02*
D03*
X443355Y386645D02*
D03*
X415000Y397500D02*
D03*
X269240Y428644D02*
D03*
X227500Y495000D02*
D03*
X157500Y492500D02*
D03*
X100000Y505000D02*
D03*
X90000Y610000D02*
D03*
X467728Y519772D02*
D03*
X480000Y430000D02*
D03*
X220000Y375000D02*
D03*
X612500Y558000D02*
D03*
X500000Y550000D02*
D03*
X422500Y457500D02*
D03*
X960000Y325000D02*
D03*
X915000Y320000D02*
D03*
X859259Y315298D02*
D03*
X797500Y327500D02*
D03*
X767500Y317500D02*
D03*
X547820Y297253D02*
D03*
X485000Y310000D02*
D03*
X430000Y322500D02*
D03*
X369252Y321603D02*
D03*
X317500Y322500D02*
D03*
X482500Y557500D02*
D03*
X544424Y564984D02*
D03*
X650000Y557500D02*
D03*
X732500D02*
D03*
X767500Y555000D02*
D03*
X845000Y557500D02*
D03*
X880000D02*
D03*
X397500Y552500D02*
D03*
X335000Y555000D02*
D03*
X298967Y549461D02*
D03*
X235000Y567500D02*
D03*
X201650Y556969D02*
D03*
X112500Y255000D02*
D03*
X52500Y397500D02*
D03*
X165395Y570029D02*
D03*
X94274Y258537D02*
D03*
X80000Y177500D02*
D03*
X72500Y257500D02*
D03*
X817500Y212500D02*
D03*
X930000Y210000D02*
D03*
X984538Y668183D02*
D03*
X880000Y672500D02*
D03*
X767577Y672177D02*
D03*
X652500Y670000D02*
D03*
X542500Y667500D02*
D03*
X432500Y670000D02*
D03*
X322500Y667500D02*
D03*
X215000D02*
D03*
D96*
X688485Y393485D02*
D03*
X671515Y376515D02*
D03*
D97*
X655782Y359217D02*
D03*
X669218Y345783D02*
D03*
X588283Y319217D02*
D03*
X601717Y305783D02*
D03*
X445935Y474065D02*
D03*
X432500Y487500D02*
D03*
D98*
X704218Y376717D02*
D03*
X690782Y363283D02*
D03*
X671565Y471565D02*
D03*
X685000Y485000D02*
D03*
X481717Y351717D02*
D03*
X468283Y338283D02*
D03*
X466717Y366717D02*
D03*
X453283Y353283D02*
D03*
D99*
X651732Y444379D02*
D03*
X648197Y447915D02*
D03*
X644661Y451451D02*
D03*
X641126Y454986D02*
D03*
X637590Y458521D02*
D03*
X634055Y462057D02*
D03*
X630519Y465593D02*
D03*
X626983Y469128D02*
D03*
X623448Y472664D02*
D03*
X619912Y476199D02*
D03*
X616377Y479735D02*
D03*
X612841Y483270D02*
D03*
X609306Y486806D02*
D03*
X605770Y490341D02*
D03*
X602235Y493877D02*
D03*
X598699Y497412D02*
D03*
X595164Y500948D02*
D03*
X591628Y504483D02*
D03*
X588093Y508019D02*
D03*
X584557Y511555D02*
D03*
X581021Y515090D02*
D03*
X577486Y518626D02*
D03*
X573951Y522161D02*
D03*
X570415Y525697D02*
D03*
X566879Y529232D02*
D03*
X458268Y420621D02*
D03*
X461803Y417085D02*
D03*
X465339Y413549D02*
D03*
X468874Y410014D02*
D03*
X472410Y406479D02*
D03*
X475946Y402943D02*
D03*
X479481Y399407D02*
D03*
X483017Y395872D02*
D03*
X486552Y392336D02*
D03*
X490088Y388801D02*
D03*
X493623Y385265D02*
D03*
X497159Y381730D02*
D03*
X500694Y378194D02*
D03*
X504230Y374659D02*
D03*
X507765Y371123D02*
D03*
X511301Y367588D02*
D03*
X514836Y364052D02*
D03*
X518372Y360517D02*
D03*
X521907Y356981D02*
D03*
X525443Y353445D02*
D03*
X528979Y349910D02*
D03*
X532514Y346374D02*
D03*
X536050Y342839D02*
D03*
X539585Y339303D02*
D03*
X543121Y335768D02*
D03*
D100*
X566879D02*
D03*
X570415Y339303D02*
D03*
X573951Y342839D02*
D03*
X577486Y346374D02*
D03*
X581021Y349910D02*
D03*
X584557Y353445D02*
D03*
X588093Y356981D02*
D03*
X591628Y360517D02*
D03*
X595164Y364052D02*
D03*
X598699Y367588D02*
D03*
X602235Y371123D02*
D03*
X605770Y374659D02*
D03*
X609306Y378194D02*
D03*
X612841Y381730D02*
D03*
X616377Y385265D02*
D03*
X619912Y388801D02*
D03*
X623448Y392336D02*
D03*
X626983Y395872D02*
D03*
X630519Y399407D02*
D03*
X634055Y402943D02*
D03*
X637590Y406479D02*
D03*
X641126Y410014D02*
D03*
X644661Y413549D02*
D03*
X648197Y417085D02*
D03*
X651732Y420621D02*
D03*
X543121Y529232D02*
D03*
X539585Y525697D02*
D03*
X536050Y522161D02*
D03*
X532514Y518626D02*
D03*
X528979Y515090D02*
D03*
X525443Y511555D02*
D03*
X521907Y508019D02*
D03*
X518372Y504483D02*
D03*
X514836Y500948D02*
D03*
X511301Y497412D02*
D03*
X507765Y493877D02*
D03*
X504230Y490341D02*
D03*
X500694Y486806D02*
D03*
X497159Y483270D02*
D03*
X493623Y479735D02*
D03*
X490088Y476199D02*
D03*
X486552Y472664D02*
D03*
X483017Y469128D02*
D03*
X479481Y465593D02*
D03*
X475946Y462057D02*
D03*
X472410Y458521D02*
D03*
X468874Y454986D02*
D03*
X465339Y451451D02*
D03*
X461803Y447915D02*
D03*
X458268Y444379D02*
D03*
M02*
