G04*
G04 #@! TF.GenerationSoftware,Altium Limited,Altium Designer,22.7.1 (60)*
G04*
G04 Layer_Color=128*
%FSLAX44Y44*%
%MOMM*%
G71*
G04*
G04 #@! TF.SameCoordinates,58864457-2C57-4B72-ACF9-2A768CBF14AA*
G04*
G04*
G04 #@! TF.FilePolarity,Positive*
G04*
G01*
G75*
%ADD27R,0.7000X1.3000*%
%ADD32R,1.3000X0.9000*%
%ADD37R,0.9000X1.3000*%
G04:AMPARAMS|DCode=91|XSize=0.6mm|YSize=1.4mm|CornerRadius=0mm|HoleSize=0mm|Usage=FLASHONLY|Rotation=225.000|XOffset=0mm|YOffset=0mm|HoleType=Round|Shape=Rectangle|*
%AMROTATEDRECTD91*
4,1,4,-0.2828,0.7071,0.7071,-0.2828,0.2828,-0.7071,-0.7071,0.2828,-0.2828,0.7071,0.0*
%
%ADD91ROTATEDRECTD91*%

G04:AMPARAMS|DCode=92|XSize=0.9mm|YSize=1.3mm|CornerRadius=0mm|HoleSize=0mm|Usage=FLASHONLY|Rotation=135.000|XOffset=0mm|YOffset=0mm|HoleType=Round|Shape=Rectangle|*
%AMROTATEDRECTD92*
4,1,4,0.7778,0.1414,-0.1414,-0.7778,-0.7778,-0.1414,0.1414,0.7778,0.7778,0.1414,0.0*
%
%ADD92ROTATEDRECTD92*%

G04:AMPARAMS|DCode=93|XSize=0.9mm|YSize=1.3mm|CornerRadius=0mm|HoleSize=0mm|Usage=FLASHONLY|Rotation=45.000|XOffset=0mm|YOffset=0mm|HoleType=Round|Shape=Rectangle|*
%AMROTATEDRECTD93*
4,1,4,0.1414,-0.7778,-0.7778,0.1414,-0.1414,0.7778,0.7778,-0.1414,0.1414,-0.7778,0.0*
%
%ADD93ROTATEDRECTD93*%

G04:AMPARAMS|DCode=94|XSize=1.56mm|YSize=0.25mm|CornerRadius=0.0313mm|HoleSize=0mm|Usage=FLASHONLY|Rotation=45.000|XOffset=0mm|YOffset=0mm|HoleType=Round|Shape=RoundedRectangle|*
%AMROUNDEDRECTD94*
21,1,1.5600,0.1875,0,0,45.0*
21,1,1.4975,0.2500,0,0,45.0*
1,1,0.0625,0.5957,0.4632*
1,1,0.0625,-0.4632,-0.5957*
1,1,0.0625,-0.5957,-0.4632*
1,1,0.0625,0.4632,0.5957*
%
%ADD94ROUNDEDRECTD94*%
G04:AMPARAMS|DCode=95|XSize=1.56mm|YSize=0.25mm|CornerRadius=0.0313mm|HoleSize=0mm|Usage=FLASHONLY|Rotation=315.000|XOffset=0mm|YOffset=0mm|HoleType=Round|Shape=RoundedRectangle|*
%AMROUNDEDRECTD95*
21,1,1.5600,0.1875,0,0,315.0*
21,1,1.4975,0.2500,0,0,315.0*
1,1,0.0625,0.4632,-0.5957*
1,1,0.0625,-0.5957,0.4632*
1,1,0.0625,-0.4632,0.5957*
1,1,0.0625,0.5957,-0.4632*
%
%ADD95ROUNDEDRECTD95*%
D27*
X887000Y385000D02*
D03*
X868000D02*
D03*
X834500Y485000D02*
D03*
X815500D02*
D03*
Y462500D02*
D03*
X834500D02*
D03*
D32*
X522500Y548000D02*
D03*
Y567000D02*
D03*
D37*
X833000Y385000D02*
D03*
X852000D02*
D03*
X924500D02*
D03*
X905500D02*
D03*
D91*
X688485Y393485D02*
D03*
X671515Y376515D02*
D03*
D92*
X655782Y359217D02*
D03*
X669218Y345783D02*
D03*
X588283Y319217D02*
D03*
X601717Y305783D02*
D03*
X445935Y474065D02*
D03*
X432500Y487500D02*
D03*
D93*
X704218Y376717D02*
D03*
X690782Y363283D02*
D03*
X671565Y471565D02*
D03*
X685000Y485000D02*
D03*
X481717Y351717D02*
D03*
X468283Y338283D02*
D03*
X466717Y366717D02*
D03*
X453283Y353283D02*
D03*
D94*
X651732Y444379D02*
D03*
X648197Y447915D02*
D03*
X644661Y451451D02*
D03*
X641126Y454986D02*
D03*
X637590Y458521D02*
D03*
X634055Y462057D02*
D03*
X630519Y465593D02*
D03*
X626983Y469128D02*
D03*
X623448Y472664D02*
D03*
X619912Y476199D02*
D03*
X616377Y479735D02*
D03*
X612841Y483270D02*
D03*
X609306Y486806D02*
D03*
X605770Y490341D02*
D03*
X602235Y493877D02*
D03*
X598699Y497412D02*
D03*
X595164Y500948D02*
D03*
X591628Y504483D02*
D03*
X588093Y508019D02*
D03*
X584557Y511555D02*
D03*
X581021Y515090D02*
D03*
X577486Y518626D02*
D03*
X573951Y522161D02*
D03*
X570415Y525697D02*
D03*
X566879Y529232D02*
D03*
X458268Y420621D02*
D03*
X461803Y417085D02*
D03*
X465339Y413549D02*
D03*
X468874Y410014D02*
D03*
X472410Y406479D02*
D03*
X475946Y402943D02*
D03*
X479481Y399407D02*
D03*
X483017Y395872D02*
D03*
X486552Y392336D02*
D03*
X490088Y388801D02*
D03*
X493623Y385265D02*
D03*
X497159Y381730D02*
D03*
X500694Y378194D02*
D03*
X504230Y374659D02*
D03*
X507765Y371123D02*
D03*
X511301Y367588D02*
D03*
X514836Y364052D02*
D03*
X518372Y360517D02*
D03*
X521907Y356981D02*
D03*
X525443Y353445D02*
D03*
X528979Y349910D02*
D03*
X532514Y346374D02*
D03*
X536050Y342839D02*
D03*
X539585Y339303D02*
D03*
X543121Y335768D02*
D03*
D95*
X566879D02*
D03*
X570415Y339303D02*
D03*
X573951Y342839D02*
D03*
X577486Y346374D02*
D03*
X581021Y349910D02*
D03*
X584557Y353445D02*
D03*
X588093Y356981D02*
D03*
X591628Y360517D02*
D03*
X595164Y364052D02*
D03*
X598699Y367588D02*
D03*
X602235Y371123D02*
D03*
X605770Y374659D02*
D03*
X609306Y378194D02*
D03*
X612841Y381730D02*
D03*
X616377Y385265D02*
D03*
X619912Y388801D02*
D03*
X623448Y392336D02*
D03*
X626983Y395872D02*
D03*
X630519Y399407D02*
D03*
X634055Y402943D02*
D03*
X637590Y406479D02*
D03*
X641126Y410014D02*
D03*
X644661Y413549D02*
D03*
X648197Y417085D02*
D03*
X651732Y420621D02*
D03*
X543121Y529232D02*
D03*
X539585Y525697D02*
D03*
X536050Y522161D02*
D03*
X532514Y518626D02*
D03*
X528979Y515090D02*
D03*
X525443Y511555D02*
D03*
X521907Y508019D02*
D03*
X518372Y504483D02*
D03*
X514836Y500948D02*
D03*
X511301Y497412D02*
D03*
X507765Y493877D02*
D03*
X504230Y490341D02*
D03*
X500694Y486806D02*
D03*
X497159Y483270D02*
D03*
X493623Y479735D02*
D03*
X490088Y476199D02*
D03*
X486552Y472664D02*
D03*
X483017Y469128D02*
D03*
X479481Y465593D02*
D03*
X475946Y462057D02*
D03*
X472410Y458521D02*
D03*
X468874Y454986D02*
D03*
X465339Y451451D02*
D03*
X461803Y447915D02*
D03*
X458268Y444379D02*
D03*
M02*
