G04*
G04 #@! TF.GenerationSoftware,Altium Limited,Altium Designer,22.7.1 (60)*
G04*
G04 Layer_Color=255*
%FSLAX44Y44*%
%MOMM*%
G71*
G04*
G04 #@! TF.SameCoordinates,58864457-2C57-4B72-ACF9-2A768CBF14AA*
G04*
G04*
G04 #@! TF.FilePolarity,Positive*
G04*
G01*
G75*
G04:AMPARAMS|DCode=17|XSize=1.97mm|YSize=0.6mm|CornerRadius=0.075mm|HoleSize=0mm|Usage=FLASHONLY|Rotation=270.000|XOffset=0mm|YOffset=0mm|HoleType=Round|Shape=RoundedRectangle|*
%AMROUNDEDRECTD17*
21,1,1.9700,0.4500,0,0,270.0*
21,1,1.8200,0.6000,0,0,270.0*
1,1,0.1500,-0.2250,-0.9100*
1,1,0.1500,-0.2250,0.9100*
1,1,0.1500,0.2250,0.9100*
1,1,0.1500,0.2250,-0.9100*
%
%ADD17ROUNDEDRECTD17*%
%ADD18R,1.3000X0.7000*%
%ADD19R,0.8800X1.7600*%
%ADD20R,3.1400X1.7600*%
G04:AMPARAMS|DCode=21|XSize=1.09mm|YSize=1.77mm|CornerRadius=0.0763mm|HoleSize=0mm|Usage=FLASHONLY|Rotation=0.000|XOffset=0mm|YOffset=0mm|HoleType=Round|Shape=RoundedRectangle|*
%AMROUNDEDRECTD21*
21,1,1.0900,1.6174,0,0,0.0*
21,1,0.9374,1.7700,0,0,0.0*
1,1,0.1526,0.4687,-0.8087*
1,1,0.1526,-0.4687,-0.8087*
1,1,0.1526,-0.4687,0.8087*
1,1,0.1526,0.4687,0.8087*
%
%ADD21ROUNDEDRECTD21*%
G04:AMPARAMS|DCode=22|XSize=0.94mm|YSize=1.77mm|CornerRadius=0.0658mm|HoleSize=0mm|Usage=FLASHONLY|Rotation=0.000|XOffset=0mm|YOffset=0mm|HoleType=Round|Shape=RoundedRectangle|*
%AMROUNDEDRECTD22*
21,1,0.9400,1.6384,0,0,0.0*
21,1,0.8084,1.7700,0,0,0.0*
1,1,0.1316,0.4042,-0.8192*
1,1,0.1316,-0.4042,-0.8192*
1,1,0.1316,-0.4042,0.8192*
1,1,0.1316,0.4042,0.8192*
%
%ADD22ROUNDEDRECTD22*%
%ADD23R,3.3700X2.3700*%
%ADD24R,1.8200X1.4400*%
%ADD25R,1.7000X2.5000*%
%ADD26R,2.5000X1.7000*%
%ADD27R,0.7000X1.3000*%
%ADD28R,1.6500X1.7000*%
%ADD29R,1.2000X1.2000*%
%ADD30R,1.1800X1.1700*%
G04:AMPARAMS|DCode=31|XSize=1.22mm|YSize=0.6mm|CornerRadius=0.15mm|HoleSize=0mm|Usage=FLASHONLY|Rotation=0.000|XOffset=0mm|YOffset=0mm|HoleType=Round|Shape=RoundedRectangle|*
%AMROUNDEDRECTD31*
21,1,1.2200,0.3000,0,0,0.0*
21,1,0.9200,0.6000,0,0,0.0*
1,1,0.3000,0.4600,-0.1500*
1,1,0.3000,-0.4600,-0.1500*
1,1,0.3000,-0.4600,0.1500*
1,1,0.3000,0.4600,0.1500*
%
%ADD31ROUNDEDRECTD31*%
%ADD32R,1.3000X0.9000*%
%ADD33R,2.6500X3.6000*%
%ADD34R,3.2000X1.6000*%
%ADD35R,1.7600X3.1400*%
%ADD36R,1.7600X0.8800*%
%ADD37R,0.9000X1.3000*%
%ADD38R,1.4000X1.6000*%
D17*
X99050Y145250D02*
D03*
X86350D02*
D03*
X73650D02*
D03*
X60950D02*
D03*
Y194750D02*
D03*
X73650D02*
D03*
X86350D02*
D03*
X99050D02*
D03*
D18*
X27500Y699500D02*
D03*
Y680500D02*
D03*
X365000Y550500D02*
D03*
Y569500D02*
D03*
X685000Y314500D02*
D03*
Y295500D02*
D03*
X142500Y624500D02*
D03*
Y605500D02*
D03*
X795000Y312000D02*
D03*
Y293000D02*
D03*
X460000Y553000D02*
D03*
Y572000D02*
D03*
X250000Y317000D02*
D03*
Y298000D02*
D03*
X887500Y314500D02*
D03*
Y295500D02*
D03*
X570000Y553000D02*
D03*
Y572000D02*
D03*
X340000Y317000D02*
D03*
Y298000D02*
D03*
X685000Y558000D02*
D03*
Y577000D02*
D03*
X977500Y312500D02*
D03*
Y293500D02*
D03*
X792500Y555500D02*
D03*
Y574500D02*
D03*
X242500Y613000D02*
D03*
Y632000D02*
D03*
X455000Y320000D02*
D03*
Y301000D02*
D03*
X567500Y312000D02*
D03*
Y293000D02*
D03*
X267500Y548000D02*
D03*
Y567000D02*
D03*
X902500Y555500D02*
D03*
Y574500D02*
D03*
X375000Y482000D02*
D03*
Y463000D02*
D03*
X30000Y45500D02*
D03*
Y64500D02*
D03*
X100000Y425500D02*
D03*
Y444500D02*
D03*
X75000Y425500D02*
D03*
Y444500D02*
D03*
X37500Y194500D02*
D03*
Y175500D02*
D03*
X117500Y244500D02*
D03*
Y225500D02*
D03*
X95000Y244500D02*
D03*
Y225500D02*
D03*
X72500Y244500D02*
D03*
Y225500D02*
D03*
X37500Y140500D02*
D03*
Y159500D02*
D03*
D19*
X663000Y356250D02*
D03*
X640000D02*
D03*
X617000D02*
D03*
X438000Y526250D02*
D03*
X415000D02*
D03*
X392000D02*
D03*
X727000Y356250D02*
D03*
X750000D02*
D03*
X773000D02*
D03*
X528000Y526250D02*
D03*
X505000D02*
D03*
X482000D02*
D03*
X179500Y356250D02*
D03*
X202500D02*
D03*
X225500D02*
D03*
X819500D02*
D03*
X842500D02*
D03*
X865500D02*
D03*
X638000Y526250D02*
D03*
X615000D02*
D03*
X592000D02*
D03*
X272000Y358750D02*
D03*
X295000D02*
D03*
X318000D02*
D03*
X753000Y526250D02*
D03*
X730000D02*
D03*
X707000D02*
D03*
X909500Y356250D02*
D03*
X932500D02*
D03*
X955500D02*
D03*
X865500Y526250D02*
D03*
X842500D02*
D03*
X819500D02*
D03*
X243000Y528750D02*
D03*
X220000D02*
D03*
X197000D02*
D03*
X387000Y358750D02*
D03*
X410000D02*
D03*
X433000D02*
D03*
X499500D02*
D03*
X522500D02*
D03*
X545500D02*
D03*
X338000Y526250D02*
D03*
X315000D02*
D03*
X292000D02*
D03*
X973000Y523750D02*
D03*
X950000D02*
D03*
X927000D02*
D03*
D20*
X640000Y293750D02*
D03*
X415000Y588750D02*
D03*
X750000Y293750D02*
D03*
X505000Y588750D02*
D03*
X202500Y293750D02*
D03*
X842500D02*
D03*
X615000Y588750D02*
D03*
X295000Y296250D02*
D03*
X730000Y588750D02*
D03*
X932500Y293750D02*
D03*
X842500Y588750D02*
D03*
X220000Y591250D02*
D03*
X410000Y296250D02*
D03*
X522500D02*
D03*
X315000Y588750D02*
D03*
X950000Y586250D02*
D03*
D21*
X855350Y727500D02*
D03*
X192850Y725000D02*
D03*
X399650Y155000D02*
D03*
X514650D02*
D03*
X962850Y725000D02*
D03*
X307500Y722500D02*
D03*
X952550Y157500D02*
D03*
X742850Y727500D02*
D03*
X630350Y725000D02*
D03*
X844650Y155000D02*
D03*
X522850Y725000D02*
D03*
X732150Y157500D02*
D03*
X624650D02*
D03*
X412850Y725000D02*
D03*
X289650Y152500D02*
D03*
X177150D02*
D03*
D22*
X885400Y727500D02*
D03*
X222900Y725000D02*
D03*
X369600Y155000D02*
D03*
X484600D02*
D03*
X992900Y725000D02*
D03*
X337550Y722500D02*
D03*
X922500Y157500D02*
D03*
X772900Y727500D02*
D03*
X660400Y725000D02*
D03*
X814600Y155000D02*
D03*
X552900Y725000D02*
D03*
X702100Y157500D02*
D03*
X594600D02*
D03*
X442900Y725000D02*
D03*
X259600Y152500D02*
D03*
X147100D02*
D03*
D23*
X185000Y803450D02*
D03*
Y851550D02*
D03*
X57500Y854050D02*
D03*
Y805950D02*
D03*
D24*
X1012500Y730860D02*
D03*
Y704140D02*
D03*
X355000Y723360D02*
D03*
Y696640D02*
D03*
X460000Y151640D02*
D03*
Y178360D02*
D03*
X905000Y730860D02*
D03*
Y704140D02*
D03*
X245000Y725860D02*
D03*
Y699140D02*
D03*
X347500Y149140D02*
D03*
Y175860D02*
D03*
X890000Y184140D02*
D03*
Y210860D02*
D03*
X797500Y730860D02*
D03*
Y704140D02*
D03*
X235000Y151640D02*
D03*
Y178360D02*
D03*
X682500Y730860D02*
D03*
Y704140D02*
D03*
X790000Y149140D02*
D03*
Y175860D02*
D03*
X127500Y136640D02*
D03*
Y163360D02*
D03*
X572500Y728360D02*
D03*
Y701640D02*
D03*
X680000Y149140D02*
D03*
Y175860D02*
D03*
X575000Y149140D02*
D03*
Y175860D02*
D03*
X462500Y730860D02*
D03*
Y704140D02*
D03*
D25*
X427900Y260600D02*
D03*
X402500D02*
D03*
Y184400D02*
D03*
X427900D02*
D03*
X377100Y260600D02*
D03*
Y184400D02*
D03*
X430400Y695600D02*
D03*
Y619400D02*
D03*
X379600Y695600D02*
D03*
X405000D02*
D03*
Y619400D02*
D03*
X379600D02*
D03*
X650400Y261200D02*
D03*
X625000D02*
D03*
Y185000D02*
D03*
X650400D02*
D03*
X599600Y261200D02*
D03*
Y185000D02*
D03*
X762900Y263100D02*
D03*
X737500D02*
D03*
Y186900D02*
D03*
X762900D02*
D03*
X712100Y263100D02*
D03*
Y186900D02*
D03*
X540400Y693100D02*
D03*
Y616900D02*
D03*
X489600Y693100D02*
D03*
X515000D02*
D03*
Y616900D02*
D03*
X489600D02*
D03*
X210400Y255600D02*
D03*
X185000D02*
D03*
Y179400D02*
D03*
X210400D02*
D03*
X159600Y255600D02*
D03*
Y179400D02*
D03*
X814600Y186900D02*
D03*
Y263100D02*
D03*
X865400Y186900D02*
D03*
X840000D02*
D03*
Y263100D02*
D03*
X865400D02*
D03*
X599600Y619400D02*
D03*
X625000D02*
D03*
Y695600D02*
D03*
X599600D02*
D03*
X650400Y619400D02*
D03*
Y695600D02*
D03*
X267100Y184400D02*
D03*
Y260600D02*
D03*
X317900Y184400D02*
D03*
X292500D02*
D03*
Y260600D02*
D03*
X317900D02*
D03*
X714600Y621900D02*
D03*
X740000D02*
D03*
Y698100D02*
D03*
X714600D02*
D03*
X765400Y621900D02*
D03*
Y698100D02*
D03*
X922100Y189400D02*
D03*
Y265600D02*
D03*
X972900Y189400D02*
D03*
X947500D02*
D03*
Y265600D02*
D03*
X972900D02*
D03*
X215400Y695600D02*
D03*
Y619400D02*
D03*
X164600Y695600D02*
D03*
X190000D02*
D03*
Y619400D02*
D03*
X164600D02*
D03*
X827100Y621900D02*
D03*
X852500D02*
D03*
Y698100D02*
D03*
X827100D02*
D03*
X877900Y621900D02*
D03*
Y698100D02*
D03*
X489600Y184400D02*
D03*
Y260600D02*
D03*
X540400Y184400D02*
D03*
X515000D02*
D03*
Y260600D02*
D03*
X540400D02*
D03*
X272100Y616900D02*
D03*
X297500D02*
D03*
Y693100D02*
D03*
X272100D02*
D03*
X322900Y616900D02*
D03*
Y693100D02*
D03*
X985400D02*
D03*
Y616900D02*
D03*
X934600Y693100D02*
D03*
X960000D02*
D03*
Y616900D02*
D03*
X934600D02*
D03*
D26*
X115600Y607100D02*
D03*
X39400D02*
D03*
X115600Y657900D02*
D03*
Y632500D02*
D03*
X39400D02*
D03*
Y657900D02*
D03*
D27*
X378000Y725000D02*
D03*
X397000D02*
D03*
X659500Y157500D02*
D03*
X640500D02*
D03*
X767000D02*
D03*
X748000D02*
D03*
X488000Y725000D02*
D03*
X507000D02*
D03*
X212000Y152500D02*
D03*
X193000D02*
D03*
X882000Y155000D02*
D03*
X863000D02*
D03*
X595000Y725000D02*
D03*
X614000D02*
D03*
X324500Y152500D02*
D03*
X305500D02*
D03*
X705500Y727500D02*
D03*
X724500D02*
D03*
X989500Y157500D02*
D03*
X970500D02*
D03*
X437000Y155000D02*
D03*
X418000D02*
D03*
X158000Y725000D02*
D03*
X177000D02*
D03*
X821000Y727500D02*
D03*
X840000D02*
D03*
X549500Y155000D02*
D03*
X530500D02*
D03*
X270000Y722500D02*
D03*
X289000D02*
D03*
X928000Y725000D02*
D03*
X947000D02*
D03*
X70500Y105000D02*
D03*
X89500D02*
D03*
X144500Y395000D02*
D03*
X125500D02*
D03*
D28*
X67500Y780500D02*
D03*
X117500D02*
D03*
Y689500D02*
D03*
X67500D02*
D03*
D29*
X352500Y483000D02*
D03*
Y462000D02*
D03*
D30*
X53400Y107500D02*
D03*
X21600D02*
D03*
D31*
X77450Y479500D02*
D03*
Y470000D02*
D03*
Y460500D02*
D03*
X52550D02*
D03*
Y470000D02*
D03*
Y479500D02*
D03*
D32*
X60000Y524500D02*
D03*
Y505500D02*
D03*
X50000Y425500D02*
D03*
Y444500D02*
D03*
X210000Y453000D02*
D03*
Y472000D02*
D03*
D33*
X89750Y539000D02*
D03*
X170250D02*
D03*
D34*
X130000Y445000D02*
D03*
X180000D02*
D03*
D35*
X306250Y465000D02*
D03*
D36*
X243750Y442000D02*
D03*
Y465000D02*
D03*
Y488000D02*
D03*
D37*
X212000Y497500D02*
D03*
X193000D02*
D03*
X105500Y105000D02*
D03*
X124500D02*
D03*
X125500Y372500D02*
D03*
X144500D02*
D03*
D38*
X75000Y334000D02*
D03*
X105000D02*
D03*
X75000Y406000D02*
D03*
X105000D02*
D03*
M02*
