G04*
G04 #@! TF.GenerationSoftware,Altium Limited,Altium Designer,22.7.1 (60)*
G04*
G04 Layer_Color=65535*
%FSLAX44Y44*%
%MOMM*%
G71*
G04*
G04 #@! TF.SameCoordinates,58864457-2C57-4B72-ACF9-2A768CBF14AA*
G04*
G04*
G04 #@! TF.FilePolarity,Positive*
G04*
G01*
G75*
%ADD10C,0.2000*%
%ADD11C,0.1524*%
%ADD12C,0.1270*%
%ADD13C,0.2540*%
%ADD14C,0.1500*%
%ADD15C,0.0700*%
%ADD16C,0.1000*%
D10*
X102082Y210386D02*
G03*
X102082Y210386I-1000J0D01*
G01*
X665000Y371000D02*
G03*
X665000Y371000I-1000J0D01*
G01*
X392000Y511500D02*
G03*
X392000Y511500I-1000J0D01*
G01*
X775000Y371000D02*
G03*
X775000Y371000I-1000J0D01*
G01*
X482000Y511500D02*
G03*
X482000Y511500I-1000J0D01*
G01*
X227500Y371000D02*
G03*
X227500Y371000I-1000J0D01*
G01*
X867500D02*
G03*
X867500Y371000I-1000J0D01*
G01*
X592000Y511500D02*
G03*
X592000Y511500I-1000J0D01*
G01*
X320000Y373500D02*
G03*
X320000Y373500I-1000J0D01*
G01*
X707000Y511500D02*
G03*
X707000Y511500I-1000J0D01*
G01*
X957500Y371000D02*
G03*
X957500Y371000I-1000J0D01*
G01*
X819500Y511500D02*
G03*
X819500Y511500I-1000J0D01*
G01*
X197000Y514000D02*
G03*
X197000Y514000I-1000J0D01*
G01*
X435000Y373500D02*
G03*
X435000Y373500I-1000J0D01*
G01*
X547500D02*
G03*
X547500Y373500I-1000J0D01*
G01*
X292000Y511500D02*
G03*
X292000Y511500I-1000J0D01*
G01*
X927000Y509000D02*
G03*
X927000Y509000I-1000J0D01*
G01*
X11830Y108516D02*
G03*
X11830Y108516I-1000J0D01*
G01*
X41000Y482000D02*
G03*
X41000Y482000I-1000J0D01*
G01*
X68000Y539000D02*
G03*
X68000Y539000I-1000J0D01*
G01*
X230000Y489000D02*
G03*
X230000Y489000I-1000J0D01*
G01*
X17500Y674000D02*
Y706000D01*
Y674000D02*
X37500D01*
Y706000D01*
X17500D02*
X37500D01*
X355000Y576000D02*
X375000D01*
Y544000D02*
Y576000D01*
X355000Y544000D02*
X375000D01*
X355000D02*
Y576000D01*
X403500Y715000D02*
Y735000D01*
X371500Y715000D02*
X403500D01*
X371500D02*
Y735000D01*
X403500D01*
X675000Y289000D02*
X695000D01*
X675000D02*
Y321000D01*
X695000D01*
Y289000D02*
Y321000D01*
X132500Y599000D02*
X152500D01*
X132500D02*
Y631000D01*
X152500D01*
Y599000D02*
Y631000D01*
X634000Y147500D02*
Y167500D01*
X666000D01*
Y147500D02*
Y167500D01*
X634000Y147500D02*
X666000D01*
X55750Y681000D02*
Y698000D01*
X41500Y701500D02*
X143500D01*
Y768500D01*
X41500D02*
X143500D01*
X41500Y701500D02*
Y768500D01*
X741500Y147500D02*
Y167500D01*
X773500D01*
Y147500D02*
Y167500D01*
X741500Y147500D02*
X773500D01*
X513500Y715000D02*
Y735000D01*
X481500Y715000D02*
X513500D01*
X481500D02*
Y735000D01*
X513500D01*
X785000Y286500D02*
X805000D01*
X785000D02*
Y318500D01*
X805000D01*
Y286500D02*
Y318500D01*
X186500Y142500D02*
Y162500D01*
X218500D01*
Y142500D02*
Y162500D01*
X186500Y142500D02*
X218500D01*
X450000Y578500D02*
X470000D01*
Y546500D02*
Y578500D01*
X450000Y546500D02*
X470000D01*
X450000D02*
Y578500D01*
X856500Y145000D02*
Y165000D01*
X888500D01*
Y145000D02*
Y165000D01*
X856500Y145000D02*
X888500D01*
X620500Y715000D02*
Y735000D01*
X588500Y715000D02*
X620500D01*
X588500D02*
Y735000D01*
X620500D01*
X299000Y142500D02*
Y162500D01*
X331000D01*
Y142500D02*
Y162500D01*
X299000Y142500D02*
X331000D01*
X240000Y291500D02*
X260000D01*
X240000D02*
Y323500D01*
X260000D01*
Y291500D02*
Y323500D01*
X731000Y717500D02*
Y737500D01*
X699000Y717500D02*
X731000D01*
X699000D02*
Y737500D01*
X731000D01*
X877500Y289000D02*
X897500D01*
X877500D02*
Y321000D01*
X897500D01*
Y289000D02*
Y321000D01*
X964000Y147500D02*
Y167500D01*
X996000D01*
Y147500D02*
Y167500D01*
X964000Y147500D02*
X996000D01*
X560000Y578500D02*
X580000D01*
Y546500D02*
Y578500D01*
X560000Y546500D02*
X580000D01*
X560000D02*
Y578500D01*
X411500Y145000D02*
Y165000D01*
X443500D01*
Y145000D02*
Y165000D01*
X411500Y145000D02*
X443500D01*
X183500Y715000D02*
Y735000D01*
X151500Y715000D02*
X183500D01*
X151500D02*
Y735000D01*
X183500D01*
X846500Y717500D02*
Y737500D01*
X814500Y717500D02*
X846500D01*
X814500D02*
Y737500D01*
X846500D01*
X524000Y145000D02*
Y165000D01*
X556000D01*
Y145000D02*
Y165000D01*
X524000Y145000D02*
X556000D01*
X330000Y291500D02*
X350000D01*
X330000D02*
Y323500D01*
X350000D01*
Y291500D02*
Y323500D01*
X675000Y583500D02*
X695000D01*
Y551500D02*
Y583500D01*
X675000Y551500D02*
X695000D01*
X675000D02*
Y583500D01*
X295500Y712500D02*
Y732500D01*
X263500Y712500D02*
X295500D01*
X263500D02*
Y732500D01*
X295500D01*
X953500Y715000D02*
Y735000D01*
X921500Y715000D02*
X953500D01*
X921500D02*
Y735000D01*
X953500D01*
X967500Y287000D02*
X987500D01*
X967500D02*
Y319000D01*
X987500D01*
Y287000D02*
Y319000D01*
X782500Y581000D02*
X802500D01*
Y549000D02*
Y581000D01*
X782500Y549000D02*
X802500D01*
X782500D02*
Y581000D01*
X232500Y638500D02*
X252500D01*
Y606500D02*
Y638500D01*
X232500Y606500D02*
X252500D01*
X232500D02*
Y638500D01*
X445000Y294500D02*
X465000D01*
X445000D02*
Y326500D01*
X465000D01*
Y294500D02*
Y326500D01*
X557500Y286500D02*
X577500D01*
X557500D02*
Y318500D01*
X577500D01*
Y286500D02*
Y318500D01*
X257500Y573500D02*
X277500D01*
Y541500D02*
Y573500D01*
X257500Y541500D02*
X277500D01*
X257500D02*
Y573500D01*
X892500Y581000D02*
X912500D01*
Y549000D02*
Y581000D01*
X892500Y549000D02*
X912500D01*
X892500D02*
Y581000D01*
X361500Y450000D02*
Y452750D01*
X343250Y450000D02*
Y452750D01*
Y450000D02*
X361500D01*
X343250Y452750D02*
Y492250D01*
X361500D01*
Y452750D02*
Y492250D01*
X343250Y452750D02*
X361500D01*
X365000Y456500D02*
X385000D01*
X365000D02*
Y488500D01*
X385000D01*
Y456500D02*
Y488500D01*
X20000Y71000D02*
X40000D01*
Y39000D02*
Y71000D01*
X20000Y39000D02*
X40000D01*
X20000D02*
Y71000D01*
X51110Y498490D02*
X68890D01*
X51110D02*
Y531510D01*
X68890D01*
Y498490D02*
Y531510D01*
X78000Y561000D02*
Y591000D01*
X182000D01*
Y561000D02*
Y591000D01*
X78000Y487000D02*
Y517000D01*
Y487000D02*
X182000D01*
Y517000D01*
X828000Y399000D02*
X942000D01*
Y446000D01*
X828000D02*
X942000D01*
X828000Y399000D02*
Y446000D01*
X41110Y451510D02*
X58890D01*
Y418490D02*
Y451510D01*
X41110Y418490D02*
X58890D01*
X41110D02*
Y451510D01*
X90000Y451000D02*
X110000D01*
Y419000D02*
Y451000D01*
X90000Y419000D02*
X110000D01*
X90000D02*
Y451000D01*
X132000Y478000D02*
X188000D01*
Y456000D02*
Y478000D01*
X189000Y412000D02*
X189000Y434000D01*
X188000Y411000D02*
X189000Y412000D01*
X132000Y411000D02*
X188000D01*
X122000Y420000D02*
X131000Y411000D01*
X122000Y470000D02*
X130000Y478000D01*
X132000D01*
X122000Y456000D02*
Y470000D01*
Y420000D02*
Y434000D01*
X65000Y451000D02*
X85000D01*
Y419000D02*
Y451000D01*
X65000Y419000D02*
X85000D01*
X65000D02*
Y451000D01*
X185990Y488610D02*
Y506390D01*
X219010Y506390D01*
Y488610D02*
Y506390D01*
X185990Y488610D02*
X219010Y488610D01*
X201110Y479010D02*
X218890D01*
X218890Y445990D02*
X218890Y479010D01*
X201110Y445990D02*
X218890D01*
X201110Y479010D02*
X201110Y445990D01*
X27500Y169000D02*
X47500D01*
X27500D02*
Y201000D01*
X47500D01*
Y169000D02*
Y201000D01*
X107500Y219000D02*
X127500D01*
X107500D02*
Y251000D01*
X127500D01*
Y219000D02*
Y251000D01*
X85000Y219000D02*
X105000D01*
X85000D02*
Y251000D01*
X105000D01*
Y219000D02*
Y251000D01*
X62500Y219000D02*
X82500D01*
X62500D02*
Y251000D01*
X82500D01*
Y219000D02*
Y251000D01*
X131510Y96110D02*
Y113890D01*
X98490Y96110D02*
X131510D01*
X98490D02*
Y113890D01*
X131510D01*
X67750Y347750D02*
Y392500D01*
X112500D01*
Y347500D02*
Y392500D01*
X112250Y347750D02*
X112500Y347500D01*
X67750Y347750D02*
X112250D01*
X27500Y166000D02*
X47500D01*
Y134000D02*
Y166000D01*
X27500Y134000D02*
X47500D01*
X27500D02*
Y166000D01*
X849400Y471150D02*
Y502900D01*
Y452100D02*
Y483850D01*
Y452100D02*
X925600D01*
Y502900D01*
X849400D02*
X925600D01*
X96000Y95000D02*
Y115000D01*
X64000Y95000D02*
X96000D01*
X64000D02*
Y115000D01*
X96000D01*
X151510Y363610D02*
Y381390D01*
X118490Y363610D02*
X151510D01*
X118490D02*
Y381390D01*
X151510D01*
X119000Y385000D02*
Y405000D01*
X151000D01*
Y385000D02*
Y405000D01*
X119000Y385000D02*
X151000D01*
D11*
X440600Y232660D02*
G03*
X440600Y212340I0J-10160D01*
G01*
X366900Y647340D02*
G03*
X366900Y667660I0J10160D01*
G01*
X663100Y233260D02*
G03*
X663100Y212940I0J-10160D01*
G01*
X67340Y670600D02*
G03*
X87660Y670600I10160J0D01*
G01*
X775600Y235160D02*
G03*
X775600Y214840I0J-10160D01*
G01*
X476900Y644840D02*
G03*
X476900Y665160I0J10160D01*
G01*
X223100Y227660D02*
G03*
X223100Y207340I0J-10160D01*
G01*
X878100Y235160D02*
G03*
X878100Y214840I0J-10160D01*
G01*
X586900Y647340D02*
G03*
X586900Y667660I0J10160D01*
G01*
X330600Y232660D02*
G03*
X330600Y212340I0J-10160D01*
G01*
X701900Y649840D02*
G03*
X701900Y670160I0J10160D01*
G01*
X985600Y237660D02*
G03*
X985600Y217340I0J-10160D01*
G01*
X151900Y647340D02*
G03*
X151900Y667660I0J10160D01*
G01*
X814400Y649840D02*
G03*
X814400Y670160I0J10160D01*
G01*
X553100Y232660D02*
G03*
X553100Y212340I0J-10160D01*
G01*
X259400Y644840D02*
G03*
X259400Y665160I0J10160D01*
G01*
X921900Y644840D02*
G03*
X921900Y665160I0J10160D01*
G01*
X364400Y193290D02*
Y251710D01*
X440600Y193290D02*
Y212340D01*
Y232660D02*
Y251710D01*
X366900Y628290D02*
Y647340D01*
Y667660D02*
Y686710D01*
X443100Y628290D02*
Y686710D01*
X586900Y193890D02*
Y252310D01*
X663100Y193890D02*
Y212940D01*
Y233260D02*
Y252310D01*
X48290Y670600D02*
X67340D01*
X87660D02*
X106710D01*
X48290Y594400D02*
X106710D01*
X699400Y195790D02*
Y254210D01*
X775600Y195790D02*
Y214840D01*
Y235160D02*
Y254210D01*
X476900Y625790D02*
Y644840D01*
Y665160D02*
Y684210D01*
X553100Y625790D02*
Y684210D01*
X146900Y188290D02*
Y246710D01*
X223100Y188290D02*
Y207340D01*
Y227660D02*
Y246710D01*
X878100Y235160D02*
Y254210D01*
Y195790D02*
Y214840D01*
X801900Y195790D02*
Y254210D01*
X663100Y628290D02*
Y686710D01*
X586900Y667660D02*
Y686710D01*
Y628290D02*
Y647340D01*
X330600Y232660D02*
Y251710D01*
Y193290D02*
Y212340D01*
X254400Y193290D02*
Y251710D01*
X778100Y630790D02*
Y689210D01*
X701900Y670160D02*
Y689210D01*
Y630790D02*
Y649840D01*
X985600Y237660D02*
Y256710D01*
Y198290D02*
Y217340D01*
X909400Y198290D02*
Y256710D01*
X151900Y628290D02*
Y647340D01*
Y667660D02*
Y686710D01*
X228100Y628290D02*
Y686710D01*
X890600Y630790D02*
Y689210D01*
X814400Y670160D02*
Y689210D01*
Y630790D02*
Y649840D01*
X553100Y232660D02*
Y251710D01*
Y193290D02*
Y212340D01*
X476900Y193290D02*
Y251710D01*
X335600Y625790D02*
Y684210D01*
X259400Y665160D02*
Y684210D01*
Y625790D02*
Y644840D01*
X921900Y625790D02*
Y644840D01*
Y665160D02*
Y684210D01*
X998100Y625790D02*
Y684210D01*
D12*
X54750Y150000D02*
Y190000D01*
X105250Y150000D02*
Y190000D01*
X672500Y307500D02*
Y342500D01*
X607500Y307500D02*
X672500D01*
X607500D02*
Y342500D01*
X672500D01*
X854500Y738150D02*
X885500D01*
X854500Y716850D02*
X885500D01*
X192000Y735650D02*
X223000D01*
X192000Y714350D02*
X223000D01*
X369500Y144350D02*
X400500D01*
X369500Y165650D02*
X400500D01*
X484500Y144350D02*
X515500D01*
X484500Y165650D02*
X515500D01*
X962000Y735650D02*
X993000D01*
X962000Y714350D02*
X993000D01*
X306650Y733150D02*
X337650D01*
X306650Y711850D02*
X337650D01*
X922400Y146850D02*
X953400D01*
X922400Y168150D02*
X953400D01*
X742000Y738150D02*
X773000D01*
X742000Y716850D02*
X773000D01*
X629500Y735650D02*
X660500D01*
X629500Y714350D02*
X660500D01*
X814500Y144350D02*
X845500D01*
X814500Y165650D02*
X845500D01*
X522000Y735650D02*
X553000D01*
X522000Y714350D02*
X553000D01*
X702000Y146850D02*
X733000D01*
X702000Y168150D02*
X733000D01*
X594500Y146850D02*
X625500D01*
X594500Y168150D02*
X625500D01*
X412000Y735650D02*
X443000D01*
X412000Y714350D02*
X443000D01*
X259500Y141850D02*
X290500D01*
X259500Y163150D02*
X290500D01*
X147000Y141850D02*
X178000D01*
X147000Y163150D02*
X178000D01*
X168200Y818500D02*
Y836500D01*
X201800Y818500D02*
Y836500D01*
X1021500Y714600D02*
Y720400D01*
X1003500Y714600D02*
Y720400D01*
X364000Y707100D02*
Y712900D01*
X346000Y707100D02*
Y712900D01*
X451000Y162100D02*
Y167900D01*
X469000Y162100D02*
Y167900D01*
X914000Y714600D02*
Y720400D01*
X896000Y714600D02*
Y720400D01*
X254000Y709600D02*
Y715400D01*
X236000Y709600D02*
Y715400D01*
X338500Y159600D02*
Y165400D01*
X356500Y159600D02*
Y165400D01*
X881000Y194600D02*
Y200400D01*
X899000Y194600D02*
Y200400D01*
X806500Y714600D02*
Y720400D01*
X788500Y714600D02*
Y720400D01*
X226000Y162100D02*
Y167900D01*
X244000Y162100D02*
Y167900D01*
X691500Y714600D02*
Y720400D01*
X673500Y714600D02*
Y720400D01*
X781000Y159600D02*
Y165400D01*
X799000Y159600D02*
Y165400D01*
X118500Y147100D02*
Y152900D01*
X136500Y147100D02*
Y152900D01*
X581500Y712100D02*
Y717900D01*
X563500Y712100D02*
Y717900D01*
X671000Y159600D02*
Y165400D01*
X689000Y159600D02*
Y165400D01*
X566000Y159600D02*
Y165400D01*
X584000Y159600D02*
Y165400D01*
X471500Y714600D02*
Y720400D01*
X453500Y714600D02*
Y720400D01*
X368500Y741000D02*
Y787000D01*
X472500D01*
X472500Y741000D01*
X368500D02*
X472500D01*
X583500Y138000D02*
X687500D01*
X583500D02*
X583500Y92000D01*
X687500D01*
Y138000D01*
X797500Y92000D02*
Y138000D01*
X693500Y92000D02*
X797500D01*
X693500Y138000D02*
X693500Y92000D01*
X693500Y138000D02*
X797500D01*
X478500Y741000D02*
X582500D01*
X582500Y787000D02*
X582500Y741000D01*
X478500Y787000D02*
X582500D01*
X478500Y741000D02*
Y787000D01*
X247500Y93000D02*
Y139000D01*
X143500Y93000D02*
X247500D01*
X143500D02*
Y139000D01*
X247500D01*
X803500Y138000D02*
X907500D01*
X803500D02*
X803500Y92000D01*
X907500D01*
Y138000D01*
X588500Y741000D02*
Y787000D01*
X692500D01*
X692500Y741000D01*
X588500D02*
X692500D01*
X253500Y138000D02*
X357500D01*
X253500Y92000D02*
Y138000D01*
Y92000D02*
X357500D01*
Y138000D01*
X698500Y741000D02*
Y787000D01*
X802500D01*
X802500Y741000D01*
X698500D02*
X802500D01*
X913500Y139000D02*
X1017500D01*
X913500D02*
X913500Y93000D01*
X1017500D01*
Y139000D01*
X467500Y92000D02*
Y138000D01*
X363500Y92000D02*
X467500D01*
X363500D02*
Y138000D01*
X467500D01*
X148500Y741000D02*
X252500D01*
X252500Y787000D02*
X252500Y741000D01*
X148500Y787000D02*
X252500D01*
X148500Y741000D02*
Y787000D01*
X808500Y741000D02*
Y787000D01*
X912500D01*
X912500Y741000D01*
X808500D02*
X912500D01*
X473500Y138000D02*
X577500D01*
X473500Y92000D02*
Y138000D01*
Y92000D02*
X577500D01*
Y138000D01*
X258500Y741000D02*
Y787000D01*
X362500D01*
X362500Y741000D01*
X258500D02*
X362500D01*
X918500D02*
X1022500D01*
X1022500Y787000D02*
X1022500Y741000D01*
X918500Y787000D02*
X1022500D01*
X918500Y741000D02*
Y787000D01*
X74300Y821000D02*
Y839000D01*
X40700Y821000D02*
Y839000D01*
X382500Y540000D02*
X447500D01*
Y575000D01*
X382500D02*
X447500D01*
X382500Y540000D02*
Y575000D01*
X717500Y342500D02*
X782500D01*
X717500Y307500D02*
Y342500D01*
Y307500D02*
X782500D01*
Y342500D01*
X472500Y540000D02*
X537500D01*
Y575000D01*
X472500D02*
X537500D01*
X472500Y540000D02*
Y575000D01*
X170000Y342500D02*
X235000D01*
X170000Y307500D02*
Y342500D01*
Y307500D02*
X235000D01*
Y342500D01*
X810000D02*
X875000D01*
X810000Y307500D02*
Y342500D01*
Y307500D02*
X875000D01*
Y342500D01*
X582500Y540000D02*
X647500D01*
Y575000D01*
X582500D02*
X647500D01*
X582500Y540000D02*
Y575000D01*
X262500Y345000D02*
X327500D01*
X262500Y310000D02*
Y345000D01*
Y310000D02*
X327500D01*
Y345000D01*
X697500Y540000D02*
X762500D01*
Y575000D01*
X697500D02*
X762500D01*
X697500Y540000D02*
Y575000D01*
X900000Y342500D02*
X965000D01*
X900000Y307500D02*
Y342500D01*
Y307500D02*
X965000D01*
Y342500D01*
X810000Y540000D02*
X875000D01*
Y575000D01*
X810000D02*
X875000D01*
X810000Y540000D02*
Y575000D01*
X187500Y542500D02*
X252500D01*
Y577500D01*
X187500D02*
X252500D01*
X187500Y542500D02*
Y577500D01*
X377500Y345000D02*
X442500D01*
X377500Y310000D02*
Y345000D01*
Y310000D02*
X442500D01*
Y345000D01*
X490000D02*
X555000D01*
X490000Y310000D02*
Y345000D01*
Y310000D02*
X555000D01*
Y345000D01*
X282500Y540000D02*
X347500D01*
Y575000D01*
X282500D02*
X347500D01*
X282500Y540000D02*
Y575000D01*
X917500Y537500D02*
X982500D01*
Y572500D01*
X917500D02*
X982500D01*
X917500Y537500D02*
Y572500D01*
X23250Y117000D02*
X51750D01*
X23250Y98000D02*
X51750D01*
X51750Y98450D02*
X51750Y98000D01*
X51750Y116550D02*
X51750Y117000D01*
X23250Y98000D02*
X23250Y98450D01*
X23250Y117000D02*
X23250Y116550D01*
X56200Y454360D02*
X73800D01*
X56200Y485640D02*
X73800D01*
X257500Y432500D02*
Y497500D01*
Y432500D02*
X292500D01*
Y497500D01*
X257500D02*
X292500D01*
D13*
X27300Y287400D02*
X52700D01*
X27300Y237400D02*
Y287400D01*
X52700Y237400D02*
Y287400D01*
X27300Y237400D02*
X52700D01*
X987300Y588000D02*
X1012700D01*
X987300Y538000D02*
Y588000D01*
X1012700Y538000D02*
Y588000D01*
X987300Y538000D02*
X1012700D01*
X27300Y588000D02*
X52700D01*
X27300Y538000D02*
Y588000D01*
X52700Y538000D02*
Y588000D01*
X27300Y538000D02*
X52700D01*
D14*
X115076Y863896D02*
X156844D01*
Y790924D02*
Y863896D01*
X79120Y790924D02*
Y864076D01*
Y790924D02*
X156844D01*
X79374Y864150D02*
X115076Y863896D01*
X950128Y866396D02*
X991896D01*
Y793424D02*
Y866396D01*
X914172Y793424D02*
Y866576D01*
Y793424D02*
X991896D01*
X914426Y866650D02*
X950128Y866396D01*
X409426Y866650D02*
X445128Y866396D01*
X409172Y793424D02*
X486896D01*
X409172D02*
Y866576D01*
X486896Y793424D02*
Y866396D01*
X445128D02*
X486896D01*
X669924Y13604D02*
X705626Y13350D01*
X628156Y86576D02*
X705880D01*
Y13424D02*
Y86576D01*
X628156Y13604D02*
Y86576D01*
Y13604D02*
X669924D01*
X764924D02*
X800626Y13350D01*
X723156Y86576D02*
X800880D01*
Y13424D02*
Y86576D01*
X723156Y13604D02*
Y86576D01*
Y13604D02*
X764924D01*
X509426Y866650D02*
X545128Y866396D01*
X509172Y793424D02*
X586896D01*
X509172D02*
Y866576D01*
X586896Y793424D02*
Y866396D01*
X545128D02*
X586896D01*
X289924Y13604D02*
X325626Y13350D01*
X248156Y86576D02*
X325880D01*
Y13424D02*
Y86576D01*
X248156Y13604D02*
Y86576D01*
Y13604D02*
X289924D01*
X859924D02*
X895626Y13350D01*
X818156Y86576D02*
X895880D01*
Y13424D02*
Y86576D01*
X818156Y13604D02*
Y86576D01*
Y13604D02*
X859924D01*
X609426Y866650D02*
X645128Y866396D01*
X609172Y793424D02*
X686896D01*
X609172D02*
Y866576D01*
X686896Y793424D02*
Y866396D01*
X645128D02*
X686896D01*
X384924Y13604D02*
X420626Y13350D01*
X343156Y86576D02*
X420880D01*
Y13424D02*
Y86576D01*
X343156Y13604D02*
Y86576D01*
Y13604D02*
X384924D01*
X709426Y866650D02*
X745128Y866396D01*
X709172Y793424D02*
X786896D01*
X709172D02*
Y866576D01*
X786896Y793424D02*
Y866396D01*
X745128D02*
X786896D01*
X954924Y13604D02*
X990626Y13350D01*
X913156Y86576D02*
X990880D01*
Y13424D02*
Y86576D01*
X913156Y13604D02*
Y86576D01*
Y13604D02*
X954924D01*
X809426Y866650D02*
X845128Y866396D01*
X809172Y793424D02*
X886896D01*
X809172D02*
Y866576D01*
X886896Y793424D02*
Y866396D01*
X845128D02*
X886896D01*
X209426Y866650D02*
X245128Y866396D01*
X209172Y793424D02*
X286896D01*
X209172D02*
Y866576D01*
X286896Y793424D02*
Y866396D01*
X245128D02*
X286896D01*
X479924Y13604D02*
X515626Y13350D01*
X438156Y86576D02*
X515880D01*
Y13424D02*
Y86576D01*
X438156Y13604D02*
Y86576D01*
Y13604D02*
X479924D01*
X574924D02*
X610626Y13350D01*
X533156Y86576D02*
X610880D01*
Y13424D02*
Y86576D01*
X533156Y13604D02*
Y86576D01*
Y13604D02*
X574924D01*
X309426Y866650D02*
X345128Y866396D01*
X309172Y793424D02*
X386896D01*
X309172D02*
Y866576D01*
X386896Y793424D02*
Y866396D01*
X345128D02*
X386896D01*
X84924Y13604D02*
X120626Y13350D01*
X43156Y86576D02*
X120880D01*
Y13424D02*
Y86576D01*
X43156Y13604D02*
Y86576D01*
Y13604D02*
X84924D01*
X987300Y237300D02*
X1012700D01*
Y338900D01*
X987300Y237300D02*
Y338900D01*
X1012700D01*
X184924Y13604D02*
X220626Y13350D01*
X143156Y86576D02*
X220880D01*
Y13424D02*
Y86576D01*
X143156Y13604D02*
Y86576D01*
Y13604D02*
X184924D01*
X669000Y432666D02*
Y437331D01*
X671333Y439664D01*
X673665Y437331D01*
Y432666D01*
Y436165D01*
X669000D01*
X680663Y438498D02*
X679497Y439664D01*
X677164D01*
X675998Y438498D01*
Y433833D01*
X677164Y432666D01*
X679497D01*
X680663Y433833D01*
X682996Y432666D02*
X685328D01*
X684162D01*
Y439664D01*
X682996Y438498D01*
X693492Y439664D02*
X691160Y438498D01*
X688827Y436165D01*
Y433833D01*
X689993Y432666D01*
X692326D01*
X693492Y433833D01*
Y434999D01*
X692326Y436165D01*
X688827D01*
X695825Y431500D02*
X700490D01*
X702822Y439664D02*
Y432666D01*
X706321D01*
X707488Y433833D01*
Y438498D01*
X706321Y439664D01*
X702822D01*
X709820D02*
X712153D01*
X710986D01*
Y432666D01*
X709820D01*
X712153D01*
X715652D02*
Y439664D01*
X717984Y437331D01*
X720317Y439664D01*
Y432666D01*
X736645Y439664D02*
Y434999D01*
X738978Y432666D01*
X741310Y434999D01*
Y439664D01*
X743643Y432666D02*
X745975D01*
X744809D01*
Y439664D01*
X743643Y438498D01*
X749474Y432666D02*
Y433833D01*
X750640D01*
Y432666D01*
X749474D01*
X755306Y438498D02*
X756472Y439664D01*
X758804D01*
X759971Y438498D01*
Y433833D01*
X758804Y432666D01*
X756472D01*
X755306Y433833D01*
Y438498D01*
X669000Y450166D02*
Y454831D01*
X671333Y457164D01*
X673665Y454831D01*
Y450166D01*
Y453665D01*
X669000D01*
X675998Y457164D02*
X678330D01*
X677164D01*
Y450166D01*
X675998D01*
X678330D01*
X686494Y455998D02*
X685328Y457164D01*
X682996D01*
X681829Y455998D01*
Y451333D01*
X682996Y450166D01*
X685328D01*
X686494Y451333D01*
X688827Y450166D02*
Y454831D01*
X691160Y457164D01*
X693492Y454831D01*
Y450166D01*
Y453665D01*
X688827D01*
X695825Y450166D02*
Y457164D01*
X700490Y450166D01*
Y457164D01*
X702822Y449000D02*
X707488D01*
X714485Y455998D02*
X713319Y457164D01*
X710986D01*
X709820Y455998D01*
Y451333D01*
X710986Y450166D01*
X713319D01*
X714485Y451333D01*
X717984Y450166D02*
X720317D01*
X721483Y451333D01*
Y453665D01*
X720317Y454831D01*
X717984D01*
X716818Y453665D01*
Y451333D01*
X717984Y450166D01*
X723816D02*
Y454831D01*
X727315D01*
X728481Y453665D01*
Y450166D01*
X731980Y455998D02*
Y454831D01*
X730813D01*
X733146D01*
X731980D01*
Y451333D01*
X733146Y450166D01*
X736645Y454831D02*
Y450166D01*
Y452499D01*
X737811Y453665D01*
X738978Y454831D01*
X740144D01*
X744809Y450166D02*
X747141D01*
X748308Y451333D01*
Y453665D01*
X747141Y454831D01*
X744809D01*
X743643Y453665D01*
Y451333D01*
X744809Y450166D01*
X750640D02*
X752973D01*
X751807D01*
Y457164D01*
X750640D01*
D15*
X875700Y515698D02*
Y510700D01*
X878199D01*
X879032Y511533D01*
Y512366D01*
X878199Y513199D01*
X875700D01*
X878199D01*
X879032Y514032D01*
Y514865D01*
X878199Y515698D01*
X875700D01*
X881531Y510700D02*
X883197D01*
X884031Y511533D01*
Y513199D01*
X883197Y514032D01*
X881531D01*
X880698Y513199D01*
Y511533D01*
X881531Y510700D01*
X886530D02*
X888196D01*
X889029Y511533D01*
Y513199D01*
X888196Y514032D01*
X886530D01*
X885697Y513199D01*
Y511533D01*
X886530Y510700D01*
X891528Y514865D02*
Y514032D01*
X890695D01*
X892361D01*
X891528D01*
Y511533D01*
X892361Y510700D01*
X899859D02*
X901525D01*
X900692D01*
Y515698D01*
X899859Y514865D01*
D16*
X1022335Y246832D02*
X1021502Y245999D01*
Y244333D01*
X1022335Y243500D01*
X1025667D01*
X1026500Y244333D01*
Y245999D01*
X1025667Y246832D01*
X1024001D01*
Y245166D01*
X1026500Y248498D02*
X1021502D01*
X1026500Y251831D01*
X1021502D01*
Y253497D02*
X1026500D01*
Y255996D01*
X1025667Y256829D01*
X1022335D01*
X1021502Y255996D01*
Y253497D01*
X1022335Y266826D02*
X1021502Y265993D01*
Y264326D01*
X1022335Y263493D01*
X1023168D01*
X1024001Y264326D01*
Y265993D01*
X1024834Y266826D01*
X1025667D01*
X1026500Y265993D01*
Y264326D01*
X1025667Y263493D01*
X1021502Y268492D02*
X1026500D01*
X1024834Y270158D01*
X1026500Y271824D01*
X1021502D01*
X1022335Y276822D02*
X1021502Y275989D01*
Y274323D01*
X1022335Y273490D01*
X1025667D01*
X1026500Y274323D01*
Y275989D01*
X1025667Y276822D01*
X1021502Y278489D02*
X1026500D01*
Y281821D01*
X1021502Y283487D02*
X1026500D01*
X1024834D01*
X1021502Y286819D01*
X1024001Y284320D01*
X1026500Y286819D01*
X1022335Y296816D02*
X1021502Y295983D01*
Y294317D01*
X1022335Y293484D01*
X1023168D01*
X1024001Y294317D01*
Y295983D01*
X1024834Y296816D01*
X1025667D01*
X1026500Y295983D01*
Y294317D01*
X1025667Y293484D01*
X1021502Y298482D02*
X1026500D01*
X1024834Y300148D01*
X1026500Y301814D01*
X1021502D01*
Y303480D02*
X1026500D01*
Y305980D01*
X1025667Y306813D01*
X1022335D01*
X1021502Y305980D01*
Y303480D01*
Y308479D02*
Y310145D01*
Y309312D01*
X1026500D01*
Y308479D01*
Y310145D01*
X1021502Y315143D02*
Y313477D01*
X1022335Y312644D01*
X1025667D01*
X1026500Y313477D01*
Y315143D01*
X1025667Y315976D01*
X1022335D01*
X1021502Y315143D01*
X1024001Y322641D02*
Y325973D01*
X1022335Y324307D02*
X1025667D01*
X1022335Y327639D02*
X1021502Y328472D01*
Y330138D01*
X1022335Y330971D01*
X1023168D01*
X1024001Y330138D01*
Y329305D01*
Y330138D01*
X1024834Y330971D01*
X1025667D01*
X1026500Y330138D01*
Y328472D01*
X1025667Y327639D01*
X1021502Y332637D02*
X1024834D01*
X1026500Y334304D01*
X1024834Y335970D01*
X1021502D01*
X1022335Y536832D02*
X1021502Y535999D01*
Y534333D01*
X1022335Y533500D01*
X1025667D01*
X1026500Y534333D01*
Y535999D01*
X1025667Y536832D01*
X1024001D01*
Y535166D01*
X1026500Y538498D02*
X1021502D01*
X1026500Y541831D01*
X1021502D01*
Y543497D02*
X1026500D01*
Y545996D01*
X1025667Y546829D01*
X1022335D01*
X1021502Y545996D01*
Y543497D01*
X1024001Y568489D02*
Y571821D01*
X1022335Y570155D02*
X1025667D01*
X1026500Y576819D02*
Y573487D01*
X1023168Y576819D01*
X1022335D01*
X1021502Y575986D01*
Y574320D01*
X1022335Y573487D01*
X1026500Y580984D02*
X1021502D01*
X1024001Y578485D01*
Y581818D01*
X1021502Y583484D02*
X1024834D01*
X1026500Y585150D01*
X1024834Y586816D01*
X1021502D01*
X13500Y271500D02*
X16832D01*
X18498Y269834D01*
X16832Y268168D01*
X13500D01*
X15999D01*
Y271500D01*
X18498Y246508D02*
X13500D01*
Y244009D01*
X14333Y243176D01*
X15166D01*
X15999Y244009D01*
Y246508D01*
Y244009D01*
X16832Y243176D01*
X17665D01*
X18498Y244009D01*
Y246508D01*
X18499Y581500D02*
Y578168D01*
X20165Y579834D02*
X16833D01*
X20998Y573169D02*
Y576502D01*
X18499D01*
X19332Y574836D01*
Y574002D01*
X18499Y573169D01*
X16833D01*
X16000Y574002D01*
Y575669D01*
X16833Y576502D01*
X20165Y553176D02*
X20998Y554009D01*
Y555675D01*
X20165Y556508D01*
X16833D01*
X16000Y555675D01*
Y554009D01*
X16833Y553176D01*
X18499D01*
Y554842D01*
X16000Y551510D02*
X20998D01*
X16000Y548178D01*
X20998D01*
Y546511D02*
X16000D01*
Y544012D01*
X16833Y543179D01*
X20165D01*
X20998Y544012D01*
Y546511D01*
X126500Y874000D02*
Y872001D01*
X125500Y871001D01*
X124501Y872001D01*
Y874000D01*
Y872500D01*
X126500D01*
X121502Y871501D02*
X122001Y871001D01*
X123001D01*
X123501Y871501D01*
Y873500D01*
X123001Y874000D01*
X122001D01*
X121502Y873500D01*
X117503Y871001D02*
X116503D01*
X117003D01*
Y874000D01*
X117503D01*
X116503D01*
X115004D02*
Y871001D01*
X113004Y874000D01*
Y871001D01*
X112005Y874000D02*
Y871001D01*
X110505D01*
X110005Y871501D01*
Y872500D01*
X110505Y873000D01*
X112005D01*
X109006Y871001D02*
Y873500D01*
X108506Y874000D01*
X107506D01*
X107006Y873500D01*
Y871001D01*
X106007D02*
X104007D01*
X105007D01*
Y874000D01*
X136500D02*
Y869002D01*
X133168Y874000D01*
Y869002D01*
X96513D02*
Y874000D01*
X93181D01*
X269000Y871502D02*
Y876500D01*
X265668D01*
X229013D02*
Y871502D01*
X225681Y876500D01*
Y871502D01*
X369000D02*
Y876500D01*
X365668D01*
X329013D02*
Y871502D01*
X325681Y876500D01*
Y871502D01*
X471500D02*
Y876500D01*
X468168D01*
X431513D02*
Y871502D01*
X428181Y876500D01*
Y871502D01*
X569000D02*
Y876500D01*
X565668D01*
X529013D02*
Y871502D01*
X525681Y876500D01*
Y871502D01*
X669000D02*
Y876500D01*
X665668D01*
X629013D02*
Y871502D01*
X625681Y876500D01*
Y871502D01*
X769000D02*
Y876500D01*
X765668D01*
X729013D02*
Y871502D01*
X725681Y876500D01*
Y871502D01*
X869000D02*
Y876500D01*
X865668D01*
X829013D02*
Y871502D01*
X825681Y876500D01*
Y871502D01*
X974000D02*
Y876500D01*
X970668D01*
X934013D02*
Y871502D01*
X930681Y876500D01*
Y871502D01*
X931000Y8498D02*
Y3500D01*
X934332D01*
X970987D02*
Y8498D01*
X974319Y3500D01*
Y8498D01*
X836000D02*
Y3500D01*
X839332D01*
X875987D02*
Y8498D01*
X879319Y3500D01*
Y8498D01*
X743500D02*
Y3500D01*
X746832D01*
X783487D02*
Y8498D01*
X786819Y3500D01*
Y8498D01*
X646000D02*
Y3500D01*
X649332D01*
X685987D02*
Y8498D01*
X689319Y3500D01*
Y8498D01*
X551000D02*
Y3500D01*
X554332D01*
X590987D02*
Y8498D01*
X594319Y3500D01*
Y8498D01*
X458500D02*
Y3500D01*
X461832D01*
X498487D02*
Y8498D01*
X501819Y3500D01*
Y8498D01*
X361000D02*
Y3500D01*
X364332D01*
X400987D02*
Y8498D01*
X404319Y3500D01*
Y8498D01*
X266000D02*
Y3500D01*
X269332D01*
X305987D02*
Y8498D01*
X309319Y3500D01*
Y8498D01*
X161000Y3500D02*
Y6832D01*
X162666Y8498D01*
X164332Y6832D01*
Y3500D01*
Y5999D01*
X161000D01*
X200987Y8498D02*
Y3500D01*
X203486D01*
X204319Y4333D01*
Y5166D01*
X203486Y5999D01*
X200987D01*
X203486D01*
X204319Y6832D01*
Y7665D01*
X203486Y8498D01*
X200987D01*
X59332Y3500D02*
X56000D01*
X59332Y6832D01*
Y7665D01*
X58499Y8498D01*
X56833D01*
X56000Y7665D01*
X63498Y3500D02*
Y8498D01*
X60998Y5999D01*
X64331D01*
X65997Y8498D02*
Y5166D01*
X67663Y3500D01*
X69329Y5166D01*
Y8498D01*
X89322Y7665D02*
X88489Y8498D01*
X86823D01*
X85990Y7665D01*
Y4333D01*
X86823Y3500D01*
X88489D01*
X89322Y4333D01*
Y5999D01*
X87656D01*
X90989Y3500D02*
Y8498D01*
X94321Y3500D01*
Y8498D01*
X95987D02*
Y3500D01*
X98486D01*
X99319Y4333D01*
Y7665D01*
X98486Y8498D01*
X95987D01*
M02*
